<svg width="166" height="209" viewBox="0 0 166 209" fill="none" xmlns="http://www.w3.org/2000/svg">
<g clip-path="url(#clip0_186_100249)">
<path d="M154.722 93.6943H127.615L-56.5812 93.407C-60.7958 93.407 -64.2441 96.8553 -64.2441 101.07V124.25C-64.2441 128.465 -60.7958 131.913 -56.5812 131.913L89.2048 132.2L42.8445 178.561C39.1089 182.296 38.4384 187.756 41.5035 190.725L57.8828 207.105C60.8522 210.074 66.312 209.5 70.0477 205.764L162.673 113.139C169.761 106.051 164.78 93.9818 154.722 93.9818V93.6943Z" fill="white"/>
<path d="M-56.5812 74.3457L127.615 74.0584H154.722C164.78 74.0584 169.761 61.8936 162.673 54.9012L70.0477 -37.7237C66.312 -41.4593 60.8522 -42.1298 57.8828 -39.0647L41.5035 -22.6854C38.5342 -19.716 39.1089 -14.2562 42.8445 -10.5205L89.2048 35.8398L-56.5812 36.1271C-60.7958 36.1271 -64.2441 39.5755 -64.2441 43.79V66.9702C-64.2441 71.1848 -60.7958 74.6331 -56.5812 74.6331V74.3457Z" fill="white"/>
</g>
<defs>
<clipPath id="clip0_186_100249">
<rect width="230.243" height="250" fill="white" transform="translate(-64.2441 -41)"/>
</clipPath>
</defs>
</svg>
