<svg width="162" height="199" viewBox="0 0 162 199" fill="none" xmlns="http://www.w3.org/2000/svg">
<g clip-path="url(#clip0_535_1235)">
<path d="M151.078 88.3454H124.823L-53.5782 88.0684C-57.6602 88.0684 -61 91.3925 -61 95.4554V117.801C-61 121.864 -57.6602 125.188 -53.5782 125.188L87.6215 125.465L42.7196 170.156C39.1015 173.758 38.4521 179.021 41.4208 181.883L57.2848 197.673C60.1608 200.536 65.4489 199.982 69.067 196.38L158.778 107.09C165.643 100.257 160.819 88.6225 151.078 88.6225V88.3454Z" fill="white"/>
<path d="M-53.5782 69.6933L124.823 69.4163H151.078C160.819 69.4163 165.643 57.6894 158.778 50.9488L69.067 -38.3416C65.4489 -41.9428 60.1608 -42.5892 57.2848 -39.6344L41.4208 -23.8447C38.5449 -20.9822 39.1015 -15.719 42.7196 -12.1178L87.6215 32.5736L-53.5782 32.8506C-57.6602 32.8506 -61 36.1747 -61 40.2376V62.5833C-61 66.6461 -57.6602 69.9703 -53.5782 69.9703V69.6933Z" fill="white"/>
</g>
<defs>
<clipPath id="clip0_535_1235">
<rect width="162" height="199" fill="white"/>
</clipPath>
</defs>
</svg>
