<svg width="182" height="600" viewBox="0 0 182 600" fill="none" xmlns="http://www.w3.org/2000/svg">
<g clip-path="url(#clip0_2480_206088)">
<path d="M77.5796 101.702H74.1654L50.9652 101.667C50.4343 101.667 50 102.094 50 102.617V105.491C50 106.014 50.4343 106.441 50.9652 106.441L69.3275 106.477L63.4882 112.226C63.0177 112.689 62.9332 113.366 63.3193 113.734L65.3823 115.765C65.7563 116.133 66.444 116.062 66.9145 115.599L78.581 104.113C79.4738 103.234 78.8464 101.738 77.5796 101.738V101.702Z" fill="#F2F5FF"/>
<path d="M50.9652 99.3029L74.1654 99.2672H77.5796C78.8464 99.2672 79.4738 97.7588 78.581 96.8918L66.9145 85.4063C66.444 84.943 65.7563 84.8599 65.3823 85.24L63.3193 87.271C62.9453 87.6392 63.0177 88.3162 63.4882 88.7795L69.3275 94.5281L50.9652 94.5638C50.4343 94.5638 50 94.9914 50 95.514V98.3883C50 98.9109 50.4343 99.3385 50.9652 99.3385V99.3029Z" fill="#F2F5FF"/>
</g>
<g clip-path="url(#clip1_2480_206088)">
<path d="M103.42 99.2979H106.835L130.035 99.3335C130.566 99.3335 131 98.9059 131 98.3833V95.509C131 94.9863 130.566 94.5588 130.035 94.5588L111.673 94.5231L117.512 88.7744C117.982 88.3112 118.067 87.6342 117.681 87.266L115.618 85.235C115.244 84.8667 114.556 84.938 114.085 85.4012L102.419 96.8867C101.526 97.7657 102.154 99.2622 103.42 99.2622V99.2979Z" fill="#F2F5FF"/>
<path d="M130.035 101.697L106.835 101.733H103.42C102.154 101.733 101.526 103.241 102.419 104.108L114.085 115.594C114.556 116.057 115.244 116.14 115.618 115.76L117.681 113.729C118.055 113.361 117.982 112.684 117.512 112.221L111.673 106.472L130.035 106.436C130.566 106.436 131 106.009 131 105.486V102.612C131 102.089 130.566 101.661 130.035 101.661V101.697Z" fill="#F2F5FF"/>
</g>
<g clip-path="url(#clip2_2480_206088)">
<path d="M91.7021 113.42V116.835L91.6665 140.035C91.6665 140.566 92.0941 141 92.6167 141H95.491C96.0137 141 96.4412 140.566 96.4412 140.035L96.4769 121.673L102.226 127.512C102.689 127.982 103.366 128.067 103.734 127.681L105.765 125.618C106.133 125.244 106.062 124.556 105.599 124.085L94.1133 112.419C93.2343 111.526 91.7378 112.154 91.7378 113.42H91.7021Z" fill="#F2F5FF"/>
<path d="M89.3029 140.035L89.2672 116.835V113.42C89.2672 112.154 87.7588 111.526 86.8918 112.419L75.4063 124.085C74.943 124.556 74.8599 125.244 75.24 125.618L77.271 127.681C77.6392 128.055 78.3162 127.982 78.7795 127.512L84.5281 121.673L84.5638 140.035C84.5638 140.566 84.9914 141 85.514 141H88.3883C88.9109 141 89.3385 140.566 89.3385 140.035H89.3029Z" fill="#F2F5FF"/>
</g>
<g clip-path="url(#clip3_2480_206088)">
<path d="M89.2979 87.5796V84.1654L89.3335 60.9652C89.3335 60.4343 88.9059 60 88.3833 60H85.509C84.9863 60 84.5588 60.4343 84.5588 60.9652L84.5231 79.3275L78.7744 73.4882C78.3112 73.0177 77.6342 72.9332 77.266 73.3193L75.235 75.3823C74.8667 75.7563 74.938 76.444 75.4012 76.9145L86.8867 88.581C87.7657 89.4738 89.2622 88.8464 89.2622 87.5796H89.2979Z" fill="#F2F5FF"/>
<path d="M91.6971 60.9652L91.7328 84.1654V87.5796C91.7328 88.8464 93.2412 89.4738 94.1082 88.581L105.594 76.9145C106.057 76.444 106.14 75.7563 105.76 75.3823L103.729 73.3193C103.361 72.9453 102.684 73.0177 102.221 73.4882L96.4719 79.3275L96.4362 60.9652C96.4362 60.4343 96.0086 60 95.486 60H92.6117C92.0891 60 91.6615 60.4343 91.6615 60.9652H91.6971Z" fill="#F2F5FF"/>
</g>
<g clip-path="url(#clip4_2480_206088)">
<path d="M77.5796 0.702135H74.1654L50.9652 0.666504C50.4343 0.666504 50 1.0941 50 1.6167V4.49104C50 5.01365 50.4343 5.44124 50.9652 5.44124L69.3275 5.47687L63.4882 11.2256C63.0177 11.6888 62.9332 12.3658 63.3193 12.734L65.3823 14.765C65.7563 15.1333 66.444 15.062 66.9145 14.5988L78.581 3.11327C79.4738 2.23434 78.8464 0.737784 77.5796 0.737784V0.702135Z" fill="#F2F5FF"/>
</g>
<g clip-path="url(#clip5_2480_206088)">
<path d="M130.035 0.697126L106.835 0.732758H103.42C102.154 0.732758 101.526 2.24119 102.419 3.10825L114.085 14.5937C114.556 15.057 115.244 15.1401 115.618 14.76L117.681 12.729C118.055 12.3608 117.982 11.6838 117.512 11.2205L111.673 5.47187L130.035 5.43624C130.566 5.43624 131 5.00864 131 4.48604V1.6117C131 1.08909 130.566 0.661496 130.035 0.661496V0.697126Z" fill="#F2F5FF"/>
</g>
<g clip-path="url(#clip6_2480_206088)">
<path d="M91.7021 12.4204V15.8346L91.6665 39.0348C91.6665 39.5657 92.0941 40 92.6167 40H95.491C96.0137 40 96.4412 39.5657 96.4412 39.0348L96.4769 20.6725L102.226 26.5118C102.689 26.9823 103.366 27.0668 103.734 26.6807L105.765 24.6177C106.133 24.2437 106.062 23.556 105.599 23.0855L94.1133 11.419C93.2343 10.5262 91.7378 11.1536 91.7378 12.4204H91.7021Z" fill="#F2F5FF"/>
<path d="M89.3029 39.0348L89.2672 15.8346V12.4204C89.2672 11.1536 87.7588 10.5262 86.8918 11.419L75.4063 23.0855C74.943 23.556 74.8599 24.2437 75.24 24.6177L77.271 26.6807C77.6392 27.0547 78.3162 26.9823 78.7795 26.5118L84.5281 20.6725L84.5638 39.0348C84.5638 39.5657 84.9914 40 85.514 40H88.3883C88.9109 40 89.3385 39.5657 89.3385 39.0348H89.3029Z" fill="#F2F5FF"/>
</g>
<g clip-path="url(#clip7_2480_206088)">
<path d="M128.58 51.7021H125.165L101.965 51.6665C101.434 51.6665 101 52.0941 101 52.6167V55.491C101 56.0137 101.434 56.4412 101.965 56.4412L120.327 56.4769L114.488 62.2256C114.018 62.6888 113.933 63.3658 114.319 63.734L116.382 65.765C116.756 66.1333 117.444 66.062 117.915 65.5988L129.581 54.1133C130.474 53.2343 129.846 51.7378 128.58 51.7378V51.7021Z" fill="#F2F5FF"/>
<path d="M101.965 49.3029L125.165 49.2672H128.58C129.846 49.2672 130.474 47.7588 129.581 46.8918L117.915 35.4063C117.444 34.943 116.756 34.8599 116.382 35.24L114.319 37.271C113.945 37.6392 114.018 38.3162 114.488 38.7795L120.327 44.5281L101.965 44.5638C101.434 44.5638 101 44.9914 101 45.514V48.3883C101 48.9109 101.434 49.3385 101.965 49.3385V49.3029Z" fill="#F2F5FF"/>
</g>
<g clip-path="url(#clip8_2480_206088)">
<path d="M154.42 49.2979H157.835L181.035 49.3335C181.566 49.3335 182 48.9059 182 48.3833V45.509C182 44.9863 181.566 44.5588 181.035 44.5588L162.673 44.5231L168.512 38.7744C168.982 38.3112 169.067 37.6342 168.681 37.266L166.618 35.235C166.244 34.8667 165.556 34.938 165.085 35.4012L153.419 46.8867C152.526 47.7657 153.154 49.2622 154.42 49.2622V49.2979Z" fill="#F2F5FF"/>
<path d="M181.035 51.6971L157.835 51.7328H154.42C153.154 51.7328 152.526 53.2412 153.419 54.1082L165.085 65.5937C165.556 66.057 166.244 66.1401 166.618 65.76L168.681 63.729C169.055 63.3608 168.982 62.6838 168.512 62.2205L162.673 56.4719L181.035 56.4362C181.566 56.4362 182 56.0086 182 55.486V52.6117C182 52.0891 181.566 51.6615 181.035 51.6615V51.6971Z" fill="#F2F5FF"/>
</g>
<g clip-path="url(#clip9_2480_206088)">
<path d="M142.702 63.4204V66.8346L142.667 90.0348C142.667 90.5657 143.094 91 143.617 91H146.491C147.014 91 147.441 90.5657 147.441 90.0348L147.477 71.6725L153.226 77.5118C153.689 77.9823 154.366 78.0668 154.734 77.6807L156.765 75.6177C157.133 75.2437 157.062 74.556 156.599 74.0855L145.113 62.419C144.234 61.5262 142.738 62.1536 142.738 63.4204H142.702Z" fill="#F2F5FF"/>
<path d="M140.303 90.0348L140.267 66.8346V63.4204C140.267 62.1536 138.759 61.5262 137.892 62.419L126.406 74.0855C125.943 74.556 125.86 75.2437 126.24 75.6177L128.271 77.6807C128.639 78.0547 129.316 77.9823 129.779 77.5118L135.528 71.6725L135.564 90.0348C135.564 90.5657 135.991 91 136.514 91H139.388C139.911 91 140.339 90.5657 140.339 90.0348H140.303Z" fill="#F2F5FF"/>
</g>
<g clip-path="url(#clip10_2480_206088)">
<path d="M140.298 37.5796V34.1654L140.333 10.9652C140.333 10.4343 139.906 10 139.383 10H136.509C135.986 10 135.559 10.4343 135.559 10.9652L135.523 29.3275L129.774 23.4882C129.311 23.0177 128.634 22.9332 128.266 23.3193L126.235 25.3823C125.867 25.7563 125.938 26.444 126.401 26.9145L137.887 38.581C138.766 39.4738 140.262 38.8464 140.262 37.5796H140.298Z" fill="#F2F5FF"/>
<path d="M142.697 10.9652L142.733 34.1654V37.5796C142.733 38.8464 144.241 39.4738 145.108 38.581L156.594 26.9145C157.057 26.444 157.14 25.7563 156.76 25.3823L154.729 23.3193C154.361 22.9453 153.684 23.0177 153.221 23.4882L147.472 29.3275L147.436 10.9652C147.436 10.4343 147.009 10 146.486 10H143.612C143.089 10 142.661 10.4343 142.661 10.9652H142.697Z" fill="#F2F5FF"/>
</g>
<g clip-path="url(#clip11_2480_206088)">
<path d="M27.5796 51.7021H24.1654L0.96517 51.6665C0.434328 51.6665 0 52.0941 0 52.6167V55.491C0 56.0137 0.434328 56.4412 0.96517 56.4412L19.3275 56.4769L13.4882 62.2256C13.0177 62.6888 12.9332 63.3658 13.3193 63.734L15.3823 65.765C15.7563 66.1333 16.444 66.062 16.9145 65.5988L28.581 54.1133C29.4738 53.2343 28.8464 51.7378 27.5796 51.7378V51.7021Z" fill="#F2F5FF"/>
<path d="M0.96517 49.3029L24.1654 49.2672H27.5796C28.8464 49.2672 29.4738 47.7588 28.581 46.8918L16.9145 35.4063C16.444 34.943 15.7563 34.8599 15.3823 35.24L13.3193 37.271C12.9453 37.6392 13.0177 38.3162 13.4882 38.7795L19.3275 44.5281L0.96517 44.5638C0.434328 44.5638 0 44.9914 0 45.514V48.3883C0 48.9109 0.434328 49.3385 0.96517 49.3385V49.3029Z" fill="#F2F5FF"/>
</g>
<g clip-path="url(#clip12_2480_206088)">
<path d="M53.4204 49.2979H56.8346L80.0348 49.3335C80.5657 49.3335 81 48.9059 81 48.3833V45.509C81 44.9863 80.5657 44.5588 80.0348 44.5588L61.6725 44.5231L67.5118 38.7744C67.9823 38.3112 68.0668 37.6342 67.6807 37.266L65.6177 35.235C65.2437 34.8667 64.556 34.938 64.0855 35.4012L52.419 46.8867C51.5262 47.7657 52.1536 49.2622 53.4204 49.2622V49.2979Z" fill="#F2F5FF"/>
<path d="M80.0348 51.6971L56.8346 51.7328H53.4204C52.1536 51.7328 51.5262 53.2412 52.419 54.1082L64.0855 65.5937C64.556 66.057 65.2437 66.1401 65.6177 65.76L67.6807 63.729C68.0547 63.3608 67.9823 62.6838 67.5118 62.2205L61.6725 56.4719L80.0348 56.4362C80.5657 56.4362 81 56.0086 81 55.486V52.6117C81 52.0891 80.5657 51.6615 80.0348 51.6615V51.6971Z" fill="#F2F5FF"/>
</g>
<g clip-path="url(#clip13_2480_206088)">
<path d="M41.7021 63.4204V66.8346L41.6665 90.0348C41.6665 90.5657 42.0941 91 42.6167 91H45.491C46.0137 91 46.4412 90.5657 46.4412 90.0348L46.4769 71.6725L52.2256 77.5118C52.6888 77.9823 53.3658 78.0668 53.734 77.6807L55.765 75.6177C56.1333 75.2437 56.062 74.556 55.5988 74.0855L44.1133 62.419C43.2343 61.5262 41.7378 62.1536 41.7378 63.4204H41.7021Z" fill="#F2F5FF"/>
<path d="M39.3029 90.0348L39.2672 66.8346V63.4204C39.2672 62.1536 37.7588 61.5262 36.8918 62.419L25.4063 74.0855C24.943 74.556 24.8599 75.2437 25.24 75.6177L27.271 77.6807C27.6392 78.0547 28.3162 77.9823 28.7795 77.5118L34.5281 71.6725L34.5638 90.0348C34.5638 90.5657 34.9914 91 35.514 91H38.3883C38.9109 91 39.3385 90.5657 39.3385 90.0348H39.3029Z" fill="#F2F5FF"/>
</g>
<g clip-path="url(#clip14_2480_206088)">
<path d="M39.2979 37.5796V34.1654L39.3335 10.9652C39.3335 10.4343 38.9059 10 38.3833 10H35.509C34.9863 10 34.5588 10.4343 34.5588 10.9652L34.5231 29.3275L28.7744 23.4882C28.3112 23.0177 27.6342 22.9332 27.266 23.3193L25.235 25.3823C24.8667 25.7563 24.938 26.444 25.4012 26.9145L36.8867 38.581C37.7657 39.4738 39.2622 38.8464 39.2622 37.5796H39.2979Z" fill="#F2F5FF"/>
<path d="M41.6971 10.9652L41.7328 34.1654V37.5796C41.7328 38.8464 43.2412 39.4738 44.1082 38.581L55.5937 26.9145C56.057 26.444 56.1401 25.7563 55.76 25.3823L53.729 23.3193C53.3608 22.9453 52.6838 23.0177 52.2205 23.4882L46.4719 29.3275L46.4362 10.9652C46.4362 10.4343 46.0086 10 45.486 10H42.6117C42.0891 10 41.6615 10.4343 41.6615 10.9652H41.6971Z" fill="#F2F5FF"/>
</g>
<g clip-path="url(#clip15_2480_206088)">
<path d="M77.5796 202.702H74.1654L50.9652 202.667C50.4343 202.667 50 203.094 50 203.617V206.491C50 207.014 50.4343 207.441 50.9652 207.441L69.3275 207.477L63.4882 213.226C63.0177 213.689 62.9332 214.366 63.3193 214.734L65.3823 216.765C65.7563 217.133 66.444 217.062 66.9145 216.599L78.581 205.113C79.4738 204.234 78.8464 202.738 77.5796 202.738V202.702Z" fill="#F2F5FF"/>
<path d="M50.9652 200.303L74.1654 200.267H77.5796C78.8464 200.267 79.4738 198.759 78.581 197.892L66.9145 186.406C66.444 185.943 65.7563 185.86 65.3823 186.24L63.3193 188.271C62.9453 188.639 63.0177 189.316 63.4882 189.779L69.3275 195.528L50.9652 195.564C50.4343 195.564 50 195.991 50 196.514V199.388C50 199.911 50.4343 200.339 50.9652 200.339V200.303Z" fill="#F2F5FF"/>
</g>
<g clip-path="url(#clip16_2480_206088)">
<path d="M103.42 200.298H106.835L130.035 200.333C130.566 200.333 131 199.906 131 199.383V196.509C131 195.986 130.566 195.559 130.035 195.559L111.673 195.523L117.512 189.774C117.982 189.311 118.067 188.634 117.681 188.266L115.618 186.235C115.244 185.867 114.556 185.938 114.085 186.401L102.419 197.887C101.526 198.766 102.154 200.262 103.42 200.262V200.298Z" fill="#F2F5FF"/>
<path d="M130.035 202.697L106.835 202.733H103.42C102.154 202.733 101.526 204.241 102.419 205.108L114.085 216.594C114.556 217.057 115.244 217.14 115.618 216.76L117.681 214.729C118.055 214.361 117.982 213.684 117.512 213.221L111.673 207.472L130.035 207.436C130.566 207.436 131 207.009 131 206.486V203.612C131 203.089 130.566 202.661 130.035 202.661V202.697Z" fill="#F2F5FF"/>
</g>
<g clip-path="url(#clip17_2480_206088)">
<path d="M91.7021 214.42V217.835L91.6665 241.035C91.6665 241.566 92.0941 242 92.6167 242H95.491C96.0137 242 96.4412 241.566 96.4412 241.035L96.4769 222.673L102.226 228.512C102.689 228.982 103.366 229.067 103.734 228.681L105.765 226.618C106.133 226.244 106.062 225.556 105.599 225.085L94.1133 213.419C93.2343 212.526 91.7378 213.154 91.7378 214.42H91.7021Z" fill="#F2F5FF"/>
<path d="M89.3029 241.035L89.2672 217.835V214.42C89.2672 213.154 87.7588 212.526 86.8918 213.419L75.4063 225.085C74.943 225.556 74.8599 226.244 75.24 226.618L77.271 228.681C77.6392 229.055 78.3162 228.982 78.7795 228.512L84.5281 222.673L84.5638 241.035C84.5638 241.566 84.9914 242 85.514 242H88.3883C88.9109 242 89.3385 241.566 89.3385 241.035H89.3029Z" fill="#F2F5FF"/>
</g>
<g clip-path="url(#clip18_2480_206088)">
<path d="M89.2979 188.58V185.165L89.3335 161.965C89.3335 161.434 88.9059 161 88.3833 161H85.509C84.9863 161 84.5588 161.434 84.5588 161.965L84.5231 180.327L78.7744 174.488C78.3112 174.018 77.6342 173.933 77.266 174.319L75.235 176.382C74.8667 176.756 74.938 177.444 75.4012 177.915L86.8867 189.581C87.7657 190.474 89.2622 189.846 89.2622 188.58H89.2979Z" fill="#F2F5FF"/>
<path d="M91.6971 161.965L91.7328 185.165V188.58C91.7328 189.846 93.2412 190.474 94.1082 189.581L105.594 177.915C106.057 177.444 106.14 176.756 105.76 176.382L103.729 174.319C103.361 173.945 102.684 174.018 102.221 174.488L96.4719 180.327L96.4362 161.965C96.4362 161.434 96.0086 161 95.486 161H92.6117C92.0891 161 91.6615 161.434 91.6615 161.965H91.6971Z" fill="#F2F5FF"/>
</g>
<g clip-path="url(#clip19_2480_206088)">
<path d="M77.5796 101.702H74.1654L50.9652 101.667C50.4343 101.667 50 102.094 50 102.617V105.491C50 106.014 50.4343 106.441 50.9652 106.441L69.3275 106.477L63.4882 112.226C63.0177 112.689 62.9332 113.366 63.3193 113.734L65.3823 115.765C65.7563 116.133 66.444 116.062 66.9145 115.599L78.581 104.113C79.4738 103.234 78.8464 101.738 77.5796 101.738V101.702Z" fill="#F2F5FF"/>
<path d="M50.9652 99.3029L74.1654 99.2672H77.5796C78.8464 99.2672 79.4738 97.7588 78.581 96.8918L66.9145 85.4063C66.444 84.943 65.7563 84.8599 65.3823 85.24L63.3193 87.271C62.9453 87.6392 63.0177 88.3162 63.4882 88.7795L69.3275 94.5281L50.9652 94.5638C50.4343 94.5638 50 94.9914 50 95.514V98.3883C50 98.9109 50.4343 99.3385 50.9652 99.3385V99.3029Z" fill="#F2F5FF"/>
</g>
<g clip-path="url(#clip20_2480_206088)">
<path d="M103.42 99.2979H106.835L130.035 99.3335C130.566 99.3335 131 98.9059 131 98.3833V95.509C131 94.9863 130.566 94.5588 130.035 94.5588L111.673 94.5231L117.512 88.7744C117.982 88.3112 118.067 87.6342 117.681 87.266L115.618 85.235C115.244 84.8667 114.556 84.938 114.085 85.4012L102.419 96.8867C101.526 97.7657 102.154 99.2622 103.42 99.2622V99.2979Z" fill="#F2F5FF"/>
<path d="M130.035 101.697L106.835 101.733H103.42C102.154 101.733 101.526 103.241 102.419 104.108L114.085 115.594C114.556 116.057 115.244 116.14 115.618 115.76L117.681 113.729C118.055 113.361 117.982 112.684 117.512 112.221L111.673 106.472L130.035 106.436C130.566 106.436 131 106.009 131 105.486V102.612C131 102.089 130.566 101.661 130.035 101.661V101.697Z" fill="#F2F5FF"/>
</g>
<g clip-path="url(#clip21_2480_206088)">
<path d="M91.7021 113.42V116.835L91.6665 140.035C91.6665 140.566 92.0941 141 92.6167 141H95.491C96.0137 141 96.4412 140.566 96.4412 140.035L96.4769 121.673L102.226 127.512C102.689 127.982 103.366 128.067 103.734 127.681L105.765 125.618C106.133 125.244 106.062 124.556 105.599 124.085L94.1133 112.419C93.2343 111.526 91.7378 112.154 91.7378 113.42H91.7021Z" fill="#F2F5FF"/>
<path d="M89.3029 140.035L89.2672 116.835V113.42C89.2672 112.154 87.7588 111.526 86.8918 112.419L75.4063 124.085C74.943 124.556 74.8599 125.244 75.24 125.618L77.271 127.681C77.6392 128.055 78.3162 127.982 78.7795 127.512L84.5281 121.673L84.5638 140.035C84.5638 140.566 84.9914 141 85.514 141H88.3883C88.9109 141 89.3385 140.566 89.3385 140.035H89.3029Z" fill="#F2F5FF"/>
</g>
<g clip-path="url(#clip22_2480_206088)">
<path d="M89.2979 87.5796V84.1654L89.3335 60.9652C89.3335 60.4343 88.9059 60 88.3833 60H85.509C84.9863 60 84.5588 60.4343 84.5588 60.9652L84.5231 79.3275L78.7744 73.4882C78.3112 73.0177 77.6342 72.9332 77.266 73.3193L75.235 75.3823C74.8667 75.7563 74.938 76.444 75.4012 76.9145L86.8867 88.581C87.7657 89.4738 89.2622 88.8464 89.2622 87.5796H89.2979Z" fill="#F2F5FF"/>
<path d="M91.6971 60.9652L91.7328 84.1654V87.5796C91.7328 88.8464 93.2412 89.4738 94.1082 88.581L105.594 76.9145C106.057 76.444 106.14 75.7563 105.76 75.3823L103.729 73.3193C103.361 72.9453 102.684 73.0177 102.221 73.4882L96.4719 79.3275L96.4362 60.9652C96.4362 60.4343 96.0086 60 95.486 60H92.6117C92.0891 60 91.6615 60.4343 91.6615 60.9652H91.6971Z" fill="#F2F5FF"/>
</g>
<g clip-path="url(#clip23_2480_206088)">
<path d="M128.58 152.702H125.165L101.965 152.667C101.434 152.667 101 153.094 101 153.617V156.491C101 157.014 101.434 157.441 101.965 157.441L120.327 157.477L114.488 163.226C114.018 163.689 113.933 164.366 114.319 164.734L116.382 166.765C116.756 167.133 117.444 167.062 117.915 166.599L129.581 155.113C130.474 154.234 129.846 152.738 128.58 152.738V152.702Z" fill="#F2F5FF"/>
<path d="M101.965 150.303L125.165 150.267H128.58C129.846 150.267 130.474 148.759 129.581 147.892L117.915 136.406C117.444 135.943 116.756 135.86 116.382 136.24L114.319 138.271C113.945 138.639 114.018 139.316 114.488 139.779L120.327 145.528L101.965 145.564C101.434 145.564 101 145.991 101 146.514V149.388C101 149.911 101.434 150.339 101.965 150.339V150.303Z" fill="#F2F5FF"/>
</g>
<g clip-path="url(#clip24_2480_206088)">
<path d="M154.42 150.298H157.835L181.035 150.333C181.566 150.333 182 149.906 182 149.383V146.509C182 145.986 181.566 145.559 181.035 145.559L162.673 145.523L168.512 139.774C168.982 139.311 169.067 138.634 168.681 138.266L166.618 136.235C166.244 135.867 165.556 135.938 165.085 136.401L153.419 147.887C152.526 148.766 153.154 150.262 154.42 150.262V150.298Z" fill="#F2F5FF"/>
<path d="M181.035 152.697L157.835 152.733H154.42C153.154 152.733 152.526 154.241 153.419 155.108L165.085 166.594C165.556 167.057 166.244 167.14 166.618 166.76L168.681 164.729C169.055 164.361 168.982 163.684 168.512 163.221L162.673 157.472L181.035 157.436C181.566 157.436 182 157.009 182 156.486V153.612C182 153.089 181.566 152.661 181.035 152.661V152.697Z" fill="#F2F5FF"/>
</g>
<g clip-path="url(#clip25_2480_206088)">
<path d="M142.702 164.42V167.835L142.667 191.035C142.667 191.566 143.094 192 143.617 192H146.491C147.014 192 147.441 191.566 147.441 191.035L147.477 172.673L153.226 178.512C153.689 178.982 154.366 179.067 154.734 178.681L156.765 176.618C157.133 176.244 157.062 175.556 156.599 175.085L145.113 163.419C144.234 162.526 142.738 163.154 142.738 164.42H142.702Z" fill="#F2F5FF"/>
<path d="M140.303 191.035L140.267 167.835V164.42C140.267 163.154 138.759 162.526 137.892 163.419L126.406 175.085C125.943 175.556 125.86 176.244 126.24 176.618L128.271 178.681C128.639 179.055 129.316 178.982 129.779 178.512L135.528 172.673L135.564 191.035C135.564 191.566 135.991 192 136.514 192H139.388C139.911 192 140.339 191.566 140.339 191.035H140.303Z" fill="#F2F5FF"/>
</g>
<g clip-path="url(#clip26_2480_206088)">
<path d="M140.298 138.58V135.165L140.333 111.965C140.333 111.434 139.906 111 139.383 111H136.509C135.986 111 135.559 111.434 135.559 111.965L135.523 130.327L129.774 124.488C129.311 124.018 128.634 123.933 128.266 124.319L126.235 126.382C125.867 126.756 125.938 127.444 126.401 127.915L137.887 139.581C138.766 140.474 140.262 139.846 140.262 138.58H140.298Z" fill="#F2F5FF"/>
<path d="M142.697 111.965L142.733 135.165V138.58C142.733 139.846 144.241 140.474 145.108 139.581L156.594 127.915C157.057 127.444 157.14 126.756 156.76 126.382L154.729 124.319C154.361 123.945 153.684 124.018 153.221 124.488L147.472 130.327L147.436 111.965C147.436 111.434 147.009 111 146.486 111H143.612C143.089 111 142.661 111.434 142.661 111.965H142.697Z" fill="#F2F5FF"/>
</g>
<g clip-path="url(#clip27_2480_206088)">
<path d="M27.5796 152.702H24.1654L0.96517 152.667C0.434328 152.667 0 153.094 0 153.617V156.491C0 157.014 0.434328 157.441 0.96517 157.441L19.3275 157.477L13.4882 163.226C13.0177 163.689 12.9332 164.366 13.3193 164.734L15.3823 166.765C15.7563 167.133 16.444 167.062 16.9145 166.599L28.581 155.113C29.4738 154.234 28.8464 152.738 27.5796 152.738V152.702Z" fill="#F2F5FF"/>
<path d="M0.96517 150.303L24.1654 150.267H27.5796C28.8464 150.267 29.4738 148.759 28.581 147.892L16.9145 136.406C16.444 135.943 15.7563 135.86 15.3823 136.24L13.3193 138.271C12.9453 138.639 13.0177 139.316 13.4882 139.779L19.3275 145.528L0.96517 145.564C0.434328 145.564 0 145.991 0 146.514V149.388C0 149.911 0.434328 150.339 0.96517 150.339V150.303Z" fill="#F2F5FF"/>
</g>
<g clip-path="url(#clip28_2480_206088)">
<path d="M53.4204 150.298H56.8346L80.0348 150.333C80.5657 150.333 81 149.906 81 149.383V146.509C81 145.986 80.5657 145.559 80.0348 145.559L61.6725 145.523L67.5118 139.774C67.9823 139.311 68.0668 138.634 67.6807 138.266L65.6177 136.235C65.2437 135.867 64.556 135.938 64.0855 136.401L52.419 147.887C51.5262 148.766 52.1536 150.262 53.4204 150.262V150.298Z" fill="#F2F5FF"/>
<path d="M80.0348 152.697L56.8346 152.733H53.4204C52.1536 152.733 51.5262 154.241 52.419 155.108L64.0855 166.594C64.556 167.057 65.2437 167.14 65.6177 166.76L67.6807 164.729C68.0547 164.361 67.9823 163.684 67.5118 163.221L61.6725 157.472L80.0348 157.436C80.5657 157.436 81 157.009 81 156.486V153.612C81 153.089 80.5657 152.661 80.0348 152.661V152.697Z" fill="#F2F5FF"/>
</g>
<g clip-path="url(#clip29_2480_206088)">
<path d="M41.7021 164.42V167.835L41.6665 191.035C41.6665 191.566 42.0941 192 42.6167 192H45.491C46.0137 192 46.4412 191.566 46.4412 191.035L46.4769 172.673L52.2256 178.512C52.6888 178.982 53.3658 179.067 53.734 178.681L55.765 176.618C56.1333 176.244 56.062 175.556 55.5988 175.085L44.1133 163.419C43.2343 162.526 41.7378 163.154 41.7378 164.42H41.7021Z" fill="#F2F5FF"/>
<path d="M39.3029 191.035L39.2672 167.835V164.42C39.2672 163.154 37.7588 162.526 36.8918 163.419L25.4063 175.085C24.943 175.556 24.8599 176.244 25.24 176.618L27.271 178.681C27.6392 179.055 28.3162 178.982 28.7795 178.512L34.5281 172.673L34.5638 191.035C34.5638 191.566 34.9914 192 35.514 192H38.3883C38.9109 192 39.3385 191.566 39.3385 191.035H39.3029Z" fill="#F2F5FF"/>
</g>
<g clip-path="url(#clip30_2480_206088)">
<path d="M39.2979 138.58V135.165L39.3335 111.965C39.3335 111.434 38.9059 111 38.3833 111H35.509C34.9863 111 34.5588 111.434 34.5588 111.965L34.5231 130.327L28.7744 124.488C28.3112 124.018 27.6342 123.933 27.266 124.319L25.235 126.382C24.8667 126.756 24.938 127.444 25.4012 127.915L36.8867 139.581C37.7657 140.474 39.2622 139.846 39.2622 138.58H39.2979Z" fill="#F2F5FF"/>
<path d="M41.6971 111.965L41.7328 135.165V138.58C41.7328 139.846 43.2412 140.474 44.1082 139.581L55.5937 127.915C56.057 127.444 56.1401 126.756 55.76 126.382L53.729 124.319C53.3608 123.945 52.6838 124.018 52.2205 124.488L46.4719 130.327L46.4362 111.965C46.4362 111.434 46.0086 111 45.486 111H42.6117C42.0891 111 41.6615 111.434 41.6615 111.965H41.6971Z" fill="#F2F5FF"/>
</g>
<g clip-path="url(#clip31_2480_206088)">
<path d="M77.5796 303.702H74.1654L50.9652 303.667C50.4343 303.667 50 304.094 50 304.617V307.491C50 308.014 50.4343 308.441 50.9652 308.441L69.3275 308.477L63.4882 314.226C63.0177 314.689 62.9332 315.366 63.3193 315.734L65.3823 317.765C65.7563 318.133 66.444 318.062 66.9145 317.599L78.581 306.113C79.4738 305.234 78.8464 303.738 77.5796 303.738V303.702Z" fill="#F2F5FF"/>
<path d="M50.9652 301.303L74.1654 301.267H77.5796C78.8464 301.267 79.4738 299.759 78.581 298.892L66.9145 287.406C66.444 286.943 65.7563 286.86 65.3823 287.24L63.3193 289.271C62.9453 289.639 63.0177 290.316 63.4882 290.779L69.3275 296.528L50.9652 296.564C50.4343 296.564 50 296.991 50 297.514V300.388C50 300.911 50.4343 301.339 50.9652 301.339V301.303Z" fill="#F2F5FF"/>
</g>
<g clip-path="url(#clip32_2480_206088)">
<path d="M103.42 301.298H106.835L130.035 301.333C130.566 301.333 131 300.906 131 300.383V297.509C131 296.986 130.566 296.559 130.035 296.559L111.673 296.523L117.512 290.774C117.982 290.311 118.067 289.634 117.681 289.266L115.618 287.235C115.244 286.867 114.556 286.938 114.085 287.401L102.419 298.887C101.526 299.766 102.154 301.262 103.42 301.262V301.298Z" fill="#F2F5FF"/>
<path d="M130.035 303.697L106.835 303.733H103.42C102.154 303.733 101.526 305.241 102.419 306.108L114.085 317.594C114.556 318.057 115.244 318.14 115.618 317.76L117.681 315.729C118.055 315.361 117.982 314.684 117.512 314.221L111.673 308.472L130.035 308.436C130.566 308.436 131 308.009 131 307.486V304.612C131 304.089 130.566 303.661 130.035 303.661V303.697Z" fill="#F2F5FF"/>
</g>
<g clip-path="url(#clip33_2480_206088)">
<path d="M91.7021 315.42V318.835L91.6665 342.035C91.6665 342.566 92.0941 343 92.6167 343H95.491C96.0137 343 96.4412 342.566 96.4412 342.035L96.4769 323.673L102.226 329.512C102.689 329.982 103.366 330.067 103.734 329.681L105.765 327.618C106.133 327.244 106.062 326.556 105.599 326.085L94.1133 314.419C93.2343 313.526 91.7378 314.154 91.7378 315.42H91.7021Z" fill="#F2F5FF"/>
<path d="M89.3029 342.035L89.2672 318.835V315.42C89.2672 314.154 87.7588 313.526 86.8918 314.419L75.4063 326.085C74.943 326.556 74.8599 327.244 75.24 327.618L77.271 329.681C77.6392 330.055 78.3162 329.982 78.7795 329.512L84.5281 323.673L84.5638 342.035C84.5638 342.566 84.9914 343 85.514 343H88.3883C88.9109 343 89.3385 342.566 89.3385 342.035H89.3029Z" fill="#F2F5FF"/>
</g>
<g clip-path="url(#clip34_2480_206088)">
<path d="M89.2979 289.58V286.165L89.3335 262.965C89.3335 262.434 88.9059 262 88.3833 262H85.509C84.9863 262 84.5588 262.434 84.5588 262.965L84.5231 281.327L78.7744 275.488C78.3112 275.018 77.6342 274.933 77.266 275.319L75.235 277.382C74.8667 277.756 74.938 278.444 75.4012 278.915L86.8867 290.581C87.7657 291.474 89.2622 290.846 89.2622 289.58H89.2979Z" fill="#F2F5FF"/>
<path d="M91.6971 262.965L91.7328 286.165V289.58C91.7328 290.846 93.2412 291.474 94.1082 290.581L105.594 278.915C106.057 278.444 106.14 277.756 105.76 277.382L103.729 275.319C103.361 274.945 102.684 275.018 102.221 275.488L96.4719 281.327L96.4362 262.965C96.4362 262.434 96.0086 262 95.486 262H92.6117C92.0891 262 91.6615 262.434 91.6615 262.965H91.6971Z" fill="#F2F5FF"/>
</g>
<g clip-path="url(#clip35_2480_206088)">
<path d="M77.5796 202.702H74.1654L50.9652 202.667C50.4343 202.667 50 203.094 50 203.617V206.491C50 207.014 50.4343 207.441 50.9652 207.441L69.3275 207.477L63.4882 213.226C63.0177 213.689 62.9332 214.366 63.3193 214.734L65.3823 216.765C65.7563 217.133 66.444 217.062 66.9145 216.599L78.581 205.113C79.4738 204.234 78.8464 202.738 77.5796 202.738V202.702Z" fill="#F2F5FF"/>
<path d="M50.9652 200.303L74.1654 200.267H77.5796C78.8464 200.267 79.4738 198.759 78.581 197.892L66.9145 186.406C66.444 185.943 65.7563 185.86 65.3823 186.24L63.3193 188.271C62.9453 188.639 63.0177 189.316 63.4882 189.779L69.3275 195.528L50.9652 195.564C50.4343 195.564 50 195.991 50 196.514V199.388C50 199.911 50.4343 200.339 50.9652 200.339V200.303Z" fill="#F2F5FF"/>
</g>
<g clip-path="url(#clip36_2480_206088)">
<path d="M103.42 200.298H106.835L130.035 200.333C130.566 200.333 131 199.906 131 199.383V196.509C131 195.986 130.566 195.559 130.035 195.559L111.673 195.523L117.512 189.774C117.982 189.311 118.067 188.634 117.681 188.266L115.618 186.235C115.244 185.867 114.556 185.938 114.085 186.401L102.419 197.887C101.526 198.766 102.154 200.262 103.42 200.262V200.298Z" fill="#F2F5FF"/>
<path d="M130.035 202.697L106.835 202.733H103.42C102.154 202.733 101.526 204.241 102.419 205.108L114.085 216.594C114.556 217.057 115.244 217.14 115.618 216.76L117.681 214.729C118.055 214.361 117.982 213.684 117.512 213.221L111.673 207.472L130.035 207.436C130.566 207.436 131 207.009 131 206.486V203.612C131 203.089 130.566 202.661 130.035 202.661V202.697Z" fill="#F2F5FF"/>
</g>
<g clip-path="url(#clip37_2480_206088)">
<path d="M91.7021 214.42V217.835L91.6665 241.035C91.6665 241.566 92.0941 242 92.6167 242H95.491C96.0137 242 96.4412 241.566 96.4412 241.035L96.4769 222.673L102.226 228.512C102.689 228.982 103.366 229.067 103.734 228.681L105.765 226.618C106.133 226.244 106.062 225.556 105.599 225.085L94.1133 213.419C93.2343 212.526 91.7378 213.154 91.7378 214.42H91.7021Z" fill="#F2F5FF"/>
<path d="M89.3029 241.035L89.2672 217.835V214.42C89.2672 213.154 87.7588 212.526 86.8918 213.419L75.4063 225.085C74.943 225.556 74.8599 226.244 75.24 226.618L77.271 228.681C77.6392 229.055 78.3162 228.982 78.7795 228.512L84.5281 222.673L84.5638 241.035C84.5638 241.566 84.9914 242 85.514 242H88.3883C88.9109 242 89.3385 241.566 89.3385 241.035H89.3029Z" fill="#F2F5FF"/>
</g>
<g clip-path="url(#clip38_2480_206088)">
<path d="M89.2979 188.58V185.165L89.3335 161.965C89.3335 161.434 88.9059 161 88.3833 161H85.509C84.9863 161 84.5588 161.434 84.5588 161.965L84.5231 180.327L78.7744 174.488C78.3112 174.018 77.6342 173.933 77.266 174.319L75.235 176.382C74.8667 176.756 74.938 177.444 75.4012 177.915L86.8867 189.581C87.7657 190.474 89.2622 189.846 89.2622 188.58H89.2979Z" fill="#F2F5FF"/>
<path d="M91.6971 161.965L91.7328 185.165V188.58C91.7328 189.846 93.2412 190.474 94.1082 189.581L105.594 177.915C106.057 177.444 106.14 176.756 105.76 176.382L103.729 174.319C103.361 173.945 102.684 174.018 102.221 174.488L96.4719 180.327L96.4362 161.965C96.4362 161.434 96.0086 161 95.486 161H92.6117C92.0891 161 91.6615 161.434 91.6615 161.965H91.6971Z" fill="#F2F5FF"/>
</g>
<g clip-path="url(#clip39_2480_206088)">
<path d="M128.58 253.702H125.165L101.965 253.667C101.434 253.667 101 254.094 101 254.617V257.491C101 258.014 101.434 258.441 101.965 258.441L120.327 258.477L114.488 264.226C114.018 264.689 113.933 265.366 114.319 265.734L116.382 267.765C116.756 268.133 117.444 268.062 117.915 267.599L129.581 256.113C130.474 255.234 129.846 253.738 128.58 253.738V253.702Z" fill="#F2F5FF"/>
<path d="M101.965 251.303L125.165 251.267H128.58C129.846 251.267 130.474 249.759 129.581 248.892L117.915 237.406C117.444 236.943 116.756 236.86 116.382 237.24L114.319 239.271C113.945 239.639 114.018 240.316 114.488 240.779L120.327 246.528L101.965 246.564C101.434 246.564 101 246.991 101 247.514V250.388C101 250.911 101.434 251.339 101.965 251.339V251.303Z" fill="#F2F5FF"/>
</g>
<g clip-path="url(#clip40_2480_206088)">
<path d="M154.42 251.298H157.835L181.035 251.333C181.566 251.333 182 250.906 182 250.383V247.509C182 246.986 181.566 246.559 181.035 246.559L162.673 246.523L168.512 240.774C168.982 240.311 169.067 239.634 168.681 239.266L166.618 237.235C166.244 236.867 165.556 236.938 165.085 237.401L153.419 248.887C152.526 249.766 153.154 251.262 154.42 251.262V251.298Z" fill="#F2F5FF"/>
<path d="M181.035 253.697L157.835 253.733H154.42C153.154 253.733 152.526 255.241 153.419 256.108L165.085 267.594C165.556 268.057 166.244 268.14 166.618 267.76L168.681 265.729C169.055 265.361 168.982 264.684 168.512 264.221L162.673 258.472L181.035 258.436C181.566 258.436 182 258.009 182 257.486V254.612C182 254.089 181.566 253.661 181.035 253.661V253.697Z" fill="#F2F5FF"/>
</g>
<g clip-path="url(#clip41_2480_206088)">
<path d="M142.702 265.42V268.835L142.667 292.035C142.667 292.566 143.094 293 143.617 293H146.491C147.014 293 147.441 292.566 147.441 292.035L147.477 273.673L153.226 279.512C153.689 279.982 154.366 280.067 154.734 279.681L156.765 277.618C157.133 277.244 157.062 276.556 156.599 276.085L145.113 264.419C144.234 263.526 142.738 264.154 142.738 265.42H142.702Z" fill="#F2F5FF"/>
<path d="M140.303 292.035L140.267 268.835V265.42C140.267 264.154 138.759 263.526 137.892 264.419L126.406 276.085C125.943 276.556 125.86 277.244 126.24 277.618L128.271 279.681C128.639 280.055 129.316 279.982 129.779 279.512L135.528 273.673L135.564 292.035C135.564 292.566 135.991 293 136.514 293H139.388C139.911 293 140.339 292.566 140.339 292.035H140.303Z" fill="#F2F5FF"/>
</g>
<g clip-path="url(#clip42_2480_206088)">
<path d="M140.298 239.58V236.165L140.333 212.965C140.333 212.434 139.906 212 139.383 212H136.509C135.986 212 135.559 212.434 135.559 212.965L135.523 231.327L129.774 225.488C129.311 225.018 128.634 224.933 128.266 225.319L126.235 227.382C125.867 227.756 125.938 228.444 126.401 228.915L137.887 240.581C138.766 241.474 140.262 240.846 140.262 239.58H140.298Z" fill="#F2F5FF"/>
<path d="M142.697 212.965L142.733 236.165V239.58C142.733 240.846 144.241 241.474 145.108 240.581L156.594 228.915C157.057 228.444 157.14 227.756 156.76 227.382L154.729 225.319C154.361 224.945 153.684 225.018 153.221 225.488L147.472 231.327L147.436 212.965C147.436 212.434 147.009 212 146.486 212H143.612C143.089 212 142.661 212.434 142.661 212.965H142.697Z" fill="#F2F5FF"/>
</g>
<g clip-path="url(#clip43_2480_206088)">
<path d="M27.5796 253.702H24.1654L0.96517 253.667C0.434328 253.667 0 254.094 0 254.617V257.491C0 258.014 0.434328 258.441 0.96517 258.441L19.3275 258.477L13.4882 264.226C13.0177 264.689 12.9332 265.366 13.3193 265.734L15.3823 267.765C15.7563 268.133 16.444 268.062 16.9145 267.599L28.581 256.113C29.4738 255.234 28.8464 253.738 27.5796 253.738V253.702Z" fill="#F2F5FF"/>
<path d="M0.96517 251.303L24.1654 251.267H27.5796C28.8464 251.267 29.4738 249.759 28.581 248.892L16.9145 237.406C16.444 236.943 15.7563 236.86 15.3823 237.24L13.3193 239.271C12.9453 239.639 13.0177 240.316 13.4882 240.779L19.3275 246.528L0.96517 246.564C0.434328 246.564 0 246.991 0 247.514V250.388C0 250.911 0.434328 251.339 0.96517 251.339V251.303Z" fill="#F2F5FF"/>
</g>
<g clip-path="url(#clip44_2480_206088)">
<path d="M53.4204 251.298H56.8346L80.0348 251.333C80.5657 251.333 81 250.906 81 250.383V247.509C81 246.986 80.5657 246.559 80.0348 246.559L61.6725 246.523L67.5118 240.774C67.9823 240.311 68.0668 239.634 67.6807 239.266L65.6177 237.235C65.2437 236.867 64.556 236.938 64.0855 237.401L52.419 248.887C51.5262 249.766 52.1536 251.262 53.4204 251.262V251.298Z" fill="#F2F5FF"/>
<path d="M80.0348 253.697L56.8346 253.733H53.4204C52.1536 253.733 51.5262 255.241 52.419 256.108L64.0855 267.594C64.556 268.057 65.2437 268.14 65.6177 267.76L67.6807 265.729C68.0547 265.361 67.9823 264.684 67.5118 264.221L61.6725 258.472L80.0348 258.436C80.5657 258.436 81 258.009 81 257.486V254.612C81 254.089 80.5657 253.661 80.0348 253.661V253.697Z" fill="#F2F5FF"/>
</g>
<g clip-path="url(#clip45_2480_206088)">
<path d="M41.7021 265.42V268.835L41.6665 292.035C41.6665 292.566 42.0941 293 42.6167 293H45.491C46.0137 293 46.4412 292.566 46.4412 292.035L46.4769 273.673L52.2256 279.512C52.6888 279.982 53.3658 280.067 53.734 279.681L55.765 277.618C56.1333 277.244 56.062 276.556 55.5988 276.085L44.1133 264.419C43.2343 263.526 41.7378 264.154 41.7378 265.42H41.7021Z" fill="#F2F5FF"/>
<path d="M39.3029 292.035L39.2672 268.835V265.42C39.2672 264.154 37.7588 263.526 36.8918 264.419L25.4063 276.085C24.943 276.556 24.8599 277.244 25.24 277.618L27.271 279.681C27.6392 280.055 28.3162 279.982 28.7795 279.512L34.5281 273.673L34.5638 292.035C34.5638 292.566 34.9914 293 35.514 293H38.3883C38.9109 293 39.3385 292.566 39.3385 292.035H39.3029Z" fill="#F2F5FF"/>
</g>
<g clip-path="url(#clip46_2480_206088)">
<path d="M39.2979 239.58V236.165L39.3335 212.965C39.3335 212.434 38.9059 212 38.3833 212H35.509C34.9863 212 34.5588 212.434 34.5588 212.965L34.5231 231.327L28.7744 225.488C28.3112 225.018 27.6342 224.933 27.266 225.319L25.235 227.382C24.8667 227.756 24.938 228.444 25.4012 228.915L36.8867 240.581C37.7657 241.474 39.2622 240.846 39.2622 239.58H39.2979Z" fill="#F2F5FF"/>
<path d="M41.6971 212.965L41.7328 236.165V239.58C41.7328 240.846 43.2412 241.474 44.1082 240.581L55.5937 228.915C56.057 228.444 56.1401 227.756 55.76 227.382L53.729 225.319C53.3608 224.945 52.6838 225.018 52.2205 225.488L46.4719 231.327L46.4362 212.965C46.4362 212.434 46.0086 212 45.486 212H42.6117C42.0891 212 41.6615 212.434 41.6615 212.965H41.6971Z" fill="#F2F5FF"/>
</g>
<g clip-path="url(#clip47_2480_206088)">
<path d="M77.5796 404.702H74.1654L50.9652 404.667C50.4343 404.667 50 405.094 50 405.617V408.491C50 409.014 50.4343 409.441 50.9652 409.441L69.3275 409.477L63.4882 415.226C63.0177 415.689 62.9332 416.366 63.3193 416.734L65.3823 418.765C65.7563 419.133 66.444 419.062 66.9145 418.599L78.581 407.113C79.4738 406.234 78.8464 404.738 77.5796 404.738V404.702Z" fill="#F2F5FF"/>
<path d="M50.9652 402.303L74.1654 402.267H77.5796C78.8464 402.267 79.4738 400.759 78.581 399.892L66.9145 388.406C66.444 387.943 65.7563 387.86 65.3823 388.24L63.3193 390.271C62.9453 390.639 63.0177 391.316 63.4882 391.779L69.3275 397.528L50.9652 397.564C50.4343 397.564 50 397.991 50 398.514V401.388C50 401.911 50.4343 402.339 50.9652 402.339V402.303Z" fill="#F2F5FF"/>
</g>
<g clip-path="url(#clip48_2480_206088)">
<path d="M103.42 402.298H106.835L130.035 402.333C130.566 402.333 131 401.906 131 401.383V398.509C131 397.986 130.566 397.559 130.035 397.559L111.673 397.523L117.512 391.774C117.982 391.311 118.067 390.634 117.681 390.266L115.618 388.235C115.244 387.867 114.556 387.938 114.085 388.401L102.419 399.887C101.526 400.766 102.154 402.262 103.42 402.262V402.298Z" fill="#F2F5FF"/>
<path d="M130.035 404.697L106.835 404.733H103.42C102.154 404.733 101.526 406.241 102.419 407.108L114.085 418.594C114.556 419.057 115.244 419.14 115.618 418.76L117.681 416.729C118.055 416.361 117.982 415.684 117.512 415.221L111.673 409.472L130.035 409.436C130.566 409.436 131 409.009 131 408.486V405.612C131 405.089 130.566 404.661 130.035 404.661V404.697Z" fill="#F2F5FF"/>
</g>
<g clip-path="url(#clip49_2480_206088)">
<path d="M91.7021 416.42V419.835L91.6665 443.035C91.6665 443.566 92.0941 444 92.6167 444H95.491C96.0137 444 96.4412 443.566 96.4412 443.035L96.4769 424.673L102.226 430.512C102.689 430.982 103.366 431.067 103.734 430.681L105.765 428.618C106.133 428.244 106.062 427.556 105.599 427.085L94.1133 415.419C93.2343 414.526 91.7378 415.154 91.7378 416.42H91.7021Z" fill="#F2F5FF"/>
<path d="M89.3029 443.035L89.2672 419.835V416.42C89.2672 415.154 87.7588 414.526 86.8918 415.419L75.4063 427.085C74.943 427.556 74.8599 428.244 75.24 428.618L77.271 430.681C77.6392 431.055 78.3162 430.982 78.7795 430.512L84.5281 424.673L84.5638 443.035C84.5638 443.566 84.9914 444 85.514 444H88.3883C88.9109 444 89.3385 443.566 89.3385 443.035H89.3029Z" fill="#F2F5FF"/>
</g>
<g clip-path="url(#clip50_2480_206088)">
<path d="M89.2979 390.58V387.165L89.3335 363.965C89.3335 363.434 88.9059 363 88.3833 363H85.509C84.9863 363 84.5588 363.434 84.5588 363.965L84.5231 382.327L78.7744 376.488C78.3112 376.018 77.6342 375.933 77.266 376.319L75.235 378.382C74.8667 378.756 74.938 379.444 75.4012 379.915L86.8867 391.581C87.7657 392.474 89.2622 391.846 89.2622 390.58H89.2979Z" fill="#F2F5FF"/>
<path d="M91.6971 363.965L91.7328 387.165V390.58C91.7328 391.846 93.2412 392.474 94.1082 391.581L105.594 379.915C106.057 379.444 106.14 378.756 105.76 378.382L103.729 376.319C103.361 375.945 102.684 376.018 102.221 376.488L96.4719 382.327L96.4362 363.965C96.4362 363.434 96.0086 363 95.486 363H92.6117C92.0891 363 91.6615 363.434 91.6615 363.965H91.6971Z" fill="#F2F5FF"/>
</g>
<g clip-path="url(#clip51_2480_206088)">
<path d="M77.5796 303.702H74.1654L50.9652 303.667C50.4343 303.667 50 304.094 50 304.617V307.491C50 308.014 50.4343 308.441 50.9652 308.441L69.3275 308.477L63.4882 314.226C63.0177 314.689 62.9332 315.366 63.3193 315.734L65.3823 317.765C65.7563 318.133 66.444 318.062 66.9145 317.599L78.581 306.113C79.4738 305.234 78.8464 303.738 77.5796 303.738V303.702Z" fill="#F2F5FF"/>
<path d="M50.9652 301.303L74.1654 301.267H77.5796C78.8464 301.267 79.4738 299.759 78.581 298.892L66.9145 287.406C66.444 286.943 65.7563 286.86 65.3823 287.24L63.3193 289.271C62.9453 289.639 63.0177 290.316 63.4882 290.779L69.3275 296.528L50.9652 296.564C50.4343 296.564 50 296.991 50 297.514V300.388C50 300.911 50.4343 301.339 50.9652 301.339V301.303Z" fill="#F2F5FF"/>
</g>
<g clip-path="url(#clip52_2480_206088)">
<path d="M103.42 301.298H106.835L130.035 301.333C130.566 301.333 131 300.906 131 300.383V297.509C131 296.986 130.566 296.559 130.035 296.559L111.673 296.523L117.512 290.774C117.982 290.311 118.067 289.634 117.681 289.266L115.618 287.235C115.244 286.867 114.556 286.938 114.085 287.401L102.419 298.887C101.526 299.766 102.154 301.262 103.42 301.262V301.298Z" fill="#F2F5FF"/>
<path d="M130.035 303.697L106.835 303.733H103.42C102.154 303.733 101.526 305.241 102.419 306.108L114.085 317.594C114.556 318.057 115.244 318.14 115.618 317.76L117.681 315.729C118.055 315.361 117.982 314.684 117.512 314.221L111.673 308.472L130.035 308.436C130.566 308.436 131 308.009 131 307.486V304.612C131 304.089 130.566 303.661 130.035 303.661V303.697Z" fill="#F2F5FF"/>
</g>
<g clip-path="url(#clip53_2480_206088)">
<path d="M91.7021 315.42V318.835L91.6665 342.035C91.6665 342.566 92.0941 343 92.6167 343H95.491C96.0137 343 96.4412 342.566 96.4412 342.035L96.4769 323.673L102.226 329.512C102.689 329.982 103.366 330.067 103.734 329.681L105.765 327.618C106.133 327.244 106.062 326.556 105.599 326.085L94.1133 314.419C93.2343 313.526 91.7378 314.154 91.7378 315.42H91.7021Z" fill="#F2F5FF"/>
<path d="M89.3029 342.035L89.2672 318.835V315.42C89.2672 314.154 87.7588 313.526 86.8918 314.419L75.4063 326.085C74.943 326.556 74.8599 327.244 75.24 327.618L77.271 329.681C77.6392 330.055 78.3162 329.982 78.7795 329.512L84.5281 323.673L84.5638 342.035C84.5638 342.566 84.9914 343 85.514 343H88.3883C88.9109 343 89.3385 342.566 89.3385 342.035H89.3029Z" fill="#F2F5FF"/>
</g>
<g clip-path="url(#clip54_2480_206088)">
<path d="M89.2979 289.58V286.165L89.3335 262.965C89.3335 262.434 88.9059 262 88.3833 262H85.509C84.9863 262 84.5588 262.434 84.5588 262.965L84.5231 281.327L78.7744 275.488C78.3112 275.018 77.6342 274.933 77.266 275.319L75.235 277.382C74.8667 277.756 74.938 278.444 75.4012 278.915L86.8867 290.581C87.7657 291.474 89.2622 290.846 89.2622 289.58H89.2979Z" fill="#F2F5FF"/>
<path d="M91.6971 262.965L91.7328 286.165V289.58C91.7328 290.846 93.2412 291.474 94.1082 290.581L105.594 278.915C106.057 278.444 106.14 277.756 105.76 277.382L103.729 275.319C103.361 274.945 102.684 275.018 102.221 275.488L96.4719 281.327L96.4362 262.965C96.4362 262.434 96.0086 262 95.486 262H92.6117C92.0891 262 91.6615 262.434 91.6615 262.965H91.6971Z" fill="#F2F5FF"/>
</g>
<g clip-path="url(#clip55_2480_206088)">
<path d="M128.58 354.702H125.165L101.965 354.667C101.434 354.667 101 355.094 101 355.617V358.491C101 359.014 101.434 359.441 101.965 359.441L120.327 359.477L114.488 365.226C114.018 365.689 113.933 366.366 114.319 366.734L116.382 368.765C116.756 369.133 117.444 369.062 117.915 368.599L129.581 357.113C130.474 356.234 129.846 354.738 128.58 354.738V354.702Z" fill="#F2F5FF"/>
<path d="M101.965 352.303L125.165 352.267H128.58C129.846 352.267 130.474 350.759 129.581 349.892L117.915 338.406C117.444 337.943 116.756 337.86 116.382 338.24L114.319 340.271C113.945 340.639 114.018 341.316 114.488 341.779L120.327 347.528L101.965 347.564C101.434 347.564 101 347.991 101 348.514V351.388C101 351.911 101.434 352.339 101.965 352.339V352.303Z" fill="#F2F5FF"/>
</g>
<g clip-path="url(#clip56_2480_206088)">
<path d="M154.42 352.298H157.835L181.035 352.333C181.566 352.333 182 351.906 182 351.383V348.509C182 347.986 181.566 347.559 181.035 347.559L162.673 347.523L168.512 341.774C168.982 341.311 169.067 340.634 168.681 340.266L166.618 338.235C166.244 337.867 165.556 337.938 165.085 338.401L153.419 349.887C152.526 350.766 153.154 352.262 154.42 352.262V352.298Z" fill="#F2F5FF"/>
<path d="M181.035 354.697L157.835 354.733H154.42C153.154 354.733 152.526 356.241 153.419 357.108L165.085 368.594C165.556 369.057 166.244 369.14 166.618 368.76L168.681 366.729C169.055 366.361 168.982 365.684 168.512 365.221L162.673 359.472L181.035 359.436C181.566 359.436 182 359.009 182 358.486V355.612C182 355.089 181.566 354.661 181.035 354.661V354.697Z" fill="#F2F5FF"/>
</g>
<g clip-path="url(#clip57_2480_206088)">
<path d="M142.702 366.42V369.835L142.667 393.035C142.667 393.566 143.094 394 143.617 394H146.491C147.014 394 147.441 393.566 147.441 393.035L147.477 374.673L153.226 380.512C153.689 380.982 154.366 381.067 154.734 380.681L156.765 378.618C157.133 378.244 157.062 377.556 156.599 377.085L145.113 365.419C144.234 364.526 142.738 365.154 142.738 366.42H142.702Z" fill="#F2F5FF"/>
<path d="M140.303 393.035L140.267 369.835V366.42C140.267 365.154 138.759 364.526 137.892 365.419L126.406 377.085C125.943 377.556 125.86 378.244 126.24 378.618L128.271 380.681C128.639 381.055 129.316 380.982 129.779 380.512L135.528 374.673L135.564 393.035C135.564 393.566 135.991 394 136.514 394H139.388C139.911 394 140.339 393.566 140.339 393.035H140.303Z" fill="#F2F5FF"/>
</g>
<g clip-path="url(#clip58_2480_206088)">
<path d="M140.298 340.58V337.165L140.333 313.965C140.333 313.434 139.906 313 139.383 313H136.509C135.986 313 135.559 313.434 135.559 313.965L135.523 332.327L129.774 326.488C129.311 326.018 128.634 325.933 128.266 326.319L126.235 328.382C125.867 328.756 125.938 329.444 126.401 329.915L137.887 341.581C138.766 342.474 140.262 341.846 140.262 340.58H140.298Z" fill="#F2F5FF"/>
<path d="M142.697 313.965L142.733 337.165V340.58C142.733 341.846 144.241 342.474 145.108 341.581L156.594 329.915C157.057 329.444 157.14 328.756 156.76 328.382L154.729 326.319C154.361 325.945 153.684 326.018 153.221 326.488L147.472 332.327L147.436 313.965C147.436 313.434 147.009 313 146.486 313H143.612C143.089 313 142.661 313.434 142.661 313.965H142.697Z" fill="#F2F5FF"/>
</g>
<g clip-path="url(#clip59_2480_206088)">
<path d="M27.5796 354.702H24.1654L0.96517 354.667C0.434328 354.667 0 355.094 0 355.617V358.491C0 359.014 0.434328 359.441 0.96517 359.441L19.3275 359.477L13.4882 365.226C13.0177 365.689 12.9332 366.366 13.3193 366.734L15.3823 368.765C15.7563 369.133 16.444 369.062 16.9145 368.599L28.581 357.113C29.4738 356.234 28.8464 354.738 27.5796 354.738V354.702Z" fill="#F2F5FF"/>
<path d="M0.96517 352.303L24.1654 352.267H27.5796C28.8464 352.267 29.4738 350.759 28.581 349.892L16.9145 338.406C16.444 337.943 15.7563 337.86 15.3823 338.24L13.3193 340.271C12.9453 340.639 13.0177 341.316 13.4882 341.779L19.3275 347.528L0.96517 347.564C0.434328 347.564 0 347.991 0 348.514V351.388C0 351.911 0.434328 352.339 0.96517 352.339V352.303Z" fill="#F2F5FF"/>
</g>
<g clip-path="url(#clip60_2480_206088)">
<path d="M53.4204 352.298H56.8346L80.0348 352.333C80.5657 352.333 81 351.906 81 351.383V348.509C81 347.986 80.5657 347.559 80.0348 347.559L61.6725 347.523L67.5118 341.774C67.9823 341.311 68.0668 340.634 67.6807 340.266L65.6177 338.235C65.2437 337.867 64.556 337.938 64.0855 338.401L52.419 349.887C51.5262 350.766 52.1536 352.262 53.4204 352.262V352.298Z" fill="#F2F5FF"/>
<path d="M80.0348 354.697L56.8346 354.733H53.4204C52.1536 354.733 51.5262 356.241 52.419 357.108L64.0855 368.594C64.556 369.057 65.2437 369.14 65.6177 368.76L67.6807 366.729C68.0547 366.361 67.9823 365.684 67.5118 365.221L61.6725 359.472L80.0348 359.436C80.5657 359.436 81 359.009 81 358.486V355.612C81 355.089 80.5657 354.661 80.0348 354.661V354.697Z" fill="#F2F5FF"/>
</g>
<g clip-path="url(#clip61_2480_206088)">
<path d="M41.7021 366.42V369.835L41.6665 393.035C41.6665 393.566 42.0941 394 42.6167 394H45.491C46.0137 394 46.4412 393.566 46.4412 393.035L46.4769 374.673L52.2256 380.512C52.6888 380.982 53.3658 381.067 53.734 380.681L55.765 378.618C56.1333 378.244 56.062 377.556 55.5988 377.085L44.1133 365.419C43.2343 364.526 41.7378 365.154 41.7378 366.42H41.7021Z" fill="#F2F5FF"/>
<path d="M39.3029 393.035L39.2672 369.835V366.42C39.2672 365.154 37.7588 364.526 36.8918 365.419L25.4063 377.085C24.943 377.556 24.8599 378.244 25.24 378.618L27.271 380.681C27.6392 381.055 28.3162 380.982 28.7795 380.512L34.5281 374.673L34.5638 393.035C34.5638 393.566 34.9914 394 35.514 394H38.3883C38.9109 394 39.3385 393.566 39.3385 393.035H39.3029Z" fill="#F2F5FF"/>
</g>
<g clip-path="url(#clip62_2480_206088)">
<path d="M39.2979 340.58V337.165L39.3335 313.965C39.3335 313.434 38.9059 313 38.3833 313H35.509C34.9863 313 34.5588 313.434 34.5588 313.965L34.5231 332.327L28.7744 326.488C28.3112 326.018 27.6342 325.933 27.266 326.319L25.235 328.382C24.8667 328.756 24.938 329.444 25.4012 329.915L36.8867 341.581C37.7657 342.474 39.2622 341.846 39.2622 340.58H39.2979Z" fill="#F2F5FF"/>
<path d="M41.6971 313.965L41.7328 337.165V340.58C41.7328 341.846 43.2412 342.474 44.1082 341.581L55.5937 329.915C56.057 329.444 56.1401 328.756 55.76 328.382L53.729 326.319C53.3608 325.945 52.6838 326.018 52.2205 326.488L46.4719 332.327L46.4362 313.965C46.4362 313.434 46.0086 313 45.486 313H42.6117C42.0891 313 41.6615 313.434 41.6615 313.965H41.6971Z" fill="#F2F5FF"/>
</g>
<g clip-path="url(#clip63_2480_206088)">
<path d="M77.5796 505.702H74.1654L50.9652 505.667C50.4343 505.667 50 506.094 50 506.617V509.491C50 510.014 50.4343 510.441 50.9652 510.441L69.3275 510.477L63.4882 516.226C63.0177 516.689 62.9332 517.366 63.3193 517.734L65.3823 519.765C65.7563 520.133 66.444 520.062 66.9145 519.599L78.581 508.113C79.4738 507.234 78.8464 505.738 77.5796 505.738V505.702Z" fill="#F2F5FF"/>
<path d="M50.9652 503.303L74.1654 503.267H77.5796C78.8464 503.267 79.4738 501.759 78.581 500.892L66.9145 489.406C66.444 488.943 65.7563 488.86 65.3823 489.24L63.3193 491.271C62.9453 491.639 63.0177 492.316 63.4882 492.779L69.3275 498.528L50.9652 498.564C50.4343 498.564 50 498.991 50 499.514V502.388C50 502.911 50.4343 503.339 50.9652 503.339V503.303Z" fill="#F2F5FF"/>
</g>
<g clip-path="url(#clip64_2480_206088)">
<path d="M103.42 503.298H106.835L130.035 503.333C130.566 503.333 131 502.906 131 502.383V499.509C131 498.986 130.566 498.559 130.035 498.559L111.673 498.523L117.512 492.774C117.982 492.311 118.067 491.634 117.681 491.266L115.618 489.235C115.244 488.867 114.556 488.938 114.085 489.401L102.419 500.887C101.526 501.766 102.154 503.262 103.42 503.262V503.298Z" fill="#F2F5FF"/>
<path d="M130.035 505.697L106.835 505.733H103.42C102.154 505.733 101.526 507.241 102.419 508.108L114.085 519.594C114.556 520.057 115.244 520.14 115.618 519.76L117.681 517.729C118.055 517.361 117.982 516.684 117.512 516.221L111.673 510.472L130.035 510.436C130.566 510.436 131 510.009 131 509.486V506.612C131 506.089 130.566 505.661 130.035 505.661V505.697Z" fill="#F2F5FF"/>
</g>
<g clip-path="url(#clip65_2480_206088)">
<path d="M91.7021 517.42V520.835L91.6665 544.035C91.6665 544.566 92.0941 545 92.6167 545H95.491C96.0137 545 96.4412 544.566 96.4412 544.035L96.4769 525.673L102.226 531.512C102.689 531.982 103.366 532.067 103.734 531.681L105.765 529.618C106.133 529.244 106.062 528.556 105.599 528.085L94.1133 516.419C93.2343 515.526 91.7378 516.154 91.7378 517.42H91.7021Z" fill="#F2F5FF"/>
<path d="M89.3029 544.035L89.2672 520.835V517.42C89.2672 516.154 87.7588 515.526 86.8918 516.419L75.4063 528.085C74.943 528.556 74.8599 529.244 75.24 529.618L77.271 531.681C77.6392 532.055 78.3162 531.982 78.7795 531.512L84.5281 525.673L84.5638 544.035C84.5638 544.566 84.9914 545 85.514 545H88.3883C88.9109 545 89.3385 544.566 89.3385 544.035H89.3029Z" fill="#F2F5FF"/>
</g>
<g clip-path="url(#clip66_2480_206088)">
<path d="M89.2979 491.58V488.165L89.3335 464.965C89.3335 464.434 88.9059 464 88.3833 464H85.509C84.9863 464 84.5588 464.434 84.5588 464.965L84.5231 483.327L78.7744 477.488C78.3112 477.018 77.6342 476.933 77.266 477.319L75.235 479.382C74.8667 479.756 74.938 480.444 75.4012 480.915L86.8867 492.581C87.7657 493.474 89.2622 492.846 89.2622 491.58H89.2979Z" fill="#F2F5FF"/>
<path d="M91.6971 464.965L91.7328 488.165V491.58C91.7328 492.846 93.2412 493.474 94.1082 492.581L105.594 480.915C106.057 480.444 106.14 479.756 105.76 479.382L103.729 477.319C103.361 476.945 102.684 477.018 102.221 477.488L96.4719 483.327L96.4362 464.965C96.4362 464.434 96.0086 464 95.486 464H92.6117C92.0891 464 91.6615 464.434 91.6615 464.965H91.6971Z" fill="#F2F5FF"/>
</g>
<g clip-path="url(#clip67_2480_206088)">
<path d="M77.5796 404.702H74.1654L50.9652 404.667C50.4343 404.667 50 405.094 50 405.617V408.491C50 409.014 50.4343 409.441 50.9652 409.441L69.3275 409.477L63.4882 415.226C63.0177 415.689 62.9332 416.366 63.3193 416.734L65.3823 418.765C65.7563 419.133 66.444 419.062 66.9145 418.599L78.581 407.113C79.4738 406.234 78.8464 404.738 77.5796 404.738V404.702Z" fill="#F2F5FF"/>
<path d="M50.9652 402.303L74.1654 402.267H77.5796C78.8464 402.267 79.4738 400.759 78.581 399.892L66.9145 388.406C66.444 387.943 65.7563 387.86 65.3823 388.24L63.3193 390.271C62.9453 390.639 63.0177 391.316 63.4882 391.779L69.3275 397.528L50.9652 397.564C50.4343 397.564 50 397.991 50 398.514V401.388C50 401.911 50.4343 402.339 50.9652 402.339V402.303Z" fill="#F2F5FF"/>
</g>
<g clip-path="url(#clip68_2480_206088)">
<path d="M103.42 402.298H106.835L130.035 402.333C130.566 402.333 131 401.906 131 401.383V398.509C131 397.986 130.566 397.559 130.035 397.559L111.673 397.523L117.512 391.774C117.982 391.311 118.067 390.634 117.681 390.266L115.618 388.235C115.244 387.867 114.556 387.938 114.085 388.401L102.419 399.887C101.526 400.766 102.154 402.262 103.42 402.262V402.298Z" fill="#F2F5FF"/>
<path d="M130.035 404.697L106.835 404.733H103.42C102.154 404.733 101.526 406.241 102.419 407.108L114.085 418.594C114.556 419.057 115.244 419.14 115.618 418.76L117.681 416.729C118.055 416.361 117.982 415.684 117.512 415.221L111.673 409.472L130.035 409.436C130.566 409.436 131 409.009 131 408.486V405.612C131 405.089 130.566 404.661 130.035 404.661V404.697Z" fill="#F2F5FF"/>
</g>
<g clip-path="url(#clip69_2480_206088)">
<path d="M91.7021 416.42V419.835L91.6665 443.035C91.6665 443.566 92.0941 444 92.6167 444H95.491C96.0137 444 96.4412 443.566 96.4412 443.035L96.4769 424.673L102.226 430.512C102.689 430.982 103.366 431.067 103.734 430.681L105.765 428.618C106.133 428.244 106.062 427.556 105.599 427.085L94.1133 415.419C93.2343 414.526 91.7378 415.154 91.7378 416.42H91.7021Z" fill="#F2F5FF"/>
<path d="M89.3029 443.035L89.2672 419.835V416.42C89.2672 415.154 87.7588 414.526 86.8918 415.419L75.4063 427.085C74.943 427.556 74.8599 428.244 75.24 428.618L77.271 430.681C77.6392 431.055 78.3162 430.982 78.7795 430.512L84.5281 424.673L84.5638 443.035C84.5638 443.566 84.9914 444 85.514 444H88.3883C88.9109 444 89.3385 443.566 89.3385 443.035H89.3029Z" fill="#F2F5FF"/>
</g>
<g clip-path="url(#clip70_2480_206088)">
<path d="M89.2979 390.58V387.165L89.3335 363.965C89.3335 363.434 88.9059 363 88.3833 363H85.509C84.9863 363 84.5588 363.434 84.5588 363.965L84.5231 382.327L78.7744 376.488C78.3112 376.018 77.6342 375.933 77.266 376.319L75.235 378.382C74.8667 378.756 74.938 379.444 75.4012 379.915L86.8867 391.581C87.7657 392.474 89.2622 391.846 89.2622 390.58H89.2979Z" fill="#F2F5FF"/>
<path d="M91.6971 363.965L91.7328 387.165V390.58C91.7328 391.846 93.2412 392.474 94.1082 391.581L105.594 379.915C106.057 379.444 106.14 378.756 105.76 378.382L103.729 376.319C103.361 375.945 102.684 376.018 102.221 376.488L96.4719 382.327L96.4362 363.965C96.4362 363.434 96.0086 363 95.486 363H92.6117C92.0891 363 91.6615 363.434 91.6615 363.965H91.6971Z" fill="#F2F5FF"/>
</g>
<g clip-path="url(#clip71_2480_206088)">
<path d="M128.58 455.702H125.165L101.965 455.667C101.434 455.667 101 456.094 101 456.617V459.491C101 460.014 101.434 460.441 101.965 460.441L120.327 460.477L114.488 466.226C114.018 466.689 113.933 467.366 114.319 467.734L116.382 469.765C116.756 470.133 117.444 470.062 117.915 469.599L129.581 458.113C130.474 457.234 129.846 455.738 128.58 455.738V455.702Z" fill="#F2F5FF"/>
<path d="M101.965 453.303L125.165 453.267H128.58C129.846 453.267 130.474 451.759 129.581 450.892L117.915 439.406C117.444 438.943 116.756 438.86 116.382 439.24L114.319 441.271C113.945 441.639 114.018 442.316 114.488 442.779L120.327 448.528L101.965 448.564C101.434 448.564 101 448.991 101 449.514V452.388C101 452.911 101.434 453.339 101.965 453.339V453.303Z" fill="#F2F5FF"/>
</g>
<g clip-path="url(#clip72_2480_206088)">
<path d="M154.42 453.298H157.835L181.035 453.333C181.566 453.333 182 452.906 182 452.383V449.509C182 448.986 181.566 448.559 181.035 448.559L162.673 448.523L168.512 442.774C168.982 442.311 169.067 441.634 168.681 441.266L166.618 439.235C166.244 438.867 165.556 438.938 165.085 439.401L153.419 450.887C152.526 451.766 153.154 453.262 154.42 453.262V453.298Z" fill="#F2F5FF"/>
<path d="M181.035 455.697L157.835 455.733H154.42C153.154 455.733 152.526 457.241 153.419 458.108L165.085 469.594C165.556 470.057 166.244 470.14 166.618 469.76L168.681 467.729C169.055 467.361 168.982 466.684 168.512 466.221L162.673 460.472L181.035 460.436C181.566 460.436 182 460.009 182 459.486V456.612C182 456.089 181.566 455.661 181.035 455.661V455.697Z" fill="#F2F5FF"/>
</g>
<g clip-path="url(#clip73_2480_206088)">
<path d="M142.702 467.42V470.835L142.667 494.035C142.667 494.566 143.094 495 143.617 495H146.491C147.014 495 147.441 494.566 147.441 494.035L147.477 475.673L153.226 481.512C153.689 481.982 154.366 482.067 154.734 481.681L156.765 479.618C157.133 479.244 157.062 478.556 156.599 478.085L145.113 466.419C144.234 465.526 142.738 466.154 142.738 467.42H142.702Z" fill="#F2F5FF"/>
<path d="M140.303 494.035L140.267 470.835V467.42C140.267 466.154 138.759 465.526 137.892 466.419L126.406 478.085C125.943 478.556 125.86 479.244 126.24 479.618L128.271 481.681C128.639 482.055 129.316 481.982 129.779 481.512L135.528 475.673L135.564 494.035C135.564 494.566 135.991 495 136.514 495H139.388C139.911 495 140.339 494.566 140.339 494.035H140.303Z" fill="#F2F5FF"/>
</g>
<g clip-path="url(#clip74_2480_206088)">
<path d="M140.298 441.58V438.165L140.333 414.965C140.333 414.434 139.906 414 139.383 414H136.509C135.986 414 135.559 414.434 135.559 414.965L135.523 433.327L129.774 427.488C129.311 427.018 128.634 426.933 128.266 427.319L126.235 429.382C125.867 429.756 125.938 430.444 126.401 430.915L137.887 442.581C138.766 443.474 140.262 442.846 140.262 441.58H140.298Z" fill="#F2F5FF"/>
<path d="M142.697 414.965L142.733 438.165V441.58C142.733 442.846 144.241 443.474 145.108 442.581L156.594 430.915C157.057 430.444 157.14 429.756 156.76 429.382L154.729 427.319C154.361 426.945 153.684 427.018 153.221 427.488L147.472 433.327L147.436 414.965C147.436 414.434 147.009 414 146.486 414H143.612C143.089 414 142.661 414.434 142.661 414.965H142.697Z" fill="#F2F5FF"/>
</g>
<g clip-path="url(#clip75_2480_206088)">
<path d="M27.5796 455.702H24.1654L0.96517 455.667C0.434328 455.667 0 456.094 0 456.617V459.491C0 460.014 0.434328 460.441 0.96517 460.441L19.3275 460.477L13.4882 466.226C13.0177 466.689 12.9332 467.366 13.3193 467.734L15.3823 469.765C15.7563 470.133 16.444 470.062 16.9145 469.599L28.581 458.113C29.4738 457.234 28.8464 455.738 27.5796 455.738V455.702Z" fill="#F2F5FF"/>
<path d="M0.96517 453.303L24.1654 453.267H27.5796C28.8464 453.267 29.4738 451.759 28.581 450.892L16.9145 439.406C16.444 438.943 15.7563 438.86 15.3823 439.24L13.3193 441.271C12.9453 441.639 13.0177 442.316 13.4882 442.779L19.3275 448.528L0.96517 448.564C0.434328 448.564 0 448.991 0 449.514V452.388C0 452.911 0.434328 453.339 0.96517 453.339V453.303Z" fill="#F2F5FF"/>
</g>
<g clip-path="url(#clip76_2480_206088)">
<path d="M53.4204 453.298H56.8346L80.0348 453.333C80.5657 453.333 81 452.906 81 452.383V449.509C81 448.986 80.5657 448.559 80.0348 448.559L61.6725 448.523L67.5118 442.774C67.9823 442.311 68.0668 441.634 67.6807 441.266L65.6177 439.235C65.2437 438.867 64.556 438.938 64.0855 439.401L52.419 450.887C51.5262 451.766 52.1536 453.262 53.4204 453.262V453.298Z" fill="#F2F5FF"/>
<path d="M80.0348 455.697L56.8346 455.733H53.4204C52.1536 455.733 51.5262 457.241 52.419 458.108L64.0855 469.594C64.556 470.057 65.2437 470.14 65.6177 469.76L67.6807 467.729C68.0547 467.361 67.9823 466.684 67.5118 466.221L61.6725 460.472L80.0348 460.436C80.5657 460.436 81 460.009 81 459.486V456.612C81 456.089 80.5657 455.661 80.0348 455.661V455.697Z" fill="#F2F5FF"/>
</g>
<g clip-path="url(#clip77_2480_206088)">
<path d="M41.7021 467.42V470.835L41.6665 494.035C41.6665 494.566 42.0941 495 42.6167 495H45.491C46.0137 495 46.4412 494.566 46.4412 494.035L46.4769 475.673L52.2256 481.512C52.6888 481.982 53.3658 482.067 53.734 481.681L55.765 479.618C56.1333 479.244 56.062 478.556 55.5988 478.085L44.1133 466.419C43.2343 465.526 41.7378 466.154 41.7378 467.42H41.7021Z" fill="#F2F5FF"/>
<path d="M39.3029 494.035L39.2672 470.835V467.42C39.2672 466.154 37.7588 465.526 36.8918 466.419L25.4063 478.085C24.943 478.556 24.8599 479.244 25.24 479.618L27.271 481.681C27.6392 482.055 28.3162 481.982 28.7795 481.512L34.5281 475.673L34.5638 494.035C34.5638 494.566 34.9914 495 35.514 495H38.3883C38.9109 495 39.3385 494.566 39.3385 494.035H39.3029Z" fill="#F2F5FF"/>
</g>
<g clip-path="url(#clip78_2480_206088)">
<path d="M39.2979 441.58V438.165L39.3335 414.965C39.3335 414.434 38.9059 414 38.3833 414H35.509C34.9863 414 34.5588 414.434 34.5588 414.965L34.5231 433.327L28.7744 427.488C28.3112 427.018 27.6342 426.933 27.266 427.319L25.235 429.382C24.8667 429.756 24.938 430.444 25.4012 430.915L36.8867 442.581C37.7657 443.474 39.2622 442.846 39.2622 441.58H39.2979Z" fill="#F2F5FF"/>
<path d="M41.6971 414.965L41.7328 438.165V441.58C41.7328 442.846 43.2412 443.474 44.1082 442.581L55.5937 430.915C56.057 430.444 56.1401 429.756 55.76 429.382L53.729 427.319C53.3608 426.945 52.6838 427.018 52.2205 427.488L46.4719 433.327L46.4362 414.965C46.4362 414.434 46.0086 414 45.486 414H42.6117C42.0891 414 41.6615 414.434 41.6615 414.965H41.6971Z" fill="#F2F5FF"/>
</g>
<g clip-path="url(#clip79_2480_206088)">
<path d="M50.9652 604.303L74.1654 604.267H77.5796C78.8464 604.267 79.4738 602.759 78.581 601.892L66.9145 590.406C66.444 589.943 65.7563 589.86 65.3823 590.24L63.3193 592.271C62.9453 592.639 63.0177 593.316 63.4882 593.779L69.3275 599.528L50.9652 599.564C50.4343 599.564 50 599.991 50 600.514V603.388C50 603.911 50.4343 604.339 50.9652 604.339V604.303Z" fill="#F2F5FF"/>
</g>
<g clip-path="url(#clip80_2480_206088)">
<path d="M103.42 604.298H106.835L130.035 604.333C130.566 604.333 131 603.906 131 603.383V600.509C131 599.986 130.566 599.559 130.035 599.559L111.673 599.523L117.512 593.774C117.982 593.311 118.067 592.634 117.681 592.266L115.618 590.235C115.244 589.867 114.556 589.938 114.085 590.401L102.419 601.887C101.526 602.766 102.154 604.262 103.42 604.262V604.298Z" fill="#F2F5FF"/>
</g>
<g clip-path="url(#clip81_2480_206088)">
<path d="M89.2979 592.58V589.165L89.3335 565.965C89.3335 565.434 88.9059 565 88.3833 565H85.509C84.9863 565 84.5588 565.434 84.5588 565.965L84.5231 584.327L78.7744 578.488C78.3112 578.018 77.6342 577.933 77.266 578.319L75.235 580.382C74.8667 580.756 74.938 581.444 75.4012 581.915L86.8867 593.581C87.7657 594.474 89.2622 593.846 89.2622 592.58H89.2979Z" fill="#F2F5FF"/>
<path d="M91.6971 565.965L91.7328 589.165V592.58C91.7328 593.846 93.2412 594.474 94.1082 593.581L105.594 581.915C106.057 581.444 106.14 580.756 105.76 580.382L103.729 578.319C103.361 577.945 102.684 578.018 102.221 578.488L96.4719 584.327L96.4362 565.965C96.4362 565.434 96.0086 565 95.486 565H92.6117C92.0891 565 91.6615 565.434 91.6615 565.965H91.6971Z" fill="#F2F5FF"/>
</g>
<g clip-path="url(#clip82_2480_206088)">
<path d="M77.5796 505.702H74.1654L50.9652 505.667C50.4343 505.667 50 506.094 50 506.617V509.491C50 510.014 50.4343 510.441 50.9652 510.441L69.3275 510.477L63.4882 516.226C63.0177 516.689 62.9332 517.366 63.3193 517.734L65.3823 519.765C65.7563 520.133 66.444 520.062 66.9145 519.599L78.581 508.113C79.4738 507.234 78.8464 505.738 77.5796 505.738V505.702Z" fill="#F2F5FF"/>
<path d="M50.9652 503.303L74.1654 503.267H77.5796C78.8464 503.267 79.4738 501.759 78.581 500.892L66.9145 489.406C66.444 488.943 65.7563 488.86 65.3823 489.24L63.3193 491.271C62.9453 491.639 63.0177 492.316 63.4882 492.779L69.3275 498.528L50.9652 498.564C50.4343 498.564 50 498.991 50 499.514V502.388C50 502.911 50.4343 503.339 50.9652 503.339V503.303Z" fill="#F2F5FF"/>
</g>
<g clip-path="url(#clip83_2480_206088)">
<path d="M103.42 503.298H106.835L130.035 503.333C130.566 503.333 131 502.906 131 502.383V499.509C131 498.986 130.566 498.559 130.035 498.559L111.673 498.523L117.512 492.774C117.982 492.311 118.067 491.634 117.681 491.266L115.618 489.235C115.244 488.867 114.556 488.938 114.085 489.401L102.419 500.887C101.526 501.766 102.154 503.262 103.42 503.262V503.298Z" fill="#F2F5FF"/>
<path d="M130.035 505.697L106.835 505.733H103.42C102.154 505.733 101.526 507.241 102.419 508.108L114.085 519.594C114.556 520.057 115.244 520.14 115.618 519.76L117.681 517.729C118.055 517.361 117.982 516.684 117.512 516.221L111.673 510.472L130.035 510.436C130.566 510.436 131 510.009 131 509.486V506.612C131 506.089 130.566 505.661 130.035 505.661V505.697Z" fill="#F2F5FF"/>
</g>
<g clip-path="url(#clip84_2480_206088)">
<path d="M91.7021 517.42V520.835L91.6665 544.035C91.6665 544.566 92.0941 545 92.6167 545H95.491C96.0137 545 96.4412 544.566 96.4412 544.035L96.4769 525.673L102.226 531.512C102.689 531.982 103.366 532.067 103.734 531.681L105.765 529.618C106.133 529.244 106.062 528.556 105.599 528.085L94.1133 516.419C93.2343 515.526 91.7378 516.154 91.7378 517.42H91.7021Z" fill="#F2F5FF"/>
<path d="M89.3029 544.035L89.2672 520.835V517.42C89.2672 516.154 87.7588 515.526 86.8918 516.419L75.4063 528.085C74.943 528.556 74.8599 529.244 75.24 529.618L77.271 531.681C77.6392 532.055 78.3162 531.982 78.7795 531.512L84.5281 525.673L84.5638 544.035C84.5638 544.566 84.9914 545 85.514 545H88.3883C88.9109 545 89.3385 544.566 89.3385 544.035H89.3029Z" fill="#F2F5FF"/>
</g>
<g clip-path="url(#clip85_2480_206088)">
<path d="M89.2979 491.58V488.165L89.3335 464.965C89.3335 464.434 88.9059 464 88.3833 464H85.509C84.9863 464 84.5588 464.434 84.5588 464.965L84.5231 483.327L78.7744 477.488C78.3112 477.018 77.6342 476.933 77.266 477.319L75.235 479.382C74.8667 479.756 74.938 480.444 75.4012 480.915L86.8867 492.581C87.7657 493.474 89.2622 492.846 89.2622 491.58H89.2979Z" fill="#F2F5FF"/>
<path d="M91.6971 464.965L91.7328 488.165V491.58C91.7328 492.846 93.2412 493.474 94.1082 492.581L105.594 480.915C106.057 480.444 106.14 479.756 105.76 479.382L103.729 477.319C103.361 476.945 102.684 477.018 102.221 477.488L96.4719 483.327L96.4362 464.965C96.4362 464.434 96.0086 464 95.486 464H92.6117C92.0891 464 91.6615 464.434 91.6615 464.965H91.6971Z" fill="#F2F5FF"/>
</g>
<g clip-path="url(#clip86_2480_206088)">
<path d="M128.58 556.702H125.165L101.965 556.667C101.434 556.667 101 557.094 101 557.617V560.491C101 561.014 101.434 561.441 101.965 561.441L120.327 561.477L114.488 567.226C114.018 567.689 113.933 568.366 114.319 568.734L116.382 570.765C116.756 571.133 117.444 571.062 117.915 570.599L129.581 559.113C130.474 558.234 129.846 556.738 128.58 556.738V556.702Z" fill="#F2F5FF"/>
<path d="M101.965 554.303L125.165 554.267H128.58C129.846 554.267 130.474 552.759 129.581 551.892L117.915 540.406C117.444 539.943 116.756 539.86 116.382 540.24L114.319 542.271C113.945 542.639 114.018 543.316 114.488 543.779L120.327 549.528L101.965 549.564C101.434 549.564 101 549.991 101 550.514V553.388C101 553.911 101.434 554.339 101.965 554.339V554.303Z" fill="#F2F5FF"/>
</g>
<g clip-path="url(#clip87_2480_206088)">
<path d="M154.42 554.298H157.835L181.035 554.333C181.566 554.333 182 553.906 182 553.383V550.509C182 549.986 181.566 549.559 181.035 549.559L162.673 549.523L168.512 543.774C168.982 543.311 169.067 542.634 168.681 542.266L166.618 540.235C166.244 539.867 165.556 539.938 165.085 540.401L153.419 551.887C152.526 552.766 153.154 554.262 154.42 554.262V554.298Z" fill="#F2F5FF"/>
<path d="M181.035 556.697L157.835 556.733H154.42C153.154 556.733 152.526 558.241 153.419 559.108L165.085 570.594C165.556 571.057 166.244 571.14 166.618 570.76L168.681 568.729C169.055 568.361 168.982 567.684 168.512 567.221L162.673 561.472L181.035 561.436C181.566 561.436 182 561.009 182 560.486V557.612C182 557.089 181.566 556.661 181.035 556.661V556.697Z" fill="#F2F5FF"/>
</g>
<g clip-path="url(#clip88_2480_206088)">
<path d="M142.702 568.42V571.835L142.667 595.035C142.667 595.566 143.094 596 143.617 596H146.491C147.014 596 147.441 595.566 147.441 595.035L147.477 576.673L153.226 582.512C153.689 582.982 154.366 583.067 154.734 582.681L156.765 580.618C157.133 580.244 157.062 579.556 156.599 579.085L145.113 567.419C144.234 566.526 142.738 567.154 142.738 568.42H142.702Z" fill="#F2F5FF"/>
<path d="M140.303 595.035L140.267 571.835V568.42C140.267 567.154 138.759 566.526 137.892 567.419L126.406 579.085C125.943 579.556 125.86 580.244 126.24 580.618L128.271 582.681C128.639 583.055 129.316 582.982 129.779 582.512L135.528 576.673L135.564 595.035C135.564 595.566 135.991 596 136.514 596H139.388C139.911 596 140.339 595.566 140.339 595.035H140.303Z" fill="#F2F5FF"/>
</g>
<g clip-path="url(#clip89_2480_206088)">
<path d="M140.298 542.58V539.165L140.333 515.965C140.333 515.434 139.906 515 139.383 515H136.509C135.986 515 135.559 515.434 135.559 515.965L135.523 534.327L129.774 528.488C129.311 528.018 128.634 527.933 128.266 528.319L126.235 530.382C125.867 530.756 125.938 531.444 126.401 531.915L137.887 543.581C138.766 544.474 140.262 543.846 140.262 542.58H140.298Z" fill="#F2F5FF"/>
<path d="M142.697 515.965L142.733 539.165V542.58C142.733 543.846 144.241 544.474 145.108 543.581L156.594 531.915C157.057 531.444 157.14 530.756 156.76 530.382L154.729 528.319C154.361 527.945 153.684 528.018 153.221 528.488L147.472 534.327L147.436 515.965C147.436 515.434 147.009 515 146.486 515H143.612C143.089 515 142.661 515.434 142.661 515.965H142.697Z" fill="#F2F5FF"/>
</g>
<g clip-path="url(#clip90_2480_206088)">
<path d="M27.5796 556.702H24.1654L0.96517 556.667C0.434328 556.667 0 557.094 0 557.617V560.491C0 561.014 0.434328 561.441 0.96517 561.441L19.3275 561.477L13.4882 567.226C13.0177 567.689 12.9332 568.366 13.3193 568.734L15.3823 570.765C15.7563 571.133 16.444 571.062 16.9145 570.599L28.581 559.113C29.4738 558.234 28.8464 556.738 27.5796 556.738V556.702Z" fill="#F2F5FF"/>
<path d="M0.96517 554.303L24.1654 554.267H27.5796C28.8464 554.267 29.4738 552.759 28.581 551.892L16.9145 540.406C16.444 539.943 15.7563 539.86 15.3823 540.24L13.3193 542.271C12.9453 542.639 13.0177 543.316 13.4882 543.779L19.3275 549.528L0.96517 549.564C0.434328 549.564 0 549.991 0 550.514V553.388C0 553.911 0.434328 554.339 0.96517 554.339V554.303Z" fill="#F2F5FF"/>
</g>
<g clip-path="url(#clip91_2480_206088)">
<path d="M53.4204 554.298H56.8346L80.0348 554.333C80.5657 554.333 81 553.906 81 553.383V550.509C81 549.986 80.5657 549.559 80.0348 549.559L61.6725 549.523L67.5118 543.774C67.9823 543.311 68.0668 542.634 67.6807 542.266L65.6177 540.235C65.2437 539.867 64.556 539.938 64.0855 540.401L52.419 551.887C51.5262 552.766 52.1536 554.262 53.4204 554.262V554.298Z" fill="#F2F5FF"/>
<path d="M80.0348 556.697L56.8346 556.733H53.4204C52.1536 556.733 51.5262 558.241 52.419 559.108L64.0855 570.594C64.556 571.057 65.2437 571.14 65.6177 570.76L67.6807 568.729C68.0547 568.361 67.9823 567.684 67.5118 567.221L61.6725 561.472L80.0348 561.436C80.5657 561.436 81 561.009 81 560.486V557.612C81 557.089 80.5657 556.661 80.0348 556.661V556.697Z" fill="#F2F5FF"/>
</g>
<g clip-path="url(#clip92_2480_206088)">
<path d="M41.7021 568.42V571.835L41.6665 595.035C41.6665 595.566 42.0941 596 42.6167 596H45.491C46.0137 596 46.4412 595.566 46.4412 595.035L46.4769 576.673L52.2256 582.512C52.6888 582.982 53.3658 583.067 53.734 582.681L55.765 580.618C56.1333 580.244 56.062 579.556 55.5988 579.085L44.1133 567.419C43.2343 566.526 41.7378 567.154 41.7378 568.42H41.7021Z" fill="#F2F5FF"/>
<path d="M39.3029 595.035L39.2672 571.835V568.42C39.2672 567.154 37.7588 566.526 36.8918 567.419L25.4063 579.085C24.943 579.556 24.8599 580.244 25.24 580.618L27.271 582.681C27.6392 583.055 28.3162 582.982 28.7795 582.512L34.5281 576.673L34.5638 595.035C34.5638 595.566 34.9914 596 35.514 596H38.3883C38.9109 596 39.3385 595.566 39.3385 595.035H39.3029Z" fill="#F2F5FF"/>
</g>
<g clip-path="url(#clip93_2480_206088)">
<path d="M39.2979 542.58V539.165L39.3335 515.965C39.3335 515.434 38.9059 515 38.3833 515H35.509C34.9863 515 34.5588 515.434 34.5588 515.965L34.5231 534.327L28.7744 528.488C28.3112 528.018 27.6342 527.933 27.266 528.319L25.235 530.382C24.8667 530.756 24.938 531.444 25.4012 531.915L36.8867 543.581C37.7657 544.474 39.2622 543.846 39.2622 542.58H39.2979Z" fill="#F2F5FF"/>
<path d="M41.6971 515.965L41.7328 539.165V542.58C41.7328 543.846 43.2412 544.474 44.1082 543.581L55.5937 531.915C56.057 531.444 56.1401 530.756 55.76 530.382L53.729 528.319C53.3608 527.945 52.6838 528.018 52.2205 528.488L46.4719 534.327L46.4362 515.965C46.4362 515.434 46.0086 515 45.486 515H42.6117C42.0891 515 41.6615 515.434 41.6615 515.965H41.6971Z" fill="#F2F5FF"/>
</g>
<defs>
<clipPath id="clip0_2480_206088">
<rect width="29" height="31" fill="white" transform="translate(50 85)"/>
</clipPath>
<clipPath id="clip1_2480_206088">
<rect width="29" height="31" fill="white" transform="matrix(-1 0 0 -1 131 116)"/>
</clipPath>
<clipPath id="clip2_2480_206088">
<rect width="29" height="31" fill="white" transform="matrix(0 -1 1 0 75 141)"/>
</clipPath>
<clipPath id="clip3_2480_206088">
<rect width="29" height="31" fill="white" transform="matrix(0 1 -1 0 106 60)"/>
</clipPath>
<clipPath id="clip4_2480_206088">
<rect width="29" height="31" fill="white" transform="translate(50 -16)"/>
</clipPath>
<clipPath id="clip5_2480_206088">
<rect width="29" height="31" fill="white" transform="matrix(-1 0 0 -1 131 15)"/>
</clipPath>
<clipPath id="clip6_2480_206088">
<rect width="29" height="31" fill="white" transform="matrix(0 -1 1 0 75 40)"/>
</clipPath>
<clipPath id="clip7_2480_206088">
<rect width="29" height="31" fill="white" transform="translate(101 35)"/>
</clipPath>
<clipPath id="clip8_2480_206088">
<rect width="29" height="31" fill="white" transform="matrix(-1 0 0 -1 182 66)"/>
</clipPath>
<clipPath id="clip9_2480_206088">
<rect width="29" height="31" fill="white" transform="matrix(0 -1 1 0 126 91)"/>
</clipPath>
<clipPath id="clip10_2480_206088">
<rect width="29" height="31" fill="white" transform="matrix(0 1 -1 0 157 10)"/>
</clipPath>
<clipPath id="clip11_2480_206088">
<rect width="29" height="31" fill="white" transform="translate(0 35)"/>
</clipPath>
<clipPath id="clip12_2480_206088">
<rect width="29" height="31" fill="white" transform="matrix(-1 0 0 -1 81 66)"/>
</clipPath>
<clipPath id="clip13_2480_206088">
<rect width="29" height="31" fill="white" transform="matrix(0 -1 1 0 25 91)"/>
</clipPath>
<clipPath id="clip14_2480_206088">
<rect width="29" height="31" fill="white" transform="matrix(0 1 -1 0 56 10)"/>
</clipPath>
<clipPath id="clip15_2480_206088">
<rect width="29" height="31" fill="white" transform="translate(50 186)"/>
</clipPath>
<clipPath id="clip16_2480_206088">
<rect width="29" height="31" fill="white" transform="matrix(-1 0 0 -1 131 217)"/>
</clipPath>
<clipPath id="clip17_2480_206088">
<rect width="29" height="31" fill="white" transform="matrix(0 -1 1 0 75 242)"/>
</clipPath>
<clipPath id="clip18_2480_206088">
<rect width="29" height="31" fill="white" transform="matrix(0 1 -1 0 106 161)"/>
</clipPath>
<clipPath id="clip19_2480_206088">
<rect width="29" height="31" fill="white" transform="translate(50 85)"/>
</clipPath>
<clipPath id="clip20_2480_206088">
<rect width="29" height="31" fill="white" transform="matrix(-1 0 0 -1 131 116)"/>
</clipPath>
<clipPath id="clip21_2480_206088">
<rect width="29" height="31" fill="white" transform="matrix(0 -1 1 0 75 141)"/>
</clipPath>
<clipPath id="clip22_2480_206088">
<rect width="29" height="31" fill="white" transform="matrix(0 1 -1 0 106 60)"/>
</clipPath>
<clipPath id="clip23_2480_206088">
<rect width="29" height="31" fill="white" transform="translate(101 136)"/>
</clipPath>
<clipPath id="clip24_2480_206088">
<rect width="29" height="31" fill="white" transform="matrix(-1 0 0 -1 182 167)"/>
</clipPath>
<clipPath id="clip25_2480_206088">
<rect width="29" height="31" fill="white" transform="matrix(0 -1 1 0 126 192)"/>
</clipPath>
<clipPath id="clip26_2480_206088">
<rect width="29" height="31" fill="white" transform="matrix(0 1 -1 0 157 111)"/>
</clipPath>
<clipPath id="clip27_2480_206088">
<rect width="29" height="31" fill="white" transform="translate(0 136)"/>
</clipPath>
<clipPath id="clip28_2480_206088">
<rect width="29" height="31" fill="white" transform="matrix(-1 0 0 -1 81 167)"/>
</clipPath>
<clipPath id="clip29_2480_206088">
<rect width="29" height="31" fill="white" transform="matrix(0 -1 1 0 25 192)"/>
</clipPath>
<clipPath id="clip30_2480_206088">
<rect width="29" height="31" fill="white" transform="matrix(0 1 -1 0 56 111)"/>
</clipPath>
<clipPath id="clip31_2480_206088">
<rect width="29" height="31" fill="white" transform="translate(50 287)"/>
</clipPath>
<clipPath id="clip32_2480_206088">
<rect width="29" height="31" fill="white" transform="matrix(-1 0 0 -1 131 318)"/>
</clipPath>
<clipPath id="clip33_2480_206088">
<rect width="29" height="31" fill="white" transform="matrix(0 -1 1 0 75 343)"/>
</clipPath>
<clipPath id="clip34_2480_206088">
<rect width="29" height="31" fill="white" transform="matrix(0 1 -1 0 106 262)"/>
</clipPath>
<clipPath id="clip35_2480_206088">
<rect width="29" height="31" fill="white" transform="translate(50 186)"/>
</clipPath>
<clipPath id="clip36_2480_206088">
<rect width="29" height="31" fill="white" transform="matrix(-1 0 0 -1 131 217)"/>
</clipPath>
<clipPath id="clip37_2480_206088">
<rect width="29" height="31" fill="white" transform="matrix(0 -1 1 0 75 242)"/>
</clipPath>
<clipPath id="clip38_2480_206088">
<rect width="29" height="31" fill="white" transform="matrix(0 1 -1 0 106 161)"/>
</clipPath>
<clipPath id="clip39_2480_206088">
<rect width="29" height="31" fill="white" transform="translate(101 237)"/>
</clipPath>
<clipPath id="clip40_2480_206088">
<rect width="29" height="31" fill="white" transform="matrix(-1 0 0 -1 182 268)"/>
</clipPath>
<clipPath id="clip41_2480_206088">
<rect width="29" height="31" fill="white" transform="matrix(0 -1 1 0 126 293)"/>
</clipPath>
<clipPath id="clip42_2480_206088">
<rect width="29" height="31" fill="white" transform="matrix(0 1 -1 0 157 212)"/>
</clipPath>
<clipPath id="clip43_2480_206088">
<rect width="29" height="31" fill="white" transform="translate(0 237)"/>
</clipPath>
<clipPath id="clip44_2480_206088">
<rect width="29" height="31" fill="white" transform="matrix(-1 0 0 -1 81 268)"/>
</clipPath>
<clipPath id="clip45_2480_206088">
<rect width="29" height="31" fill="white" transform="matrix(0 -1 1 0 25 293)"/>
</clipPath>
<clipPath id="clip46_2480_206088">
<rect width="29" height="31" fill="white" transform="matrix(0 1 -1 0 56 212)"/>
</clipPath>
<clipPath id="clip47_2480_206088">
<rect width="29" height="31" fill="white" transform="translate(50 388)"/>
</clipPath>
<clipPath id="clip48_2480_206088">
<rect width="29" height="31" fill="white" transform="matrix(-1 0 0 -1 131 419)"/>
</clipPath>
<clipPath id="clip49_2480_206088">
<rect width="29" height="31" fill="white" transform="matrix(0 -1 1 0 75 444)"/>
</clipPath>
<clipPath id="clip50_2480_206088">
<rect width="29" height="31" fill="white" transform="matrix(0 1 -1 0 106 363)"/>
</clipPath>
<clipPath id="clip51_2480_206088">
<rect width="29" height="31" fill="white" transform="translate(50 287)"/>
</clipPath>
<clipPath id="clip52_2480_206088">
<rect width="29" height="31" fill="white" transform="matrix(-1 0 0 -1 131 318)"/>
</clipPath>
<clipPath id="clip53_2480_206088">
<rect width="29" height="31" fill="white" transform="matrix(0 -1 1 0 75 343)"/>
</clipPath>
<clipPath id="clip54_2480_206088">
<rect width="29" height="31" fill="white" transform="matrix(0 1 -1 0 106 262)"/>
</clipPath>
<clipPath id="clip55_2480_206088">
<rect width="29" height="31" fill="white" transform="translate(101 338)"/>
</clipPath>
<clipPath id="clip56_2480_206088">
<rect width="29" height="31" fill="white" transform="matrix(-1 0 0 -1 182 369)"/>
</clipPath>
<clipPath id="clip57_2480_206088">
<rect width="29" height="31" fill="white" transform="matrix(0 -1 1 0 126 394)"/>
</clipPath>
<clipPath id="clip58_2480_206088">
<rect width="29" height="31" fill="white" transform="matrix(0 1 -1 0 157 313)"/>
</clipPath>
<clipPath id="clip59_2480_206088">
<rect width="29" height="31" fill="white" transform="translate(0 338)"/>
</clipPath>
<clipPath id="clip60_2480_206088">
<rect width="29" height="31" fill="white" transform="matrix(-1 0 0 -1 81 369)"/>
</clipPath>
<clipPath id="clip61_2480_206088">
<rect width="29" height="31" fill="white" transform="matrix(0 -1 1 0 25 394)"/>
</clipPath>
<clipPath id="clip62_2480_206088">
<rect width="29" height="31" fill="white" transform="matrix(0 1 -1 0 56 313)"/>
</clipPath>
<clipPath id="clip63_2480_206088">
<rect width="29" height="31" fill="white" transform="translate(50 489)"/>
</clipPath>
<clipPath id="clip64_2480_206088">
<rect width="29" height="31" fill="white" transform="matrix(-1 0 0 -1 131 520)"/>
</clipPath>
<clipPath id="clip65_2480_206088">
<rect width="29" height="31" fill="white" transform="matrix(0 -1 1 0 75 545)"/>
</clipPath>
<clipPath id="clip66_2480_206088">
<rect width="29" height="31" fill="white" transform="matrix(0 1 -1 0 106 464)"/>
</clipPath>
<clipPath id="clip67_2480_206088">
<rect width="29" height="31" fill="white" transform="translate(50 388)"/>
</clipPath>
<clipPath id="clip68_2480_206088">
<rect width="29" height="31" fill="white" transform="matrix(-1 0 0 -1 131 419)"/>
</clipPath>
<clipPath id="clip69_2480_206088">
<rect width="29" height="31" fill="white" transform="matrix(0 -1 1 0 75 444)"/>
</clipPath>
<clipPath id="clip70_2480_206088">
<rect width="29" height="31" fill="white" transform="matrix(0 1 -1 0 106 363)"/>
</clipPath>
<clipPath id="clip71_2480_206088">
<rect width="29" height="31" fill="white" transform="translate(101 439)"/>
</clipPath>
<clipPath id="clip72_2480_206088">
<rect width="29" height="31" fill="white" transform="matrix(-1 0 0 -1 182 470)"/>
</clipPath>
<clipPath id="clip73_2480_206088">
<rect width="29" height="31" fill="white" transform="matrix(0 -1 1 0 126 495)"/>
</clipPath>
<clipPath id="clip74_2480_206088">
<rect width="29" height="31" fill="white" transform="matrix(0 1 -1 0 157 414)"/>
</clipPath>
<clipPath id="clip75_2480_206088">
<rect width="29" height="31" fill="white" transform="translate(0 439)"/>
</clipPath>
<clipPath id="clip76_2480_206088">
<rect width="29" height="31" fill="white" transform="matrix(-1 0 0 -1 81 470)"/>
</clipPath>
<clipPath id="clip77_2480_206088">
<rect width="29" height="31" fill="white" transform="matrix(0 -1 1 0 25 495)"/>
</clipPath>
<clipPath id="clip78_2480_206088">
<rect width="29" height="31" fill="white" transform="matrix(0 1 -1 0 56 414)"/>
</clipPath>
<clipPath id="clip79_2480_206088">
<rect width="29" height="31" fill="white" transform="translate(50 590)"/>
</clipPath>
<clipPath id="clip80_2480_206088">
<rect width="29" height="31" fill="white" transform="matrix(-1 0 0 -1 131 621)"/>
</clipPath>
<clipPath id="clip81_2480_206088">
<rect width="29" height="31" fill="white" transform="matrix(0 1 -1 0 106 565)"/>
</clipPath>
<clipPath id="clip82_2480_206088">
<rect width="29" height="31" fill="white" transform="translate(50 489)"/>
</clipPath>
<clipPath id="clip83_2480_206088">
<rect width="29" height="31" fill="white" transform="matrix(-1 0 0 -1 131 520)"/>
</clipPath>
<clipPath id="clip84_2480_206088">
<rect width="29" height="31" fill="white" transform="matrix(0 -1 1 0 75 545)"/>
</clipPath>
<clipPath id="clip85_2480_206088">
<rect width="29" height="31" fill="white" transform="matrix(0 1 -1 0 106 464)"/>
</clipPath>
<clipPath id="clip86_2480_206088">
<rect width="29" height="31" fill="white" transform="translate(101 540)"/>
</clipPath>
<clipPath id="clip87_2480_206088">
<rect width="29" height="31" fill="white" transform="matrix(-1 0 0 -1 182 571)"/>
</clipPath>
<clipPath id="clip88_2480_206088">
<rect width="29" height="31" fill="white" transform="matrix(0 -1 1 0 126 596)"/>
</clipPath>
<clipPath id="clip89_2480_206088">
<rect width="29" height="31" fill="white" transform="matrix(0 1 -1 0 157 515)"/>
</clipPath>
<clipPath id="clip90_2480_206088">
<rect width="29" height="31" fill="white" transform="translate(0 540)"/>
</clipPath>
<clipPath id="clip91_2480_206088">
<rect width="29" height="31" fill="white" transform="matrix(-1 0 0 -1 81 571)"/>
</clipPath>
<clipPath id="clip92_2480_206088">
<rect width="29" height="31" fill="white" transform="matrix(0 -1 1 0 25 596)"/>
</clipPath>
<clipPath id="clip93_2480_206088">
<rect width="29" height="31" fill="white" transform="matrix(0 1 -1 0 56 515)"/>
</clipPath>
</defs>
</svg>
