<svg width="384" height="100" viewBox="0 0 384 100" fill="none" xmlns="http://www.w3.org/2000/svg">
<g clip-path="url(#clip0_1959_361816)">
<path d="M77.5796 60.7021H74.1654L50.9652 60.6665C50.4343 60.6665 50 61.0941 50 61.6167V64.491C50 65.0137 50.4343 65.4412 50.9652 65.4412L69.3275 65.4769L63.4882 71.2256C63.0177 71.6888 62.9332 72.3658 63.3193 72.734L65.3823 74.765C65.7563 75.1333 66.444 75.062 66.9145 74.5988L78.581 63.1133C79.4738 62.2343 78.8464 60.7378 77.5796 60.7378V60.7021Z" fill="#F2F5FF"/>
<path d="M50.9652 58.3029L74.1654 58.2672H77.5796C78.8464 58.2672 79.4738 56.7588 78.581 55.8918L66.9145 44.4063C66.444 43.943 65.7563 43.8599 65.3823 44.24L63.3193 46.271C62.9453 46.6392 63.0177 47.3162 63.4882 47.7795L69.3275 53.5281L50.9652 53.5638C50.4343 53.5638 50 53.9914 50 54.514V57.3883C50 57.9109 50.4343 58.3385 50.9652 58.3385V58.3029Z" fill="#F2F5FF"/>
</g>
<g clip-path="url(#clip1_1959_361816)">
<path d="M103.42 58.2979H106.835L130.035 58.3335C130.566 58.3335 131 57.9059 131 57.3833V54.509C131 53.9863 130.566 53.5588 130.035 53.5588L111.673 53.5231L117.512 47.7744C117.982 47.3112 118.067 46.6342 117.681 46.266L115.618 44.235C115.244 43.8667 114.556 43.938 114.085 44.4012L102.419 55.8867C101.526 56.7657 102.154 58.2622 103.42 58.2622V58.2979Z" fill="#F2F5FF"/>
<path d="M130.035 60.6971L106.835 60.7328H103.42C102.154 60.7328 101.526 62.2412 102.419 63.1082L114.085 74.5937C114.556 75.057 115.244 75.1401 115.618 74.76L117.681 72.729C118.055 72.3608 117.982 71.6838 117.512 71.2205L111.673 65.4719L130.035 65.4362C130.566 65.4362 131 65.0086 131 64.486V61.6117C131 61.0891 130.566 60.6615 130.035 60.6615V60.6971Z" fill="#F2F5FF"/>
</g>
<g clip-path="url(#clip2_1959_361816)">
<path d="M91.7021 72.4204V75.8346L91.6665 99.0348C91.6665 99.5657 92.0941 100 92.6167 100H95.491C96.0137 100 96.4412 99.5657 96.4412 99.0348L96.4769 80.6725L102.226 86.5118C102.689 86.9823 103.366 87.0668 103.734 86.6807L105.765 84.6177C106.133 84.2437 106.062 83.556 105.599 83.0855L94.1133 71.419C93.2343 70.5262 91.7378 71.1536 91.7378 72.4204H91.7021Z" fill="#F2F5FF"/>
<path d="M89.3029 99.0348L89.2672 75.8346V72.4204C89.2672 71.1536 87.7588 70.5262 86.8918 71.419L75.4063 83.0855C74.943 83.556 74.8599 84.2437 75.24 84.6177L77.271 86.6807C77.6392 87.0547 78.3162 86.9823 78.7795 86.5118L84.5281 80.6725L84.5638 99.0348C84.5638 99.5657 84.9914 100 85.514 100H88.3883C88.9109 100 89.3385 99.5657 89.3385 99.0348H89.3029Z" fill="#F2F5FF"/>
</g>
<g clip-path="url(#clip3_1959_361816)">
<path d="M89.2979 46.5796V43.1654L89.3335 19.9652C89.3335 19.4343 88.9059 19 88.3833 19H85.509C84.9863 19 84.5588 19.4343 84.5588 19.9652L84.5231 38.3275L78.7744 32.4882C78.3112 32.0177 77.6342 31.9332 77.266 32.3193L75.235 34.3823C74.8667 34.7563 74.938 35.444 75.4012 35.9145L86.8867 47.581C87.7657 48.4738 89.2622 47.8464 89.2622 46.5796H89.2979Z" fill="#F2F5FF"/>
<path d="M91.6971 19.9652L91.7328 43.1654V46.5796C91.7328 47.8464 93.2412 48.4738 94.1082 47.581L105.594 35.9145C106.057 35.444 106.14 34.7563 105.76 34.3823L103.729 32.3193C103.361 31.9453 102.684 32.0177 102.221 32.4882L96.4719 38.3275L96.4362 19.9652C96.4362 19.4343 96.0086 19 95.486 19H92.6117C92.0891 19 91.6615 19.4343 91.6615 19.9652H91.6971Z" fill="#F2F5FF"/>
</g>
<g clip-path="url(#clip4_1959_361816)">
<path d="M128.58 10.7021H125.165L101.965 10.6665C101.434 10.6665 101 11.0941 101 11.6167V14.491C101 15.0137 101.434 15.4412 101.965 15.4412L120.327 15.4769L114.488 21.2256C114.018 21.6888 113.933 22.3658 114.319 22.734L116.382 24.765C116.756 25.1333 117.444 25.062 117.915 24.5988L129.581 13.1133C130.474 12.2343 129.846 10.7378 128.58 10.7378V10.7021Z" fill="#F2F5FF"/>
<path d="M101.965 8.30287L125.165 8.26724H128.58C129.846 8.26724 130.474 6.75881 129.581 5.89175L117.915 -5.59374C117.444 -6.05696 116.756 -6.1401 116.382 -5.76002L114.319 -3.72899C113.945 -3.36079 114.018 -2.68377 114.488 -2.22055L120.327 3.52813L101.965 3.56376C101.434 3.56376 101 3.99136 101 4.51396V7.3883C101 7.91091 101.434 8.3385 101.965 8.3385V8.30287Z" fill="#F2F5FF"/>
</g>
<g clip-path="url(#clip5_1959_361816)">
<path d="M154.42 8.29787H157.835L181.035 8.3335C181.566 8.3335 182 7.9059 182 7.3833V4.50896C182 3.98635 181.566 3.55876 181.035 3.55876L162.673 3.52313L168.512 -2.22556C168.982 -2.68878 169.067 -3.3658 168.681 -3.734L166.618 -5.76505C166.244 -6.13325 165.556 -6.06199 165.085 -5.59877L153.419 5.88673C152.526 6.76566 153.154 8.26222 154.42 8.26222V8.29787Z" fill="#F2F5FF"/>
<path d="M181.035 10.6971L157.835 10.7328H154.42C153.154 10.7328 152.526 12.2412 153.419 13.1082L165.085 24.5937C165.556 25.057 166.244 25.1401 166.618 24.76L168.681 22.729C169.055 22.3608 168.982 21.6838 168.512 21.2205L162.673 15.4719L181.035 15.4362C181.566 15.4362 182 15.0086 182 14.486V11.6117C182 11.0891 181.566 10.6615 181.035 10.6615V10.6971Z" fill="#F2F5FF"/>
</g>
<g clip-path="url(#clip6_1959_361816)">
<path d="M142.702 22.4204V25.8346L142.667 49.0348C142.667 49.5657 143.094 50 143.617 50H146.491C147.014 50 147.441 49.5657 147.441 49.0348L147.477 30.6725L153.226 36.5118C153.689 36.9823 154.366 37.0668 154.734 36.6807L156.765 34.6177C157.133 34.2437 157.062 33.556 156.599 33.0855L145.113 21.419C144.234 20.5262 142.738 21.1536 142.738 22.4204H142.702Z" fill="#F2F5FF"/>
<path d="M140.303 49.0348L140.267 25.8346V22.4204C140.267 21.1536 138.759 20.5262 137.892 21.419L126.406 33.0855C125.943 33.556 125.86 34.2437 126.24 34.6177L128.271 36.6807C128.639 37.0547 129.316 36.9823 129.779 36.5118L135.528 30.6725L135.564 49.0348C135.564 49.5657 135.991 50 136.514 50H139.388C139.911 50 140.339 49.5657 140.339 49.0348H140.303Z" fill="#F2F5FF"/>
</g>
<g clip-path="url(#clip7_1959_361816)">
<path d="M27.5796 10.7021H24.1654L0.96517 10.6665C0.434328 10.6665 0 11.0941 0 11.6167V14.491C0 15.0137 0.434328 15.4412 0.96517 15.4412L19.3275 15.4769L13.4882 21.2256C13.0177 21.6888 12.9332 22.3658 13.3193 22.734L15.3823 24.765C15.7563 25.1333 16.444 25.062 16.9145 24.5988L28.581 13.1133C29.4738 12.2343 28.8464 10.7378 27.5796 10.7378V10.7021Z" fill="#F2F5FF"/>
<path d="M0.96517 8.30287L24.1654 8.26724H27.5796C28.8464 8.26724 29.4738 6.75881 28.581 5.89175L16.9145 -5.59374C16.444 -6.05696 15.7563 -6.1401 15.3823 -5.76002L13.3193 -3.72899C12.9453 -3.36079 13.0177 -2.68377 13.4882 -2.22055L19.3275 3.52813L0.96517 3.56376C0.434328 3.56376 0 3.99136 0 4.51396V7.3883C0 7.91091 0.434328 8.3385 0.96517 8.3385V8.30287Z" fill="#F2F5FF"/>
</g>
<g clip-path="url(#clip8_1959_361816)">
<path d="M53.4204 8.29787H56.8346L80.0348 8.3335C80.5657 8.3335 81 7.9059 81 7.3833V4.50896C81 3.98635 80.5657 3.55876 80.0348 3.55876L61.6725 3.52313L67.5118 -2.22556C67.9823 -2.68878 68.0668 -3.3658 67.6807 -3.734L65.6177 -5.76505C65.2437 -6.13325 64.556 -6.06199 64.0855 -5.59877L52.419 5.88673C51.5262 6.76566 52.1536 8.26222 53.4204 8.26222V8.29787Z" fill="#F2F5FF"/>
<path d="M80.0348 10.6971L56.8346 10.7328H53.4204C52.1536 10.7328 51.5262 12.2412 52.419 13.1082L64.0855 24.5937C64.556 25.057 65.2437 25.1401 65.6177 24.76L67.6807 22.729C68.0547 22.3608 67.9823 21.6838 67.5118 21.2205L61.6725 15.4719L80.0348 15.4362C80.5657 15.4362 81 15.0086 81 14.486V11.6117C81 11.0891 80.5657 10.6615 80.0348 10.6615V10.6971Z" fill="#F2F5FF"/>
</g>
<g clip-path="url(#clip9_1959_361816)">
<path d="M41.7021 22.4204V25.8346L41.6665 49.0348C41.6665 49.5657 42.0941 50 42.6167 50H45.491C46.0137 50 46.4412 49.5657 46.4412 49.0348L46.4769 30.6725L52.2256 36.5118C52.6888 36.9823 53.3658 37.0668 53.734 36.6807L55.765 34.6177C56.1333 34.2437 56.062 33.556 55.5988 33.0855L44.1133 21.419C43.2343 20.5262 41.7378 21.1536 41.7378 22.4204H41.7021Z" fill="#F2F5FF"/>
<path d="M39.3029 49.0348L39.2672 25.8346V22.4204C39.2672 21.1536 37.7588 20.5262 36.8918 21.419L25.4063 33.0855C24.943 33.556 24.8599 34.2437 25.24 34.6177L27.271 36.6807C27.6392 37.0547 28.3162 36.9823 28.7795 36.5118L34.5281 30.6725L34.5638 49.0348C34.5638 49.5657 34.9914 50 35.514 50H38.3883C38.9109 50 39.3385 49.5657 39.3385 49.0348H39.3029Z" fill="#F2F5FF"/>
</g>
<g clip-path="url(#clip10_1959_361816)">
<path d="M178.58 60.7021H175.165L151.965 60.6665C151.434 60.6665 151 61.0941 151 61.6167V64.491C151 65.0137 151.434 65.4412 151.965 65.4412L170.327 65.4769L164.488 71.2256C164.018 71.6888 163.933 72.3658 164.319 72.734L166.382 74.765C166.756 75.1333 167.444 75.062 167.915 74.5988L179.581 63.1133C180.474 62.2343 179.846 60.7378 178.58 60.7378V60.7021Z" fill="#F2F5FF"/>
<path d="M151.965 58.3029L175.165 58.2672H178.58C179.846 58.2672 180.474 56.7588 179.581 55.8918L167.915 44.4063C167.444 43.943 166.756 43.8599 166.382 44.24L164.319 46.271C163.945 46.6392 164.018 47.3162 164.488 47.7795L170.327 53.5281L151.965 53.5638C151.434 53.5638 151 53.9914 151 54.514V57.3883C151 57.9109 151.434 58.3385 151.965 58.3385V58.3029Z" fill="#F2F5FF"/>
</g>
<g clip-path="url(#clip11_1959_361816)">
<path d="M204.42 58.2979H207.835L231.035 58.3335C231.566 58.3335 232 57.9059 232 57.3833V54.509C232 53.9863 231.566 53.5588 231.035 53.5588L212.673 53.5231L218.512 47.7744C218.982 47.3112 219.067 46.6342 218.681 46.266L216.618 44.235C216.244 43.8667 215.556 43.938 215.085 44.4012L203.419 55.8867C202.526 56.7657 203.154 58.2622 204.42 58.2622V58.2979Z" fill="#F2F5FF"/>
<path d="M231.035 60.6971L207.835 60.7328H204.42C203.154 60.7328 202.526 62.2412 203.419 63.1082L215.085 74.5937C215.556 75.057 216.244 75.1401 216.618 74.76L218.681 72.729C219.055 72.3608 218.982 71.6838 218.512 71.2205L212.673 65.4719L231.035 65.4362C231.566 65.4362 232 65.0086 232 64.486V61.6117C232 61.0891 231.566 60.6615 231.035 60.6615V60.6971Z" fill="#F2F5FF"/>
</g>
<g clip-path="url(#clip12_1959_361816)">
<path d="M192.702 72.4204V75.8346L192.667 99.0348C192.667 99.5657 193.094 100 193.617 100H196.491C197.014 100 197.441 99.5657 197.441 99.0348L197.477 80.6725L203.226 86.5118C203.689 86.9823 204.366 87.0668 204.734 86.6807L206.765 84.6177C207.133 84.2437 207.062 83.556 206.599 83.0855L195.113 71.419C194.234 70.5262 192.738 71.1536 192.738 72.4204H192.702Z" fill="#F2F5FF"/>
<path d="M190.303 99.0348L190.267 75.8346V72.4204C190.267 71.1536 188.759 70.5262 187.892 71.419L176.406 83.0855C175.943 83.556 175.86 84.2437 176.24 84.6177L178.271 86.6807C178.639 87.0547 179.316 86.9823 179.779 86.5118L185.528 80.6725L185.564 99.0348C185.564 99.5657 185.991 100 186.514 100H189.388C189.911 100 190.339 99.5657 190.339 99.0348H190.303Z" fill="#F2F5FF"/>
</g>
<g clip-path="url(#clip13_1959_361816)">
<path d="M190.298 46.5796V43.1654L190.333 19.9652C190.333 19.4343 189.906 19 189.383 19H186.509C185.986 19 185.559 19.4343 185.559 19.9652L185.523 38.3275L179.774 32.4882C179.311 32.0177 178.634 31.9332 178.266 32.3193L176.235 34.3823C175.867 34.7563 175.938 35.444 176.401 35.9145L187.887 47.581C188.766 48.4738 190.262 47.8464 190.262 46.5796H190.298Z" fill="#F2F5FF"/>
<path d="M192.697 19.9652L192.733 43.1654V46.5796C192.733 47.8464 194.241 48.4738 195.108 47.581L206.594 35.9145C207.057 35.444 207.14 34.7563 206.76 34.3823L204.729 32.3193C204.361 31.9453 203.684 32.0177 203.221 32.4882L197.472 38.3275L197.436 19.9652C197.436 19.4343 197.009 19 196.486 19H193.612C193.089 19 192.661 19.4343 192.661 19.9652H192.697Z" fill="#F2F5FF"/>
</g>
<g clip-path="url(#clip14_1959_361816)">
<path d="M229.58 10.7021H226.165L202.965 10.6665C202.434 10.6665 202 11.0941 202 11.6167V14.491C202 15.0137 202.434 15.4412 202.965 15.4412L221.327 15.4769L215.488 21.2256C215.018 21.6888 214.933 22.3658 215.319 22.734L217.382 24.765C217.756 25.1333 218.444 25.062 218.915 24.5988L230.581 13.1133C231.474 12.2343 230.846 10.7378 229.58 10.7378V10.7021Z" fill="#F2F5FF"/>
<path d="M202.965 8.30287L226.165 8.26724H229.58C230.846 8.26724 231.474 6.75881 230.581 5.89175L218.915 -5.59374C218.444 -6.05696 217.756 -6.1401 217.382 -5.76002L215.319 -3.72899C214.945 -3.36079 215.018 -2.68377 215.488 -2.22055L221.327 3.52813L202.965 3.56376C202.434 3.56376 202 3.99136 202 4.51396V7.3883C202 7.91091 202.434 8.3385 202.965 8.3385V8.30287Z" fill="#F2F5FF"/>
</g>
<g clip-path="url(#clip15_1959_361816)">
<path d="M255.42 8.29787H258.835L282.035 8.3335C282.566 8.3335 283 7.9059 283 7.3833V4.50896C283 3.98635 282.566 3.55876 282.035 3.55876L263.673 3.52313L269.512 -2.22556C269.982 -2.68878 270.067 -3.3658 269.681 -3.734L267.618 -5.76505C267.244 -6.13325 266.556 -6.06199 266.085 -5.59877L254.419 5.88673C253.526 6.76566 254.154 8.26222 255.42 8.26222V8.29787Z" fill="#F2F5FF"/>
<path d="M282.035 10.6971L258.835 10.7328H255.42C254.154 10.7328 253.526 12.2412 254.419 13.1082L266.085 24.5937C266.556 25.057 267.244 25.1401 267.618 24.76L269.681 22.729C270.055 22.3608 269.982 21.6838 269.512 21.2205L263.673 15.4719L282.035 15.4362C282.566 15.4362 283 15.0086 283 14.486V11.6117C283 11.0891 282.566 10.6615 282.035 10.6615V10.6971Z" fill="#F2F5FF"/>
</g>
<g clip-path="url(#clip16_1959_361816)">
<path d="M243.702 22.4204V25.8346L243.667 49.0348C243.667 49.5657 244.094 50 244.617 50H247.491C248.014 50 248.441 49.5657 248.441 49.0348L248.477 30.6725L254.226 36.5118C254.689 36.9823 255.366 37.0668 255.734 36.6807L257.765 34.6177C258.133 34.2437 258.062 33.556 257.599 33.0855L246.113 21.419C245.234 20.5262 243.738 21.1536 243.738 22.4204H243.702Z" fill="#F2F5FF"/>
<path d="M241.303 49.0348L241.267 25.8346V22.4204C241.267 21.1536 239.759 20.5262 238.892 21.419L227.406 33.0855C226.943 33.556 226.86 34.2437 227.24 34.6177L229.271 36.6807C229.639 37.0547 230.316 36.9823 230.779 36.5118L236.528 30.6725L236.564 49.0348C236.564 49.5657 236.991 50 237.514 50H240.388C240.911 50 241.339 49.5657 241.339 49.0348H241.303Z" fill="#F2F5FF"/>
</g>
<g clip-path="url(#clip17_1959_361816)">
<path d="M128.58 10.7021H125.165L101.965 10.6665C101.434 10.6665 101 11.0941 101 11.6167V14.491C101 15.0137 101.434 15.4412 101.965 15.4412L120.327 15.4769L114.488 21.2256C114.018 21.6888 113.933 22.3658 114.319 22.734L116.382 24.765C116.756 25.1333 117.444 25.062 117.915 24.5988L129.581 13.1133C130.474 12.2343 129.846 10.7378 128.58 10.7378V10.7021Z" fill="#F2F5FF"/>
<path d="M101.965 8.30287L125.165 8.26724H128.58C129.846 8.26724 130.474 6.75881 129.581 5.89175L117.915 -5.59374C117.444 -6.05696 116.756 -6.1401 116.382 -5.76002L114.319 -3.72899C113.945 -3.36079 114.018 -2.68377 114.488 -2.22055L120.327 3.52813L101.965 3.56376C101.434 3.56376 101 3.99136 101 4.51396V7.3883C101 7.91091 101.434 8.3385 101.965 8.3385V8.30287Z" fill="#F2F5FF"/>
</g>
<g clip-path="url(#clip18_1959_361816)">
<path d="M154.42 8.29787H157.835L181.035 8.3335C181.566 8.3335 182 7.9059 182 7.3833V4.50896C182 3.98635 181.566 3.55876 181.035 3.55876L162.673 3.52313L168.512 -2.22556C168.982 -2.68878 169.067 -3.3658 168.681 -3.734L166.618 -5.76505C166.244 -6.13325 165.556 -6.06199 165.085 -5.59877L153.419 5.88673C152.526 6.76566 153.154 8.26222 154.42 8.26222V8.29787Z" fill="#F2F5FF"/>
<path d="M181.035 10.6971L157.835 10.7328H154.42C153.154 10.7328 152.526 12.2412 153.419 13.1082L165.085 24.5937C165.556 25.057 166.244 25.1401 166.618 24.76L168.681 22.729C169.055 22.3608 168.982 21.6838 168.512 21.2205L162.673 15.4719L181.035 15.4362C181.566 15.4362 182 15.0086 182 14.486V11.6117C182 11.0891 181.566 10.6615 181.035 10.6615V10.6971Z" fill="#F2F5FF"/>
</g>
<g clip-path="url(#clip19_1959_361816)">
<path d="M142.702 22.4204V25.8346L142.667 49.0348C142.667 49.5657 143.094 50 143.617 50H146.491C147.014 50 147.441 49.5657 147.441 49.0348L147.477 30.6725L153.226 36.5118C153.689 36.9823 154.366 37.0668 154.734 36.6807L156.765 34.6177C157.133 34.2437 157.062 33.556 156.599 33.0855L145.113 21.419C144.234 20.5262 142.738 21.1536 142.738 22.4204H142.702Z" fill="#F2F5FF"/>
<path d="M140.303 49.0348L140.267 25.8346V22.4204C140.267 21.1536 138.759 20.5262 137.892 21.419L126.406 33.0855C125.943 33.556 125.86 34.2437 126.24 34.6177L128.271 36.6807C128.639 37.0547 129.316 36.9823 129.779 36.5118L135.528 30.6725L135.564 49.0348C135.564 49.5657 135.991 50 136.514 50H139.388C139.911 50 140.339 49.5657 140.339 49.0348H140.303Z" fill="#F2F5FF"/>
</g>
<g clip-path="url(#clip20_1959_361816)">
<path d="M279.58 60.7021H276.165L252.965 60.6665C252.434 60.6665 252 61.0941 252 61.6167V64.491C252 65.0137 252.434 65.4412 252.965 65.4412L271.327 65.4769L265.488 71.2256C265.018 71.6888 264.933 72.3658 265.319 72.734L267.382 74.765C267.756 75.1333 268.444 75.062 268.915 74.5988L280.581 63.1133C281.474 62.2343 280.846 60.7378 279.58 60.7378V60.7021Z" fill="#F2F5FF"/>
<path d="M252.965 58.3029L276.165 58.2672H279.58C280.846 58.2672 281.474 56.7588 280.581 55.8918L268.915 44.4063C268.444 43.943 267.756 43.8599 267.382 44.24L265.319 46.271C264.945 46.6392 265.018 47.3162 265.488 47.7795L271.327 53.5281L252.965 53.5638C252.434 53.5638 252 53.9914 252 54.514V57.3883C252 57.9109 252.434 58.3385 252.965 58.3385V58.3029Z" fill="#F2F5FF"/>
</g>
<g clip-path="url(#clip21_1959_361816)">
<path d="M305.42 58.2979H308.835L332.035 58.3335C332.566 58.3335 333 57.9059 333 57.3833V54.509C333 53.9863 332.566 53.5588 332.035 53.5588L313.673 53.5231L319.512 47.7744C319.982 47.3112 320.067 46.6342 319.681 46.266L317.618 44.235C317.244 43.8667 316.556 43.938 316.085 44.4012L304.419 55.8867C303.526 56.7657 304.154 58.2622 305.42 58.2622V58.2979Z" fill="#F2F5FF"/>
<path d="M332.035 60.6971L308.835 60.7328H305.42C304.154 60.7328 303.526 62.2412 304.419 63.1082L316.085 74.5937C316.556 75.057 317.244 75.1401 317.618 74.76L319.681 72.729C320.055 72.3608 319.982 71.6838 319.512 71.2205L313.673 65.4719L332.035 65.4362C332.566 65.4362 333 65.0086 333 64.486V61.6117C333 61.0891 332.566 60.6615 332.035 60.6615V60.6971Z" fill="#F2F5FF"/>
</g>
<g clip-path="url(#clip22_1959_361816)">
<path d="M293.702 72.4204V75.8346L293.667 99.0348C293.667 99.5657 294.094 100 294.617 100H297.491C298.014 100 298.441 99.5657 298.441 99.0348L298.477 80.6725L304.226 86.5118C304.689 86.9823 305.366 87.0668 305.734 86.6807L307.765 84.6177C308.133 84.2437 308.062 83.556 307.599 83.0855L296.113 71.419C295.234 70.5262 293.738 71.1536 293.738 72.4204H293.702Z" fill="#F2F5FF"/>
<path d="M291.303 99.0348L291.267 75.8346V72.4204C291.267 71.1536 289.759 70.5262 288.892 71.419L277.406 83.0855C276.943 83.556 276.86 84.2437 277.24 84.6177L279.271 86.6807C279.639 87.0547 280.316 86.9823 280.779 86.5118L286.528 80.6725L286.564 99.0348C286.564 99.5657 286.991 100 287.514 100H290.388C290.911 100 291.339 99.5657 291.339 99.0348H291.303Z" fill="#F2F5FF"/>
</g>
<g clip-path="url(#clip23_1959_361816)">
<path d="M291.298 46.5796V43.1654L291.333 19.9652C291.333 19.4343 290.906 19 290.383 19H287.509C286.986 19 286.559 19.4343 286.559 19.9652L286.523 38.3275L280.774 32.4882C280.311 32.0177 279.634 31.9332 279.266 32.3193L277.235 34.3823C276.867 34.7563 276.938 35.444 277.401 35.9145L288.887 47.581C289.766 48.4738 291.262 47.8464 291.262 46.5796H291.298Z" fill="#F2F5FF"/>
<path d="M293.697 19.9652L293.733 43.1654V46.5796C293.733 47.8464 295.241 48.4738 296.108 47.581L307.594 35.9145C308.057 35.444 308.14 34.7563 307.76 34.3823L305.729 32.3193C305.361 31.9453 304.684 32.0177 304.221 32.4882L298.472 38.3275L298.436 19.9652C298.436 19.4343 298.009 19 297.486 19H294.612C294.089 19 293.661 19.4343 293.661 19.9652H293.697Z" fill="#F2F5FF"/>
</g>
<g clip-path="url(#clip24_1959_361816)">
<path d="M330.58 10.7021H327.165L303.965 10.6665C303.434 10.6665 303 11.0941 303 11.6167V14.491C303 15.0137 303.434 15.4412 303.965 15.4412L322.327 15.4769L316.488 21.2256C316.018 21.6888 315.933 22.3658 316.319 22.734L318.382 24.765C318.756 25.1333 319.444 25.062 319.915 24.5988L331.581 13.1133C332.474 12.2343 331.846 10.7378 330.58 10.7378V10.7021Z" fill="#F2F5FF"/>
<path d="M303.965 8.30287L327.165 8.26724H330.58C331.846 8.26724 332.474 6.75881 331.581 5.89175L319.915 -5.59374C319.444 -6.05696 318.756 -6.1401 318.382 -5.76002L316.319 -3.72899C315.945 -3.36079 316.018 -2.68377 316.488 -2.22055L322.327 3.52813L303.965 3.56376C303.434 3.56376 303 3.99136 303 4.51396V7.3883C303 7.91091 303.434 8.3385 303.965 8.3385V8.30287Z" fill="#F2F5FF"/>
</g>
<g clip-path="url(#clip25_1959_361816)">
<path d="M356.42 8.29787H359.835L383.035 8.3335C383.566 8.3335 384 7.9059 384 7.3833V4.50896C384 3.98635 383.566 3.55876 383.035 3.55876L364.673 3.52313L370.512 -2.22556C370.982 -2.68878 371.067 -3.3658 370.681 -3.734L368.618 -5.76505C368.244 -6.13325 367.556 -6.06199 367.085 -5.59877L355.419 5.88673C354.526 6.76566 355.154 8.26222 356.42 8.26222V8.29787Z" fill="#F2F5FF"/>
<path d="M383.035 10.6971L359.835 10.7328H356.42C355.154 10.7328 354.526 12.2412 355.419 13.1082L367.085 24.5937C367.556 25.057 368.244 25.1401 368.618 24.76L370.681 22.729C371.055 22.3608 370.982 21.6838 370.512 21.2205L364.673 15.4719L383.035 15.4362C383.566 15.4362 384 15.0086 384 14.486V11.6117C384 11.0891 383.566 10.6615 383.035 10.6615V10.6971Z" fill="#F2F5FF"/>
</g>
<g clip-path="url(#clip26_1959_361816)">
<path d="M344.702 22.4204V25.8346L344.667 49.0348C344.667 49.5657 345.094 50 345.617 50H348.491C349.014 50 349.441 49.5657 349.441 49.0348L349.477 30.6725L355.226 36.5118C355.689 36.9823 356.366 37.0668 356.734 36.6807L358.765 34.6177C359.133 34.2437 359.062 33.556 358.599 33.0855L347.113 21.419C346.234 20.5262 344.738 21.1536 344.738 22.4204H344.702Z" fill="#F2F5FF"/>
<path d="M342.303 49.0348L342.267 25.8346V22.4204C342.267 21.1536 340.759 20.5262 339.892 21.419L328.406 33.0855C327.943 33.556 327.86 34.2437 328.24 34.6177L330.271 36.6807C330.639 37.0547 331.316 36.9823 331.779 36.5118L337.528 30.6725L337.564 49.0348C337.564 49.5657 337.991 50 338.514 50H341.388C341.911 50 342.339 49.5657 342.339 49.0348H342.303Z" fill="#F2F5FF"/>
</g>
<g clip-path="url(#clip27_1959_361816)">
<path d="M229.58 10.7021H226.165L202.965 10.6665C202.434 10.6665 202 11.0941 202 11.6167V14.491C202 15.0137 202.434 15.4412 202.965 15.4412L221.327 15.4769L215.488 21.2256C215.018 21.6888 214.933 22.3658 215.319 22.734L217.382 24.765C217.756 25.1333 218.444 25.062 218.915 24.5988L230.581 13.1133C231.474 12.2343 230.846 10.7378 229.58 10.7378V10.7021Z" fill="#F2F5FF"/>
<path d="M202.965 8.30287L226.165 8.26724H229.58C230.846 8.26724 231.474 6.75881 230.581 5.89175L218.915 -5.59374C218.444 -6.05696 217.756 -6.1401 217.382 -5.76002L215.319 -3.72899C214.945 -3.36079 215.018 -2.68377 215.488 -2.22055L221.327 3.52813L202.965 3.56376C202.434 3.56376 202 3.99136 202 4.51396V7.3883C202 7.91091 202.434 8.3385 202.965 8.3385V8.30287Z" fill="#F2F5FF"/>
</g>
<g clip-path="url(#clip28_1959_361816)">
<path d="M255.42 8.29787H258.835L282.035 8.3335C282.566 8.3335 283 7.9059 283 7.3833V4.50896C283 3.98635 282.566 3.55876 282.035 3.55876L263.673 3.52313L269.512 -2.22556C269.982 -2.68878 270.067 -3.3658 269.681 -3.734L267.618 -5.76505C267.244 -6.13325 266.556 -6.06199 266.085 -5.59877L254.419 5.88673C253.526 6.76566 254.154 8.26222 255.42 8.26222V8.29787Z" fill="#F2F5FF"/>
<path d="M282.035 10.6971L258.835 10.7328H255.42C254.154 10.7328 253.526 12.2412 254.419 13.1082L266.085 24.5937C266.556 25.057 267.244 25.1401 267.618 24.76L269.681 22.729C270.055 22.3608 269.982 21.6838 269.512 21.2205L263.673 15.4719L282.035 15.4362C282.566 15.4362 283 15.0086 283 14.486V11.6117C283 11.0891 282.566 10.6615 282.035 10.6615V10.6971Z" fill="#F2F5FF"/>
</g>
<g clip-path="url(#clip29_1959_361816)">
<path d="M243.702 22.4204V25.8346L243.667 49.0348C243.667 49.5657 244.094 50 244.617 50H247.491C248.014 50 248.441 49.5657 248.441 49.0348L248.477 30.6725L254.226 36.5118C254.689 36.9823 255.366 37.0668 255.734 36.6807L257.765 34.6177C258.133 34.2437 258.062 33.556 257.599 33.0855L246.113 21.419C245.234 20.5262 243.738 21.1536 243.738 22.4204H243.702Z" fill="#F2F5FF"/>
<path d="M241.303 49.0348L241.267 25.8346V22.4204C241.267 21.1536 239.759 20.5262 238.892 21.419L227.406 33.0855C226.943 33.556 226.86 34.2437 227.24 34.6177L229.271 36.6807C229.639 37.0547 230.316 36.9823 230.779 36.5118L236.528 30.6725L236.564 49.0348C236.564 49.5657 236.991 50 237.514 50H240.388C240.911 50 241.339 49.5657 241.339 49.0348H241.303Z" fill="#F2F5FF"/>
</g>
<defs>
<clipPath id="clip0_1959_361816">
<rect width="29" height="31" fill="white" transform="translate(50 44)"/>
</clipPath>
<clipPath id="clip1_1959_361816">
<rect width="29" height="31" fill="white" transform="matrix(-1 0 0 -1 131 75)"/>
</clipPath>
<clipPath id="clip2_1959_361816">
<rect width="29" height="31" fill="white" transform="matrix(0 -1 1 0 75 100)"/>
</clipPath>
<clipPath id="clip3_1959_361816">
<rect width="29" height="31" fill="white" transform="matrix(0 1 -1 0 106 19)"/>
</clipPath>
<clipPath id="clip4_1959_361816">
<rect width="29" height="31" fill="white" transform="translate(101 -6)"/>
</clipPath>
<clipPath id="clip5_1959_361816">
<rect width="29" height="31" fill="white" transform="matrix(-1 0 0 -1 182 25)"/>
</clipPath>
<clipPath id="clip6_1959_361816">
<rect width="29" height="31" fill="white" transform="matrix(0 -1 1 0 126 50)"/>
</clipPath>
<clipPath id="clip7_1959_361816">
<rect width="29" height="31" fill="white" transform="translate(0 -6)"/>
</clipPath>
<clipPath id="clip8_1959_361816">
<rect width="29" height="31" fill="white" transform="matrix(-1 0 0 -1 81 25)"/>
</clipPath>
<clipPath id="clip9_1959_361816">
<rect width="29" height="31" fill="white" transform="matrix(0 -1 1 0 25 50)"/>
</clipPath>
<clipPath id="clip10_1959_361816">
<rect width="29" height="31" fill="white" transform="translate(151 44)"/>
</clipPath>
<clipPath id="clip11_1959_361816">
<rect width="29" height="31" fill="white" transform="matrix(-1 0 0 -1 232 75)"/>
</clipPath>
<clipPath id="clip12_1959_361816">
<rect width="29" height="31" fill="white" transform="matrix(0 -1 1 0 176 100)"/>
</clipPath>
<clipPath id="clip13_1959_361816">
<rect width="29" height="31" fill="white" transform="matrix(0 1 -1 0 207 19)"/>
</clipPath>
<clipPath id="clip14_1959_361816">
<rect width="29" height="31" fill="white" transform="translate(202 -6)"/>
</clipPath>
<clipPath id="clip15_1959_361816">
<rect width="29" height="31" fill="white" transform="matrix(-1 0 0 -1 283 25)"/>
</clipPath>
<clipPath id="clip16_1959_361816">
<rect width="29" height="31" fill="white" transform="matrix(0 -1 1 0 227 50)"/>
</clipPath>
<clipPath id="clip17_1959_361816">
<rect width="29" height="31" fill="white" transform="translate(101 -6)"/>
</clipPath>
<clipPath id="clip18_1959_361816">
<rect width="29" height="31" fill="white" transform="matrix(-1 0 0 -1 182 25)"/>
</clipPath>
<clipPath id="clip19_1959_361816">
<rect width="29" height="31" fill="white" transform="matrix(0 -1 1 0 126 50)"/>
</clipPath>
<clipPath id="clip20_1959_361816">
<rect width="29" height="31" fill="white" transform="translate(252 44)"/>
</clipPath>
<clipPath id="clip21_1959_361816">
<rect width="29" height="31" fill="white" transform="matrix(-1 0 0 -1 333 75)"/>
</clipPath>
<clipPath id="clip22_1959_361816">
<rect width="29" height="31" fill="white" transform="matrix(0 -1 1 0 277 100)"/>
</clipPath>
<clipPath id="clip23_1959_361816">
<rect width="29" height="31" fill="white" transform="matrix(0 1 -1 0 308 19)"/>
</clipPath>
<clipPath id="clip24_1959_361816">
<rect width="29" height="31" fill="white" transform="translate(303 -6)"/>
</clipPath>
<clipPath id="clip25_1959_361816">
<rect width="29" height="31" fill="white" transform="matrix(-1 0 0 -1 384 25)"/>
</clipPath>
<clipPath id="clip26_1959_361816">
<rect width="29" height="31" fill="white" transform="matrix(0 -1 1 0 328 50)"/>
</clipPath>
<clipPath id="clip27_1959_361816">
<rect width="29" height="31" fill="white" transform="translate(202 -6)"/>
</clipPath>
<clipPath id="clip28_1959_361816">
<rect width="29" height="31" fill="white" transform="matrix(-1 0 0 -1 283 25)"/>
</clipPath>
<clipPath id="clip29_1959_361816">
<rect width="29" height="31" fill="white" transform="matrix(0 -1 1 0 227 50)"/>
</clipPath>
</defs>
</svg>
