<svg width="152" height="111" viewBox="0 0 152 111" fill="none" xmlns="http://www.w3.org/2000/svg">
<g clip-path="url(#clip0_1959_580894)">
<path d="M47.5796 71.7021H44.1654L20.9652 71.6665C20.4343 71.6665 20 72.0941 20 72.6167V75.491C20 76.0137 20.4343 76.4412 20.9652 76.4412L39.3275 76.4769L33.4882 82.2256C33.0177 82.6888 32.9332 83.3658 33.3193 83.734L35.3823 85.765C35.7563 86.1333 36.444 86.062 36.9145 85.5988L48.581 74.1133C49.4738 73.2343 48.8464 71.7378 47.5796 71.7378V71.7021Z" fill="#F2F5FF"/>
<path d="M20.9652 69.3029L44.1654 69.2672H47.5796C48.8464 69.2672 49.4738 67.7588 48.581 66.8918L36.9145 55.4063C36.444 54.943 35.7563 54.8599 35.3823 55.24L33.3193 57.271C32.9453 57.6392 33.0177 58.3162 33.4882 58.7795L39.3275 64.5281L20.9652 64.5638C20.4343 64.5638 20 64.9914 20 65.514V68.3883C20 68.9109 20.4343 69.3385 20.9652 69.3385V69.3029Z" fill="#F2F5FF"/>
</g>
<g clip-path="url(#clip1_1959_580894)">
<path d="M73.4204 69.2979H76.8346L100.035 69.3335C100.566 69.3335 101 68.9059 101 68.3833V65.509C101 64.9863 100.566 64.5588 100.035 64.5588L81.6725 64.5231L87.5118 58.7744C87.9823 58.3112 88.0668 57.6342 87.6807 57.266L85.6177 55.235C85.2437 54.8667 84.556 54.938 84.0855 55.4012L72.419 66.8867C71.5262 67.7657 72.1536 69.2622 73.4204 69.2622V69.2979Z" fill="#F2F5FF"/>
<path d="M100.035 71.6971L76.8346 71.7328H73.4204C72.1536 71.7328 71.5262 73.2412 72.419 74.1082L84.0855 85.5937C84.556 86.057 85.2437 86.1401 85.6177 85.76L87.6807 83.729C88.0547 83.3608 87.9823 82.6838 87.5118 82.2205L81.6725 76.4719L100.035 76.4362C100.566 76.4362 101 76.0086 101 75.486V72.6117C101 72.0891 100.566 71.6615 100.035 71.6615V71.6971Z" fill="#F2F5FF"/>
</g>
<g clip-path="url(#clip2_1959_580894)">
<path d="M61.7021 83.4204V86.8346L61.6665 110.035C61.6665 110.566 62.0941 111 62.6167 111H65.491C66.0137 111 66.4412 110.566 66.4412 110.035L66.4769 91.6725L72.2256 97.5118C72.6888 97.9823 73.3658 98.0668 73.734 97.6807L75.765 95.6177C76.1333 95.2437 76.062 94.556 75.5988 94.0855L64.1133 82.419C63.2343 81.5262 61.7378 82.1536 61.7378 83.4204H61.7021Z" fill="#F2F5FF"/>
<path d="M59.3029 110.035L59.2672 86.8346V83.4204C59.2672 82.1536 57.7588 81.5262 56.8918 82.419L45.4063 94.0855C44.943 94.556 44.8599 95.2437 45.24 95.6177L47.271 97.6807C47.6392 98.0547 48.3162 97.9823 48.7795 97.5118L54.5281 91.6725L54.5638 110.035C54.5638 110.566 54.9914 111 55.514 111H58.3883C58.9109 111 59.3385 110.566 59.3385 110.035H59.3029Z" fill="#F2F5FF"/>
</g>
<g clip-path="url(#clip3_1959_580894)">
<path d="M59.2979 57.5796V54.1654L59.3335 30.9652C59.3335 30.4343 58.9059 30 58.3833 30H55.509C54.9863 30 54.5588 30.4343 54.5588 30.9652L54.5231 49.3275L48.7744 43.4882C48.3112 43.0177 47.6342 42.9332 47.266 43.3193L45.235 45.3823C44.8667 45.7563 44.938 46.444 45.4012 46.9145L56.8867 58.581C57.7657 59.4738 59.2622 58.8464 59.2622 57.5796H59.2979Z" fill="#F2F5FF"/>
<path d="M61.6971 30.9652L61.7328 54.1654V57.5796C61.7328 58.8464 63.2412 59.4738 64.1082 58.581L75.5937 46.9145C76.057 46.444 76.1401 45.7563 75.76 45.3823L73.729 43.3193C73.3608 42.9453 72.6838 43.0177 72.2205 43.4882L66.4719 49.3275L66.4362 30.9652C66.4362 30.4343 66.0086 30 65.486 30H62.6117C62.0891 30 61.6615 30.4343 61.6615 30.9652H61.6971Z" fill="#F2F5FF"/>
</g>
<g clip-path="url(#clip4_1959_580894)">
<path d="M61.7021 -17.5796V-14.1654L61.6665 9.03483C61.6665 9.56567 62.0941 10 62.6167 10H65.491C66.0137 10 66.4412 9.56567 66.4412 9.03483L66.4769 -9.32746L72.2256 -3.48821C72.6888 -3.01769 73.3658 -2.93324 73.734 -3.3193L75.765 -5.38233C76.1333 -5.75634 76.062 -6.44402 75.5988 -6.91454L64.1133 -18.581C63.2343 -19.4738 61.7378 -18.8464 61.7378 -17.5796H61.7021Z" fill="#F2F5FF"/>
<path d="M59.3029 9.03483L59.2672 -14.1654V-17.5796C59.2672 -18.8464 57.7588 -19.4738 56.8918 -18.581L45.4063 -6.91454C44.943 -6.44402 44.8599 -5.75634 45.24 -5.38233L47.271 -3.3193C47.6392 -2.9453 48.3162 -3.01769 48.7795 -3.48821L54.5281 -9.32746L54.5638 9.03483C54.5638 9.56567 54.9914 10 55.514 10H58.3883C58.9109 10 59.3385 9.56567 59.3385 9.03483H59.3029Z" fill="#F2F5FF"/>
</g>
<g clip-path="url(#clip5_1959_580894)">
<path d="M98.5796 21.7021H95.1654L71.9652 21.6665C71.4343 21.6665 71 22.0941 71 22.6167V25.491C71 26.0137 71.4343 26.4412 71.9652 26.4412L90.3275 26.4769L84.4882 32.2256C84.0177 32.6888 83.9332 33.3658 84.3193 33.734L86.3823 35.765C86.7563 36.1333 87.444 36.062 87.9145 35.5988L99.581 24.1133C100.474 23.2343 99.8464 21.7378 98.5796 21.7378V21.7021Z" fill="#F2F5FF"/>
<path d="M71.9652 19.3029L95.1654 19.2672H98.5796C99.8464 19.2672 100.474 17.7588 99.581 16.8918L87.9145 5.40626C87.444 4.94304 86.7563 4.8599 86.3823 5.23998L84.3193 7.27101C83.9453 7.63921 84.0177 8.31623 84.4882 8.77945L90.3275 14.5281L71.9652 14.5638C71.4343 14.5638 71 14.9914 71 15.514V18.3883C71 18.9109 71.4343 19.3385 71.9652 19.3385V19.3029Z" fill="#F2F5FF"/>
</g>
<g clip-path="url(#clip6_1959_580894)">
<path d="M124.42 19.2979H127.835L151.035 19.3335C151.566 19.3335 152 18.9059 152 18.3833V15.509C152 14.9863 151.566 14.5588 151.035 14.5588L132.673 14.5231L138.512 8.77444C138.982 8.31122 139.067 7.6342 138.681 7.266L136.618 5.23495C136.244 4.86675 135.556 4.93801 135.085 5.40123L123.419 16.8867C122.526 17.7657 123.154 19.2622 124.42 19.2622V19.2979Z" fill="#F2F5FF"/>
<path d="M151.035 21.6971L127.835 21.7328H124.42C123.154 21.7328 122.526 23.2412 123.419 24.1082L135.085 35.5937C135.556 36.057 136.244 36.1401 136.618 35.76L138.681 33.729C139.055 33.3608 138.982 32.6838 138.512 32.2205L132.673 26.4719L151.035 26.4362C151.566 26.4362 152 26.0086 152 25.486V22.6117C152 22.0891 151.566 21.6615 151.035 21.6615V21.6971Z" fill="#F2F5FF"/>
</g>
<g clip-path="url(#clip7_1959_580894)">
<path d="M112.702 33.4204V36.8346L112.667 60.0348C112.667 60.5657 113.094 61 113.617 61H116.491C117.014 61 117.441 60.5657 117.441 60.0348L117.477 41.6725L123.226 47.5118C123.689 47.9823 124.366 48.0668 124.734 47.6807L126.765 45.6177C127.133 45.2437 127.062 44.556 126.599 44.0855L115.113 32.419C114.234 31.5262 112.738 32.1536 112.738 33.4204H112.702Z" fill="#F2F5FF"/>
<path d="M110.303 60.0348L110.267 36.8346V33.4204C110.267 32.1536 108.759 31.5262 107.892 32.419L96.4063 44.0855C95.943 44.556 95.8599 45.2437 96.24 45.6177L98.271 47.6807C98.6392 48.0547 99.3162 47.9823 99.7795 47.5118L105.528 41.6725L105.564 60.0348C105.564 60.5657 105.991 61 106.514 61H109.388C109.911 61 110.339 60.5657 110.339 60.0348H110.303Z" fill="#F2F5FF"/>
</g>
<g clip-path="url(#clip8_1959_580894)">
<path d="M110.298 7.57962V4.16536L110.333 -19.0348C110.333 -19.5657 109.906 -20 109.383 -20H106.509C105.986 -20 105.559 -19.5657 105.559 -19.0348L105.523 -0.672544L99.7744 -6.51179C99.3112 -6.98231 98.6342 -7.06676 98.266 -6.6807L96.235 -4.61767C95.8667 -4.24366 95.938 -3.55598 96.4012 -3.08546L107.887 8.581C108.766 9.47378 110.262 8.8464 110.262 7.57962H110.298Z" fill="#F2F5FF"/>
<path d="M112.697 -19.0348L112.733 4.16536V7.57962C112.733 8.8464 114.241 9.47378 115.108 8.581L126.594 -3.08546C127.057 -3.55598 127.14 -4.24366 126.76 -4.61767L124.729 -6.6807C124.361 -7.0547 123.684 -6.98231 123.221 -6.51179L117.472 -0.672544L117.436 -19.0348C117.436 -19.5657 117.009 -20 116.486 -20H113.612C113.089 -20 112.661 -19.5657 112.661 -19.0348H112.697Z" fill="#F2F5FF"/>
</g>
<g clip-path="url(#clip9_1959_580894)">
<path d="M23.4204 19.2979H26.8346L50.0348 19.3335C50.5657 19.3335 51 18.9059 51 18.3833V15.509C51 14.9863 50.5657 14.5588 50.0348 14.5588L31.6725 14.5231L37.5118 8.77444C37.9823 8.31122 38.0668 7.6342 37.6807 7.266L35.6177 5.23495C35.2437 4.86675 34.556 4.93801 34.0855 5.40123L22.419 16.8867C21.5262 17.7657 22.1536 19.2622 23.4204 19.2622V19.2979Z" fill="#F2F5FF"/>
<path d="M50.0348 21.6971L26.8346 21.7328H23.4204C22.1536 21.7328 21.5262 23.2412 22.419 24.1082L34.0855 35.5937C34.556 36.057 35.2437 36.1401 35.6177 35.76L37.6807 33.729C38.0547 33.3608 37.9823 32.6838 37.5118 32.2205L31.6725 26.4719L50.0348 26.4362C50.5657 26.4362 51 26.0086 51 25.486V22.6117C51 22.0891 50.5657 21.6615 50.0348 21.6615V21.6971Z" fill="#F2F5FF"/>
</g>
<g clip-path="url(#clip10_1959_580894)">
<path d="M11.7021 33.4204V36.8346L11.6665 60.0348C11.6665 60.5657 12.0941 61 12.6167 61H15.491C16.0137 61 16.4412 60.5657 16.4412 60.0348L16.4769 41.6725L22.2256 47.5118C22.6888 47.9823 23.3658 48.0668 23.734 47.6807L25.765 45.6177C26.1333 45.2437 26.062 44.556 25.5988 44.0855L14.1133 32.419C13.2343 31.5262 11.7378 32.1536 11.7378 33.4204H11.7021Z" fill="#F2F5FF"/>
<path d="M9.30287 60.0348L9.26724 36.8346V33.4204C9.26724 32.1536 7.75881 31.5262 6.89175 32.419L-4.59374 44.0855C-5.05696 44.556 -5.1401 45.2437 -4.76002 45.6177L-2.72899 47.6807C-2.36079 48.0547 -1.68377 47.9823 -1.22055 47.5118L4.52813 41.6725L4.56376 60.0348C4.56376 60.5657 4.99136 61 5.51396 61H8.3883C8.91091 61 9.3385 60.5657 9.3385 60.0348H9.30287Z" fill="#F2F5FF"/>
</g>
<g clip-path="url(#clip11_1959_580894)">
<path d="M9.29787 7.57962V4.16536L9.3335 -19.0348C9.3335 -19.5657 8.9059 -20 8.3833 -20H5.50896C4.98635 -20 4.55876 -19.5657 4.55876 -19.0348L4.52313 -0.672544L-1.22556 -6.51179C-1.68878 -6.98231 -2.3658 -7.06676 -2.734 -6.6807L-4.76505 -4.61767C-5.13325 -4.24366 -5.06199 -3.55598 -4.59877 -3.08546L6.88673 8.581C7.76566 9.47378 9.26222 8.8464 9.26222 7.57962H9.29787Z" fill="#F2F5FF"/>
<path d="M11.6971 -19.0348L11.7328 4.16536V7.57962C11.7328 8.8464 13.2412 9.47378 14.1082 8.581L25.5937 -3.08546C26.057 -3.55598 26.1401 -4.24366 25.76 -4.61767L23.729 -6.6807C23.3608 -7.0547 22.6838 -6.98231 22.2205 -6.51179L16.4719 -0.672544L16.4362 -19.0348C16.4362 -19.5657 16.0086 -20 15.486 -20H12.6117C12.0891 -20 11.6615 -19.5657 11.6615 -19.0348H11.6971Z" fill="#F2F5FF"/>
</g>
<defs>
<clipPath id="clip0_1959_580894">
<rect width="29" height="31" fill="white" transform="translate(20 55)"/>
</clipPath>
<clipPath id="clip1_1959_580894">
<rect width="29" height="31" fill="white" transform="matrix(-1 0 0 -1 101 86)"/>
</clipPath>
<clipPath id="clip2_1959_580894">
<rect width="29" height="31" fill="white" transform="matrix(0 -1 1 0 45 111)"/>
</clipPath>
<clipPath id="clip3_1959_580894">
<rect width="29" height="31" fill="white" transform="matrix(0 1 -1 0 76 30)"/>
</clipPath>
<clipPath id="clip4_1959_580894">
<rect width="29" height="31" fill="white" transform="matrix(0 -1 1 0 45 10)"/>
</clipPath>
<clipPath id="clip5_1959_580894">
<rect width="29" height="31" fill="white" transform="translate(71 5)"/>
</clipPath>
<clipPath id="clip6_1959_580894">
<rect width="29" height="31" fill="white" transform="matrix(-1 0 0 -1 152 36)"/>
</clipPath>
<clipPath id="clip7_1959_580894">
<rect width="29" height="31" fill="white" transform="matrix(0 -1 1 0 96 61)"/>
</clipPath>
<clipPath id="clip8_1959_580894">
<rect width="29" height="31" fill="white" transform="matrix(0 1 -1 0 127 -20)"/>
</clipPath>
<clipPath id="clip9_1959_580894">
<rect width="29" height="31" fill="white" transform="matrix(-1 0 0 -1 51 36)"/>
</clipPath>
<clipPath id="clip10_1959_580894">
<rect width="29" height="31" fill="white" transform="matrix(0 -1 1 0 -5 61)"/>
</clipPath>
<clipPath id="clip11_1959_580894">
<rect width="29" height="31" fill="white" transform="matrix(0 1 -1 0 26 -20)"/>
</clipPath>
</defs>
</svg>
