<svg width="182" height="141" viewBox="0 0 182 141" fill="none" xmlns="http://www.w3.org/2000/svg">
<g clip-path="url(#clip0_2480_206089)">
<path d="M77.5796 101.702H74.1654L50.9652 101.667C50.4343 101.667 50 102.094 50 102.617V105.491C50 106.014 50.4343 106.441 50.9652 106.441L69.3275 106.477L63.4882 112.226C63.0177 112.689 62.9332 113.366 63.3193 113.734L65.3823 115.765C65.7563 116.133 66.444 116.062 66.9145 115.599L78.581 104.113C79.4738 103.234 78.8464 101.738 77.5796 101.738V101.702Z" fill="#F2F5FF"/>
<path d="M50.9652 99.3029L74.1654 99.2672H77.5796C78.8464 99.2672 79.4738 97.7588 78.581 96.8918L66.9145 85.4063C66.444 84.943 65.7563 84.8599 65.3823 85.24L63.3193 87.271C62.9453 87.6392 63.0177 88.3162 63.4882 88.7795L69.3275 94.5281L50.9652 94.5638C50.4343 94.5638 50 94.9914 50 95.514V98.3883C50 98.9109 50.4343 99.3385 50.9652 99.3385V99.3029Z" fill="#F2F5FF"/>
</g>
<g clip-path="url(#clip1_2480_206089)">
<path d="M103.42 99.2979H106.835L130.035 99.3335C130.566 99.3335 131 98.9059 131 98.3833V95.509C131 94.9863 130.566 94.5588 130.035 94.5588L111.673 94.5231L117.512 88.7744C117.982 88.3112 118.067 87.6342 117.681 87.266L115.618 85.235C115.244 84.8667 114.556 84.938 114.085 85.4012L102.419 96.8867C101.526 97.7657 102.154 99.2622 103.42 99.2622V99.2979Z" fill="#F2F5FF"/>
<path d="M130.035 101.697L106.835 101.733H103.42C102.154 101.733 101.526 103.241 102.419 104.108L114.085 115.594C114.556 116.057 115.244 116.14 115.618 115.76L117.681 113.729C118.055 113.361 117.982 112.684 117.512 112.221L111.673 106.472L130.035 106.436C130.566 106.436 131 106.009 131 105.486V102.612C131 102.089 130.566 101.661 130.035 101.661V101.697Z" fill="#F2F5FF"/>
</g>
<g clip-path="url(#clip2_2480_206089)">
<path d="M91.7021 113.42V116.835L91.6665 140.035C91.6665 140.566 92.0941 141 92.6167 141H95.491C96.0137 141 96.4412 140.566 96.4412 140.035L96.4769 121.673L102.226 127.512C102.689 127.982 103.366 128.067 103.734 127.681L105.765 125.618C106.133 125.244 106.062 124.556 105.599 124.085L94.1133 112.419C93.2343 111.526 91.7378 112.154 91.7378 113.42H91.7021Z" fill="#F2F5FF"/>
<path d="M89.3029 140.035L89.2672 116.835V113.42C89.2672 112.154 87.7588 111.526 86.8918 112.419L75.4063 124.085C74.943 124.556 74.8599 125.244 75.24 125.618L77.271 127.681C77.6392 128.055 78.3162 127.982 78.7795 127.512L84.5281 121.673L84.5638 140.035C84.5638 140.566 84.9914 141 85.514 141H88.3883C88.9109 141 89.3385 140.566 89.3385 140.035H89.3029Z" fill="#F2F5FF"/>
</g>
<g clip-path="url(#clip3_2480_206089)">
<path d="M89.2979 87.5796V84.1654L89.3335 60.9652C89.3335 60.4343 88.9059 60 88.3833 60H85.509C84.9863 60 84.5588 60.4343 84.5588 60.9652L84.5231 79.3275L78.7744 73.4882C78.3112 73.0177 77.6342 72.9332 77.266 73.3193L75.235 75.3823C74.8667 75.7563 74.938 76.444 75.4012 76.9145L86.8867 88.581C87.7657 89.4738 89.2622 88.8464 89.2622 87.5796H89.2979Z" fill="#F2F5FF"/>
<path d="M91.6971 60.9652L91.7328 84.1654V87.5796C91.7328 88.8464 93.2412 89.4738 94.1082 88.581L105.594 76.9145C106.057 76.444 106.14 75.7563 105.76 75.3823L103.729 73.3193C103.361 72.9453 102.684 73.0177 102.221 73.4882L96.4719 79.3275L96.4362 60.9652C96.4362 60.4343 96.0086 60 95.486 60H92.6117C92.0891 60 91.6615 60.4343 91.6615 60.9652H91.6971Z" fill="#F2F5FF"/>
</g>
<g clip-path="url(#clip4_2480_206089)">
<path d="M77.5796 0.702135H74.1654L50.9652 0.666504C50.4343 0.666504 50 1.0941 50 1.6167V4.49104C50 5.01365 50.4343 5.44124 50.9652 5.44124L69.3275 5.47687L63.4882 11.2256C63.0177 11.6888 62.9332 12.3658 63.3193 12.734L65.3823 14.765C65.7563 15.1333 66.444 15.062 66.9145 14.5988L78.581 3.11327C79.4738 2.23434 78.8464 0.737784 77.5796 0.737784V0.702135Z" fill="#F2F5FF"/>
</g>
<g clip-path="url(#clip5_2480_206089)">
<path d="M130.035 0.697126L106.835 0.732758H103.42C102.154 0.732758 101.526 2.24119 102.419 3.10825L114.085 14.5937C114.556 15.057 115.244 15.1401 115.618 14.76L117.681 12.729C118.055 12.3608 117.982 11.6838 117.512 11.2205L111.673 5.47187L130.035 5.43624C130.566 5.43624 131 5.00864 131 4.48604V1.6117C131 1.08909 130.566 0.661496 130.035 0.661496V0.697126Z" fill="#F2F5FF"/>
</g>
<g clip-path="url(#clip6_2480_206089)">
<path d="M91.7021 12.4204V15.8346L91.6665 39.0348C91.6665 39.5657 92.0941 40 92.6167 40H95.491C96.0137 40 96.4412 39.5657 96.4412 39.0348L96.4769 20.6725L102.226 26.5118C102.689 26.9823 103.366 27.0668 103.734 26.6807L105.765 24.6177C106.133 24.2437 106.062 23.556 105.599 23.0855L94.1133 11.419C93.2343 10.5262 91.7378 11.1536 91.7378 12.4204H91.7021Z" fill="#F2F5FF"/>
<path d="M89.3029 39.0348L89.2672 15.8346V12.4204C89.2672 11.1536 87.7588 10.5262 86.8918 11.419L75.4063 23.0855C74.943 23.556 74.8599 24.2437 75.24 24.6177L77.271 26.6807C77.6392 27.0547 78.3162 26.9823 78.7795 26.5118L84.5281 20.6725L84.5638 39.0348C84.5638 39.5657 84.9914 40 85.514 40H88.3883C88.9109 40 89.3385 39.5657 89.3385 39.0348H89.3029Z" fill="#F2F5FF"/>
</g>
<g clip-path="url(#clip7_2480_206089)">
<path d="M128.58 51.7021H125.165L101.965 51.6665C101.434 51.6665 101 52.0941 101 52.6167V55.491C101 56.0137 101.434 56.4412 101.965 56.4412L120.327 56.4769L114.488 62.2256C114.018 62.6888 113.933 63.3658 114.319 63.734L116.382 65.765C116.756 66.1333 117.444 66.062 117.915 65.5988L129.581 54.1133C130.474 53.2343 129.846 51.7378 128.58 51.7378V51.7021Z" fill="#F2F5FF"/>
<path d="M101.965 49.3029L125.165 49.2672H128.58C129.846 49.2672 130.474 47.7588 129.581 46.8918L117.915 35.4063C117.444 34.943 116.756 34.8599 116.382 35.24L114.319 37.271C113.945 37.6392 114.018 38.3162 114.488 38.7795L120.327 44.5281L101.965 44.5638C101.434 44.5638 101 44.9914 101 45.514V48.3883C101 48.9109 101.434 49.3385 101.965 49.3385V49.3029Z" fill="#F2F5FF"/>
</g>
<g clip-path="url(#clip8_2480_206089)">
<path d="M154.42 49.2979H157.835L181.035 49.3335C181.566 49.3335 182 48.9059 182 48.3833V45.509C182 44.9863 181.566 44.5588 181.035 44.5588L162.673 44.5231L168.512 38.7744C168.982 38.3112 169.067 37.6342 168.681 37.266L166.618 35.235C166.244 34.8667 165.556 34.938 165.085 35.4012L153.419 46.8867C152.526 47.7657 153.154 49.2622 154.42 49.2622V49.2979Z" fill="#F2F5FF"/>
<path d="M181.035 51.6971L157.835 51.7328H154.42C153.154 51.7328 152.526 53.2412 153.419 54.1082L165.085 65.5937C165.556 66.057 166.244 66.1401 166.618 65.76L168.681 63.729C169.055 63.3608 168.982 62.6838 168.512 62.2205L162.673 56.4719L181.035 56.4362C181.566 56.4362 182 56.0086 182 55.486V52.6117C182 52.0891 181.566 51.6615 181.035 51.6615V51.6971Z" fill="#F2F5FF"/>
</g>
<g clip-path="url(#clip9_2480_206089)">
<path d="M142.702 63.4204V66.8346L142.667 90.0348C142.667 90.5657 143.094 91 143.617 91H146.491C147.014 91 147.441 90.5657 147.441 90.0348L147.477 71.6725L153.226 77.5118C153.689 77.9823 154.366 78.0668 154.734 77.6807L156.765 75.6177C157.133 75.2437 157.062 74.556 156.599 74.0855L145.113 62.419C144.234 61.5262 142.738 62.1536 142.738 63.4204H142.702Z" fill="#F2F5FF"/>
<path d="M140.303 90.0348L140.267 66.8346V63.4204C140.267 62.1536 138.759 61.5262 137.892 62.419L126.406 74.0855C125.943 74.556 125.86 75.2437 126.24 75.6177L128.271 77.6807C128.639 78.0547 129.316 77.9823 129.779 77.5118L135.528 71.6725L135.564 90.0348C135.564 90.5657 135.991 91 136.514 91H139.388C139.911 91 140.339 90.5657 140.339 90.0348H140.303Z" fill="#F2F5FF"/>
</g>
<g clip-path="url(#clip10_2480_206089)">
<path d="M140.298 37.5796V34.1654L140.333 10.9652C140.333 10.4343 139.906 10 139.383 10H136.509C135.986 10 135.559 10.4343 135.559 10.9652L135.523 29.3275L129.774 23.4882C129.311 23.0177 128.634 22.9332 128.266 23.3193L126.235 25.3823C125.867 25.7563 125.938 26.444 126.401 26.9145L137.887 38.581C138.766 39.4738 140.262 38.8464 140.262 37.5796H140.298Z" fill="#F2F5FF"/>
<path d="M142.697 10.9652L142.733 34.1654V37.5796C142.733 38.8464 144.241 39.4738 145.108 38.581L156.594 26.9145C157.057 26.444 157.14 25.7563 156.76 25.3823L154.729 23.3193C154.361 22.9453 153.684 23.0177 153.221 23.4882L147.472 29.3275L147.436 10.9652C147.436 10.4343 147.009 10 146.486 10H143.612C143.089 10 142.661 10.4343 142.661 10.9652H142.697Z" fill="#F2F5FF"/>
</g>
<g clip-path="url(#clip11_2480_206089)">
<path d="M27.5796 51.7021H24.1654L0.96517 51.6665C0.434328 51.6665 0 52.0941 0 52.6167V55.491C0 56.0137 0.434328 56.4412 0.96517 56.4412L19.3275 56.4769L13.4882 62.2256C13.0177 62.6888 12.9332 63.3658 13.3193 63.734L15.3823 65.765C15.7563 66.1333 16.444 66.062 16.9145 65.5988L28.581 54.1133C29.4738 53.2343 28.8464 51.7378 27.5796 51.7378V51.7021Z" fill="#F2F5FF"/>
<path d="M0.96517 49.3029L24.1654 49.2672H27.5796C28.8464 49.2672 29.4738 47.7588 28.581 46.8918L16.9145 35.4063C16.444 34.943 15.7563 34.8599 15.3823 35.24L13.3193 37.271C12.9453 37.6392 13.0177 38.3162 13.4882 38.7795L19.3275 44.5281L0.96517 44.5638C0.434328 44.5638 0 44.9914 0 45.514V48.3883C0 48.9109 0.434328 49.3385 0.96517 49.3385V49.3029Z" fill="#F2F5FF"/>
</g>
<g clip-path="url(#clip12_2480_206089)">
<path d="M53.4204 49.2979H56.8346L80.0348 49.3335C80.5657 49.3335 81 48.9059 81 48.3833V45.509C81 44.9863 80.5657 44.5588 80.0348 44.5588L61.6725 44.5231L67.5118 38.7744C67.9823 38.3112 68.0668 37.6342 67.6807 37.266L65.6177 35.235C65.2437 34.8667 64.556 34.938 64.0855 35.4012L52.419 46.8867C51.5262 47.7657 52.1536 49.2622 53.4204 49.2622V49.2979Z" fill="#F2F5FF"/>
<path d="M80.0348 51.6971L56.8346 51.7328H53.4204C52.1536 51.7328 51.5262 53.2412 52.419 54.1082L64.0855 65.5937C64.556 66.057 65.2437 66.1401 65.6177 65.76L67.6807 63.729C68.0547 63.3608 67.9823 62.6838 67.5118 62.2205L61.6725 56.4719L80.0348 56.4362C80.5657 56.4362 81 56.0086 81 55.486V52.6117C81 52.0891 80.5657 51.6615 80.0348 51.6615V51.6971Z" fill="#F2F5FF"/>
</g>
<g clip-path="url(#clip13_2480_206089)">
<path d="M41.7021 63.4204V66.8346L41.6665 90.0348C41.6665 90.5657 42.0941 91 42.6167 91H45.491C46.0137 91 46.4412 90.5657 46.4412 90.0348L46.4769 71.6725L52.2256 77.5118C52.6888 77.9823 53.3658 78.0668 53.734 77.6807L55.765 75.6177C56.1333 75.2437 56.062 74.556 55.5988 74.0855L44.1133 62.419C43.2343 61.5262 41.7378 62.1536 41.7378 63.4204H41.7021Z" fill="#F2F5FF"/>
<path d="M39.3029 90.0348L39.2672 66.8346V63.4204C39.2672 62.1536 37.7588 61.5262 36.8918 62.419L25.4063 74.0855C24.943 74.556 24.8599 75.2437 25.24 75.6177L27.271 77.6807C27.6392 78.0547 28.3162 77.9823 28.7795 77.5118L34.5281 71.6725L34.5638 90.0348C34.5638 90.5657 34.9914 91 35.514 91H38.3883C38.9109 91 39.3385 90.5657 39.3385 90.0348H39.3029Z" fill="#F2F5FF"/>
</g>
<g clip-path="url(#clip14_2480_206089)">
<path d="M39.2979 37.5796V34.1654L39.3335 10.9652C39.3335 10.4343 38.9059 10 38.3833 10H35.509C34.9863 10 34.5588 10.4343 34.5588 10.9652L34.5231 29.3275L28.7744 23.4882C28.3112 23.0177 27.6342 22.9332 27.266 23.3193L25.235 25.3823C24.8667 25.7563 24.938 26.444 25.4012 26.9145L36.8867 38.581C37.7657 39.4738 39.2622 38.8464 39.2622 37.5796H39.2979Z" fill="#F2F5FF"/>
<path d="M41.6971 10.9652L41.7328 34.1654V37.5796C41.7328 38.8464 43.2412 39.4738 44.1082 38.581L55.5937 26.9145C56.057 26.444 56.1401 25.7563 55.76 25.3823L53.729 23.3193C53.3608 22.9453 52.6838 23.0177 52.2205 23.4882L46.4719 29.3275L46.4362 10.9652C46.4362 10.4343 46.0086 10 45.486 10H42.6117C42.0891 10 41.6615 10.4343 41.6615 10.9652H41.6971Z" fill="#F2F5FF"/>
</g>
<defs>
<clipPath id="clip0_2480_206089">
<rect width="29" height="31" fill="white" transform="translate(50 85)"/>
</clipPath>
<clipPath id="clip1_2480_206089">
<rect width="29" height="31" fill="white" transform="matrix(-1 0 0 -1 131 116)"/>
</clipPath>
<clipPath id="clip2_2480_206089">
<rect width="29" height="31" fill="white" transform="matrix(0 -1 1 0 75 141)"/>
</clipPath>
<clipPath id="clip3_2480_206089">
<rect width="29" height="31" fill="white" transform="matrix(0 1 -1 0 106 60)"/>
</clipPath>
<clipPath id="clip4_2480_206089">
<rect width="29" height="31" fill="white" transform="translate(50 -16)"/>
</clipPath>
<clipPath id="clip5_2480_206089">
<rect width="29" height="31" fill="white" transform="matrix(-1 0 0 -1 131 15)"/>
</clipPath>
<clipPath id="clip6_2480_206089">
<rect width="29" height="31" fill="white" transform="matrix(0 -1 1 0 75 40)"/>
</clipPath>
<clipPath id="clip7_2480_206089">
<rect width="29" height="31" fill="white" transform="translate(101 35)"/>
</clipPath>
<clipPath id="clip8_2480_206089">
<rect width="29" height="31" fill="white" transform="matrix(-1 0 0 -1 182 66)"/>
</clipPath>
<clipPath id="clip9_2480_206089">
<rect width="29" height="31" fill="white" transform="matrix(0 -1 1 0 126 91)"/>
</clipPath>
<clipPath id="clip10_2480_206089">
<rect width="29" height="31" fill="white" transform="matrix(0 1 -1 0 157 10)"/>
</clipPath>
<clipPath id="clip11_2480_206089">
<rect width="29" height="31" fill="white" transform="translate(0 35)"/>
</clipPath>
<clipPath id="clip12_2480_206089">
<rect width="29" height="31" fill="white" transform="matrix(-1 0 0 -1 81 66)"/>
</clipPath>
<clipPath id="clip13_2480_206089">
<rect width="29" height="31" fill="white" transform="matrix(0 -1 1 0 25 91)"/>
</clipPath>
<clipPath id="clip14_2480_206089">
<rect width="29" height="31" fill="white" transform="matrix(0 1 -1 0 56 10)"/>
</clipPath>
</defs>
</svg>
