<svg width="211" height="40" viewBox="0 0 211 40" fill="none" xmlns="http://www.w3.org/2000/svg">
<g clip-path="url(#clip0_1959_356283)">
<path d="M202.923 7.81433H195.284C194.968 7.81433 194.67 7.91946 194.46 8.14723L192.445 10.1621C192.235 10.3724 192.095 10.6702 192.095 10.9856V12.0544C192.095 12.6326 192.55 13.0881 193.128 13.0881H203.991C204.885 13.0881 205.603 13.8064 205.603 14.7V22.6019C205.603 23.4955 204.885 24.2138 203.991 24.2138H193.163C192.568 24.2138 192.095 24.6869 192.095 25.2826V28.3137C192.095 28.9094 192.568 29.3824 193.163 29.3824H202.923C207.39 29.3824 211 25.7556 211 21.3054V15.8914C211 11.4236 207.39 7.81433 202.923 7.81433Z" fill="#233375"/>
<path d="M189.397 21.6206V14.1743C189.414 13.5786 188.941 13.1055 188.345 13.1055H185.087C184.491 13.1055 184.018 13.5786 184.018 14.1743V22.6018C184.018 23.4954 183.3 24.2137 182.406 24.2137H170.474V15.7862C170.474 10.5475 166.725 7.67407 162.327 7.67407H154.671C154.355 7.67407 154.057 7.79672 153.847 8.02449L151.815 10.0569C151.587 10.2847 151.464 10.565 151.464 10.8804V12.0718C151.464 12.65 151.937 13.1055 152.498 13.1055H163.396C164.289 13.1055 165.008 13.8239 165.008 14.7174V24.2137L147.102 24.2488C146.506 24.2488 146.033 24.7218 146.033 25.3175V28.2961C146.033 28.8918 146.506 29.3648 147.102 29.3648H151.447V30.4686C151.447 31.3622 150.728 32.0806 149.835 32.0806H136.642C135.836 32.0806 135.187 31.4148 135.187 30.6088V19.3254C135.187 18.7297 134.697 18.2566 134.101 18.2566H130.842C130.247 18.2566 129.773 18.7297 129.773 19.3254V29.3824C129.773 34.7788 132.489 37.4945 137.903 37.4945H148.871C153.672 37.4945 156.896 34.4108 156.896 29.3648H169.388C169.984 29.3648 170.457 28.8918 170.457 28.2961V26.6141L172.822 29.0495C173.015 29.2597 173.295 29.3648 173.575 29.3648H181.285C185.63 29.3648 189.169 25.8957 189.379 21.6031L189.397 21.6206Z" fill="#233375"/>
<path d="M169.441 32.0806H166.042C165.48 32.0806 165.025 32.5355 165.025 33.0968V36.4958C165.025 37.057 165.48 37.512 166.042 37.512H169.441C170.002 37.512 170.457 37.057 170.457 36.4958V33.0968C170.457 32.5355 170.002 32.0806 169.441 32.0806Z" fill="#233375"/>
<path d="M188.345 32.0806H179.638C179.047 32.0806 178.569 32.5591 178.569 33.1493V36.4432C178.569 37.0335 179.047 37.512 179.638 37.512H188.345C188.936 37.512 189.414 37.0335 189.414 36.4432V33.1493C189.414 32.5591 188.936 32.0806 188.345 32.0806Z" fill="#233375"/>
<path d="M126.252 5.15112H123.045C122.467 5.15112 121.994 5.67675 121.994 6.32502V28.2435C121.994 28.8918 122.467 29.4174 123.045 29.4174H126.252C126.83 29.4174 127.303 28.8918 127.303 28.2435V6.32502C127.303 5.67675 126.83 5.15112 126.252 5.15112Z" fill="#233375"/>
<path d="M111.639 7.90188H110.378L116.177 1.7696C116.826 1.12133 116.37 0 115.441 0H110.834C110.693 0 110.553 0.0525624 110.448 0.157687L99.6027 11.3184C98.9544 11.9667 99.4099 13.088 100.339 13.088H111.675C113.094 13.088 114.233 14.2444 114.233 15.6461V24.2313H96.6417C96.7643 23.6881 96.8344 23.1625 96.8344 22.6894V14.0342C96.8344 13.4735 96.3788 13.0004 95.8182 13.0004C95.8182 13.0004 92.5593 13.0004 92.4892 13.018C92.0162 13.1056 91.6658 13.5261 91.6658 14.0342V22.6894C91.6658 23.548 90.9824 24.2488 90.1239 24.2488H88.0389C87.1804 24.2488 86.4971 23.548 86.4971 22.6894V14.0342C86.4971 13.4735 86.0416 13.0004 85.4809 13.0004H82.3447C81.784 13.0004 81.311 13.456 81.311 14.0342V22.6894C81.311 23.548 80.6276 24.2488 79.7691 24.2488H77.6842C76.8256 24.2488 76.1248 23.548 76.1248 22.6894V14.0342C76.1248 13.4735 75.6693 13.0004 75.1086 13.0004H71.9724C71.4117 13.0004 70.9386 13.456 70.9386 14.0342V22.6894C70.9386 23.548 70.2553 24.2488 69.3968 24.2488H64.4735C64.7012 23.583 64.8414 22.8647 64.8764 22.1288C64.8764 22.0587 64.894 14.0342 64.894 14.0342C64.894 13.4735 64.4384 13.018 63.8778 13.018H60.7941C60.2334 13.018 59.7779 13.4735 59.7779 14.0342V22.7595C59.7779 23.6005 59.0946 24.2838 58.2536 24.2838H49.791V14.0867C49.791 13.491 49.318 13.018 48.7398 13.018H45.4283C44.8326 13.018 44.3596 13.491 44.3596 14.0867V30.5037C44.3596 31.3973 43.6412 32.1156 42.7477 32.1156H39.4713C39.1559 32.1156 38.858 32.2208 38.6478 32.4485L36.5628 34.4634C36.335 34.6912 36.2124 34.9891 36.2124 35.2869V36.4783C36.2124 37.0565 36.6855 37.512 37.2637 37.512H41.7315C46.0591 37.512 49.5633 34.1831 49.791 29.9255V27.3149L51.7183 29.2247C51.841 29.3474 51.9986 29.4174 52.1739 29.4174H57.2374C59.4625 29.4174 61.4599 28.4538 62.8615 26.947L65.332 29.3999C67.5396 29.3999 68.328 29.4174 68.328 29.4174H68.3631C70.3429 29.4174 72.1651 28.664 73.5317 27.4376C74.8107 28.5764 76.4752 29.3123 78.2974 29.3999C78.3499 29.3999 78.7004 29.4174 78.7004 29.4174H78.7179C80.6977 29.4174 82.5199 28.664 83.8865 27.4376C85.1655 28.5764 86.83 29.3123 88.6522 29.3999C88.7047 29.3999 89.0551 29.4174 89.0551 29.4174H89.0727C92.0687 29.4174 94.0135 28.4012 95.205 27.0521L97.5703 29.4174H118.403C118.963 29.4174 119.436 28.9619 119.436 28.3837C119.436 28.3837 119.436 15.4884 119.401 15.4008C119.261 11.2308 115.844 7.88436 111.639 7.88436V7.90188Z" fill="#233375"/>
<path d="M63.4044 32.0981H55.2047C54.644 32.0981 54.1885 32.5537 54.1885 33.1144V36.4433C54.1885 37.004 54.644 37.4595 55.2047 37.4595H59.3046V38.9838C59.3046 39.5445 59.7601 40 60.3208 40H63.4044C63.9651 40 64.4206 39.5445 64.4206 38.9838V33.1144C64.4206 32.5537 63.9651 32.0981 63.4044 32.0981Z" fill="#233375"/>
<path d="M41.889 22.1639L41.9065 14.0868C41.9065 13.5261 41.4509 13.053 40.8728 13.053H37.7541C37.1934 13.053 36.7203 13.5086 36.7203 14.0868V22.8121C36.7203 23.6707 36.0195 24.354 35.1785 24.354H31.0961C31.3414 23.6706 31.4816 22.9348 31.5342 22.1639C31.5342 22.0938 31.5517 14.0868 31.5517 14.0868C31.5517 13.5261 31.0961 13.053 30.518 13.053H27.3993C26.8386 13.053 26.3655 13.5086 26.3655 14.0868V22.8121C26.3655 23.6707 25.6647 24.354 24.8237 24.354H22.7387C21.9328 24.354 21.267 23.7232 21.1969 22.9173V14.0692C21.1969 13.5086 20.7414 13.0355 20.1632 13.0355H17.0269C16.4663 13.0355 15.9932 13.4911 15.9932 14.0692V30.8367C15.9932 31.4849 15.4676 32.0281 14.8193 32.0106H6.84736C6.19909 31.993 5.67346 31.4499 5.67346 30.8016V19.2729C5.67346 18.7123 5.21792 18.2392 4.63974 18.2392H1.52103C0.960366 18.2392 0.487305 18.6947 0.487305 19.2729V29.4525C0.487305 33.7451 3.95642 37.477 8.24902 37.477H13.4352C17.7278 37.477 21.1969 33.7451 21.1969 29.4525V29.0846C21.8802 29.3299 22.6161 29.47 23.3695 29.5051C23.422 29.5051 23.7725 29.5226 23.7725 29.5226H23.79C25.2617 29.5226 26.6283 29.1021 27.8022 28.3837L28.7484 29.3299C28.871 29.4525 29.0287 29.5226 29.2039 29.5226H34.1448C38.2972 29.5226 41.6787 26.2637 41.889 22.1463V22.1639Z" fill="#233375"/>
</g>
<defs>
<clipPath id="clip0_1959_356283">
<rect width="210.512" height="40" fill="white" transform="translate(0.487305)"/>
</clipPath>
</defs>
</svg>
