<svg width="24" height="24" viewBox="0 0 24 24" fill="none" xmlns="http://www.w3.org/2000/svg">
<path d="M10.3566 0.711658L8.14225 0.125429C6.15689 -0.401354 4.12031 0.779386 3.59309 2.7631L3.04102 4.84616C4.86294 2.58626 7.47946 1.1075 10.3566 0.711658Z" fill="#233375"/>
<path d="M0.666299 13.8137L0.125532 15.8508C-0.401687 17.8345 0.780042 19.8694 2.7654 20.3962L4.87427 20.9584C2.62304 19.1899 1.12046 16.6387 0.666299 13.8137Z" fill="#233375"/>
<path d="M21.251 3.59385L18.8672 2.96547C21.2819 4.82125 22.8522 7.56656 23.2265 10.588L23.8765 8.12947C24.3985 6.15327 23.2258 4.12741 21.251 3.59385Z" fill="#233375"/>
<path d="M13.5879 23.2729L15.8557 23.8749C17.8411 24.401 19.8776 23.2195 20.4041 21.2357L21.0443 18.8329C19.2419 21.238 16.5622 22.8334 13.5879 23.2729Z" fill="#233375"/>
<path d="M12.0014 1.64476C6.24794 1.64326 1.58354 6.30303 1.58203 12.0517V12.0548C1.58278 17.8035 6.24642 22.464 11.9999 22.4632H12.0014C17.7541 22.4625 22.417 17.8027 22.4177 12.0548C22.4177 6.30604 17.7549 1.64551 12.0014 1.64476ZM6.10181 6.83809C6.41363 5.22689 7.9727 4.17182 9.58599 4.48187C11.2 4.79267 12.256 6.35194 11.9457 7.96465C11.6346 9.57737 10.074 10.6324 8.46 10.3224C6.84596 10.0116 5.79001 8.45231 6.10032 6.8396M10.4295 15.834C10.1192 17.4468 8.55865 18.5026 6.9446 18.1918H6.94387C5.32982 17.881 4.27388 16.3217 4.58419 14.709C4.89525 13.0963 6.45581 12.0412 8.06985 12.3513C9.68315 12.6628 10.7398 14.2221 10.4295 15.834ZM11.6934 13.4274C10.9756 13.2889 10.5064 12.5966 10.6442 11.8794C10.7828 11.1622 11.4757 10.6934 12.1935 10.8311C12.9112 10.9696 13.3804 11.6619 13.2426 12.3791C13.104 13.0963 12.4111 13.5651 11.6934 13.4274ZM17.8987 17.2714C17.5862 18.8834 16.0263 19.9377 14.4131 19.6269C12.799 19.3161 11.7431 17.7568 12.0534 16.1441C12.3644 14.5314 13.925 13.4763 15.539 13.7864C17.1531 14.0972 18.209 15.6564 17.8987 17.2692M15.9292 11.7582C14.3144 11.4474 13.2584 9.88817 13.5695 8.27471C13.8806 6.662 15.4411 5.60693 17.0552 5.91698C18.67 6.22778 19.7259 7.78706 19.4149 9.40052C19.1045 11.0132 17.544 12.0691 15.9292 11.7582C15.9299 11.7582 15.9292 11.7582 15.9292 11.7582Z" fill="#233375"/>
</svg>
