<svg width="551" height="124" viewBox="0 0 551 124" fill="none" xmlns="http://www.w3.org/2000/svg">
<g clip-path="url(#clip0_1947_124955)">
<path d="M205.33 16.87H198.75C197.53 16.87 196.31 17.86 196.31 19.08V22.47L190.99 17.28C190.73 17.02 190.38 16.87 190 16.87H177.43C168.21 16.87 162.65 24.47 162.65 33.69V45.07C162.65 54.29 168.21 61.75 177.43 61.75H196.31V63.97C196.31 66.15 194.82 67.39 192.98 67.39H170.43C169.23 67.39 168.25 68.2 168.25 69.4V72.14C168.25 72.59 168.43 73.02 168.75 73.34L173.35 78.12C173.67 78.43 174.09 78.61 174.54 78.61H190.54C199.76 78.61 207.55 71.03 207.55 61.81V19.08C207.55 17.86 206.56 16.87 205.34 16.87H205.33ZM196.32 50.54H177.44C175.6 50.54 173.84 48.99 173.84 47.15V31.46C173.84 29.62 175.6 28.13 177.44 28.13H196.32V50.55V50.54Z" fill="#223F99"/>
<path d="M154.851 16.91H148.121C146.881 16.91 145.881 17.9 145.881 19.13V59.58C145.881 60.81 146.881 61.8 148.121 61.8H154.851C156.091 61.8 157.091 60.81 157.091 59.58V19.13C157.091 17.9 156.091 16.91 154.851 16.91Z" fill="#223F99"/>
<path d="M154.919 0.0100098H148.179C146.939 0.0100098 145.939 1.01001 145.939 2.25001V8.99001C145.939 10.23 146.939 11.22 148.179 11.22H154.949C156.189 11.22 157.159 10.22 157.159 8.99001V2.25001C157.159 1.01001 156.159 0.0100098 154.919 0.0100098Z" fill="#223F99"/>
<path d="M222.159 16.88H215.439C214.202 16.88 213.199 17.8829 213.199 19.12V59.52C213.199 60.7571 214.202 61.76 215.439 61.76H222.159C223.396 61.76 224.399 60.7571 224.399 59.52V19.12C224.399 17.8829 223.396 16.88 222.159 16.88Z" fill="#223F99"/>
<path d="M215.429 0.0400293H222.169C223.399 0.0400293 224.409 1.04003 224.409 2.28003V9.01003C224.409 10.24 223.409 11.24 222.179 11.24H215.439C214.209 11.24 213.199 10.24 213.199 9.00003V2.27003C213.199 1.04003 214.199 0.0300293 215.439 0.0300293L215.429 0.0400293Z" fill="#223F99"/>
<path d="M138.04 0H131.28C130.06 0 129.06 0.99 129.06 2.22V16.83H112.22C102.95 16.83 95.4004 24.34 95.4004 33.61V44.98C95.4004 54.25 102.95 61.76 112.22 61.76H122.9C123.27 61.76 123.63 61.62 123.89 61.35L129.05 56.19V59.54C129.05 60.77 130.05 61.76 131.27 61.76H138.07C139.29 61.76 140.29 60.77 140.29 59.54V2.22C140.29 0.99 139.25 0 138.03 0H138.04ZM129.07 50.57H109.99C108.14 50.57 106.62 49.07 106.62 47.22V31.38C106.62 29.53 108.14 28.09 109.99 28.09H129.07V50.57Z" fill="#223F99"/>
<path d="M378.15 61.76H385.02C386.26 61.76 387.26 60.76 387.26 59.52V28.08H401.97C403.13 27.99 404.05 27.03 404.05 25.86V19.13C404.05 17.89 403.05 16.87 401.81 16.87H393.51C393.13 16.87 392.78 17.04 392.51 17.3L387.26 22.5V19.11C387.26 17.87 386.3 16.87 385.07 16.87H378.16C376.92 16.87 375.92 17.87 375.92 19.11V59.52C375.92 60.76 376.92 61.76 378.16 61.76H378.15Z" fill="#223F99"/>
<path d="M327.74 78.6H334.57C335.81 78.6 336.74 77.6 336.74 76.36V61.76H353.77C363.11 61.76 370.44 54.26 370.44 44.93V33.67C370.44 24.33 363.11 16.84 353.77 16.84H343.01C342.64 16.84 342.27 16.99 342.01 17.25L336.76 22.43V19.08C336.76 17.84 335.73 16.84 334.49 16.84H327.74C326.5 16.84 325.5 17.84 325.5 19.08V76.37C325.5 77.61 326.5 78.61 327.74 78.61V78.6ZM336.73 28.08H355.85C357.71 28.08 359.21 29.59 359.21 31.45V47.17C359.21 49.03 357.71 50.54 355.85 50.54H336.73V28.07V28.08Z" fill="#223F99"/>
<path d="M261.3 44.9C268.95 44.9 275.1 38.7 275.1 31.05C275.1 23.4 268.95 16.86 261.3 16.86H246.72C237.54 16.86 230.1 24.48 230.1 33.66V44.92C230.1 54.1 237.72 61.73 246.89 61.73H268.48C269.09 61.73 269.67 61.49 270.1 61.06L274.3 56.75C274.73 56.32 274.97 55.74 274.97 55.13V52.5C274.97 51.42 274.09 50.54 273.02 50.54H243.38C242.23 50.54 241.28 49.6 241.28 48.45V44.91H261.29L261.3 44.9ZM241.3 30.18C241.3 29.02 242.24 28.08 243.4 28.08H260.99C262.44 28.08 263.73 29.22 263.87 30.66C264.03 32.31 262.73 33.7 261.11 33.7H241.3V30.18Z" fill="#223F99"/>
<path d="M423.73 61.75H445.32C445.93 61.75 446.51 61.51 446.94 61.08L451.14 56.77C451.57 56.34 451.81 55.76 451.81 55.15V52.52C451.81 51.44 450.93 50.56 449.86 50.56H420.22C419.07 50.56 418.12 49.62 418.12 48.47V44.93H438.13C445.78 44.93 451.93 38.73 451.93 31.08C451.93 23.43 445.78 16.89 438.13 16.89H423.55C414.37 16.89 406.93 24.51 406.93 33.69V44.95C406.93 54.13 414.55 61.76 423.72 61.76L423.73 61.75ZM418.13 30.19C418.13 29.03 419.07 28.09 420.23 28.09H437.82C439.27 28.09 440.56 29.23 440.7 30.67C440.86 32.32 439.56 33.71 437.94 33.71H418.13V30.19Z" fill="#223F99"/>
<path d="M471.11 44.95H487.92C489.37 44.95 490.67 46.01 490.8 47.46C490.96 49.12 489.66 50.57 488.04 50.57H463.58C463.09 50.57 462.65 50.68 462.31 51.03L457.87 55.55C457.52 55.9 457.33 56.37 457.33 56.86V59.5C457.33 60.75 458.34 61.77 459.6 61.77H487.71C495.24 61.77 501.66 55.65 501.92 48.12C502.2 40.22 495.88 33.71 488.04 33.71H471.17C469.64 33.71 468.39 32.41 468.39 30.88C468.39 29.35 469.63 28.1 471.17 28.1H490.37C490.86 28.1 491.33 27.79 491.68 27.44L496.19 23.01C496.54 22.66 496.73 22.19 496.73 21.7V19.14C496.73 17.89 495.71 16.87 494.46 16.87H471.43C463.9 16.87 457.49 22.84 457.22 30.37C456.94 38.27 463.26 44.96 471.1 44.96L471.11 44.95Z" fill="#223F99"/>
<path d="M518.95 44.95H535.76C537.21 44.95 538.51 46.01 538.64 47.46C538.8 49.12 537.5 50.57 535.88 50.57H511.42C510.93 50.57 510.49 50.68 510.15 51.03L505.71 55.55C505.36 55.9 505.17 56.37 505.17 56.86V59.5C505.17 60.75 506.18 61.77 507.44 61.77H535.55C543.08 61.77 549.5 55.65 549.76 48.12C550.04 40.22 543.72 33.71 535.88 33.71H519.01C517.48 33.71 516.23 32.41 516.23 30.88C516.23 29.35 517.47 28.1 519.01 28.1H538.03C538.52 28.1 538.99 27.79 539.34 27.44L543.85 23.01C544.2 22.66 544.39 22.19 544.39 21.7V19.14C544.39 17.89 543.38 16.87 542.12 16.87H519.27C511.74 16.87 505.33 22.84 505.06 30.37C504.78 38.27 511.1 44.96 518.94 44.96L518.95 44.95Z" fill="#223F99"/>
<path d="M305.99 39.31L320.3 20.5C321.44 19.02 320.37 16.89 318.5 16.89H309.52C309.17 16.89 308.84 17.05 308.63 17.32L298.94 30.1L289.25 17.32C289.04 17.05 288.71 16.89 288.36 16.89H279.38C277.51 16.89 276.44 19.02 277.58 20.5L291.89 39.31L277.58 58.15C276.44 59.64 277.51 61.77 279.39 61.77H288.21C288.65 61.77 289.06 61.57 289.33 61.22L298.94 48.5L308.56 61.22C308.82 61.56 309.24 61.77 309.68 61.77H318.5C320.38 61.77 321.45 59.63 320.31 58.15L306 39.31H305.99Z" fill="#223F99"/>
<path d="M42.55 1.08005C41.36 -0.0899502 39.64 -0.34995 38.69 0.58005L34.33 5.78005C33.39 6.71005 34.02 8.42005 35.21 9.60005L50.74 25.18H2.42C1.09 25.18 0 26.2801 0 27.6101V34.1C0 35.42 1.08 36.4901 2.42 36.4901H69.41C72.59 36.4901 74.18 32.59 71.93 30.3601L42.55 1.08005Z" fill="#223F99"/>
<path d="M69.4 42.1899H2.42C1.09 42.1899 0 43.2599 0 44.5799V51.0699C0 52.3899 1.08 53.4899 2.42 53.4899H50.74L35.21 69.0699C34.02 70.2399 33.39 71.9499 34.33 72.8899L38.69 78.0899C39.63 79.0199 41.36 78.7699 42.55 77.5899L71.93 48.3199C74.18 46.0899 72.59 42.1899 69.41 42.1899H69.4Z" fill="#223F99"/>
<path d="M341.441 121.49C332.601 121.49 326.511 114.86 326.511 106.6C326.511 98.34 332.611 91.71 341.441 91.71C346.721 91.71 351.381 94.5 353.591 98.62L355.851 97.32C353.061 92.42 347.641 89.25 341.441 89.25C331.211 89.25 323.961 96.98 323.961 106.58C323.961 116.18 331.211 123.91 341.441 123.91C347.731 123.91 353.201 120.64 355.941 115.7L353.681 114.4C351.471 118.63 346.771 121.46 341.441 121.46V121.49Z" fill="#223F99"/>
<path d="M376.711 89.27C367.011 89.27 359.381 97 359.381 106.6C359.381 116.2 367.011 123.93 376.711 123.93C386.411 123.93 394.041 116.2 394.041 106.6C394.041 97 386.411 89.27 376.711 89.27ZM376.711 121.49C368.401 121.49 361.921 114.86 361.921 106.6C361.921 98.34 368.401 91.71 376.711 91.71C385.021 91.71 391.501 98.34 391.501 106.6C391.501 114.86 385.021 121.49 376.711 121.49Z" fill="#223F99"/>
<path d="M457.69 118.71L437.46 89.8H435.25V123.47H437.8V94.5L458 123.47H460.26V89.79H457.69V118.71Z" fill="#223F99"/>
<path d="M424.031 118.71L403.781 89.8H401.561V123.47H404.121V94.5L424.321 123.47H426.571V89.79H424.031V118.71Z" fill="#223F99"/>
<path d="M471.491 107.87H485.811V105.47H471.491V92.18H488.311V89.79H468.971V123.47H488.321V121.06H471.491V107.87Z" fill="#223F99"/>
<path d="M509.83 121.49C500.99 121.49 494.9 114.86 494.9 106.6C494.9 98.34 501 91.71 509.83 91.71C515.11 91.71 519.77 94.5 521.98 98.62L524.24 97.32C521.45 92.42 516.03 89.25 509.83 89.25C499.6 89.25 492.35 96.98 492.35 106.58C492.35 116.18 499.6 123.91 509.83 123.91C516.12 123.91 521.59 120.64 524.33 115.7L522.07 114.4C519.86 118.63 515.16 121.46 509.83 121.46V121.49Z" fill="#223F99"/>
<path d="M527.59 89.79V92.19H537.55V123.47H540.15V92.19H550.05V89.79H527.59Z" fill="#223F99"/>
</g>
<defs>
<clipPath id="clip0_1947_124955">
<rect width="550.05" height="123.94" fill="white"/>
</clipPath>
</defs>
</svg>
