<svg width="27" height="27" viewBox="0 0 27 27" fill="none" xmlns="http://www.w3.org/2000/svg">
<path d="M9.3335 10.3333C9.3335 10.5101 9.40373 10.6797 9.52876 10.8047C9.65378 10.9298 9.82335 11 10.0002 11C10.177 11 10.3465 10.9298 10.4716 10.8047C10.5966 10.6797 10.6668 10.5101 10.6668 10.3333V9C10.6668 8.82319 10.5966 8.65362 10.4716 8.5286C10.3465 8.40357 10.177 8.33333 10.0002 8.33333C9.82335 8.33333 9.65378 8.40357 9.52876 8.5286C9.40373 8.65362 9.3335 8.82319 9.3335 9V10.3333ZM9.3335 10.3333C9.3335 12.1014 10.0359 13.7971 11.2861 15.0474C12.5364 16.2976 14.2321 17 16.0002 17M16.0002 17H17.3335C17.5103 17 17.6799 16.9298 17.8049 16.8047C17.9299 16.6797 18.0002 16.5101 18.0002 16.3333C18.0002 16.1565 17.9299 15.987 17.8049 15.8619C17.6799 15.7369 17.5103 15.6667 17.3335 15.6667H16.0002C15.8234 15.6667 15.6538 15.7369 15.5288 15.8619C15.4037 15.987 15.3335 16.1565 15.3335 16.3333C15.3335 16.5101 15.4037 16.6797 15.5288 16.8047C15.6538 16.9298 15.8234 17 16.0002 17ZM1.3335 25L3.5335 19.9333C1.85038 17.544 1.09705 14.6227 1.41489 11.7174C1.73273 8.8122 3.09988 6.12281 5.25977 4.15399C7.41967 2.18516 10.2238 1.07224 13.146 1.02409C16.0682 0.975939 18.9075 1.99586 21.1311 3.89246C23.3547 5.78905 24.8097 8.43193 25.2231 11.3251C25.6365 14.2183 24.9798 17.1629 23.3763 19.6063C21.7728 22.0497 19.3328 23.824 16.514 24.5961C13.6953 25.3682 10.6917 25.0851 8.06683 23.8L1.3335 25Z" stroke="#233375" stroke-width="2" stroke-linecap="round" stroke-linejoin="round"/>
</svg>
