<svg width="92" height="483" viewBox="0 0 92 483" fill="none" xmlns="http://www.w3.org/2000/svg">
<g clip-path="url(#clip0_2202_598711)">
<path d="M13.4204 140.298H16.8346L40.0348 140.334C40.5657 140.334 41 139.906 41 139.383V136.509C41 135.986 40.5657 135.559 40.0348 135.559L21.6725 135.523L27.5118 129.775C27.9823 129.311 28.0668 128.634 27.6807 128.266L25.6177 126.235C25.2437 125.867 24.556 125.938 24.0855 126.401L12.419 137.887C11.5262 138.766 12.1536 140.262 13.4204 140.262V140.298Z" fill="#D9DEF6"/>
<path d="M40.0348 142.697L16.8346 142.733H13.4204C12.1536 142.733 11.5262 144.241 12.419 145.108L24.0855 156.594C24.556 157.057 25.2437 157.14 25.6177 156.76L27.6807 154.729C28.0547 154.361 27.9823 153.684 27.5118 153.221L21.6725 147.472L40.0348 147.436C40.5657 147.436 41 147.009 41 146.486V143.612C41 143.089 40.5657 142.661 40.0348 142.661V142.697Z" fill="#D9DEF6"/>
</g>
<g clip-path="url(#clip1_2202_598711)">
<path d="M1.70213 154.42L1.70213 157.835L1.6665 181.035C1.6665 181.566 2.0941 182 2.6167 182H5.49104C6.01365 182 6.44124 181.566 6.44124 181.035L6.47687 162.673L12.2256 168.512C12.6888 168.982 13.3658 169.067 13.734 168.681L15.765 166.618C16.1333 166.244 16.062 165.556 15.5988 165.085L4.11327 153.419C3.23434 152.526 1.73778 153.154 1.73778 154.42H1.70213Z" fill="#D9DEF6"/>
</g>
<g clip-path="url(#clip2_2202_598711)">
<path d="M1.69713 101.965L1.73276 125.165V128.58C1.73276 129.846 3.24119 130.474 4.10825 129.581L15.5937 117.915C16.057 117.444 16.1401 116.756 15.76 116.382L13.729 114.319C13.3608 113.945 12.6838 114.018 12.2205 114.488L6.47187 120.327L6.43624 101.965C6.43624 101.434 6.00864 101 5.48604 101H2.6117C2.08909 101 1.6615 101.434 1.6615 101.965H1.69713Z" fill="#D9DEF6"/>
</g>
<g clip-path="url(#clip3_2202_598711)">
<path d="M13.4204 39.2979H16.8346L40.0348 39.3335C40.5657 39.3335 41 38.9059 41 38.3833V35.509C41 34.9863 40.5657 34.5588 40.0348 34.5588L21.6725 34.5231L27.5118 28.7744C27.9823 28.3112 28.0668 27.6342 27.6807 27.266L25.6177 25.235C25.2437 24.8667 24.556 24.938 24.0855 25.4012L12.419 36.8867C11.5262 37.7657 12.1536 39.2622 13.4204 39.2622V39.2979Z" fill="#D9DEF6"/>
<path d="M40.0348 41.6971L16.8346 41.7328H13.4204C12.1536 41.7328 11.5262 43.2412 12.419 44.1082L24.0855 55.5937C24.556 56.057 25.2437 56.1401 25.6177 55.76L27.6807 53.729C28.0547 53.3608 27.9823 52.6838 27.5118 52.2205L21.6725 46.4719L40.0348 46.4362C40.5657 46.4362 41 46.0086 41 45.486V42.6117C41 42.0891 40.5657 41.6615 40.0348 41.6615V41.6971Z" fill="#D9DEF6"/>
</g>
<g clip-path="url(#clip4_2202_598711)">
<path d="M1.70213 53.4204L1.70213 56.8346L1.6665 80.0348C1.6665 80.5657 2.0941 81 2.6167 81H5.49104C6.01365 81 6.44124 80.5657 6.44124 80.0348L6.47687 61.6725L12.2256 67.5118C12.6888 67.9823 13.3658 68.0668 13.734 67.6807L15.765 65.6177C16.1333 65.2437 16.062 64.556 15.5988 64.0855L4.11327 52.419C3.23434 51.5262 1.73778 52.1536 1.73778 53.4204H1.70213Z" fill="#D9DEF6"/>
</g>
<g clip-path="url(#clip5_2202_598711)">
<path d="M1.69713 0.96517L1.73276 24.1654V27.5796C1.73276 28.8464 3.24119 29.4738 4.10825 28.581L15.5937 16.9145C16.057 16.444 16.1401 15.7563 15.76 15.3823L13.729 13.3193C13.3608 12.9453 12.6838 13.0177 12.2205 13.4882L6.47187 19.3275L6.43624 0.96517C6.43624 0.434328 6.00864 0 5.48604 0L2.6117 0C2.08909 0 1.6615 0.434328 1.6615 0.96517H1.69713Z" fill="#D9DEF6"/>
</g>
<g clip-path="url(#clip6_2202_598711)">
<path d="M38.5796 92.7021H35.1654L11.9652 92.6664C11.4343 92.6664 11 93.094 11 93.6166V96.491C11 97.0136 11.4343 97.4412 11.9652 97.4412L30.3275 97.4768L24.4882 103.225C24.0177 103.689 23.9332 104.366 24.3193 104.734L26.3823 106.765C26.7563 107.133 27.444 107.062 27.9145 106.599L39.581 95.1132C40.4738 94.2343 39.8464 92.7377 38.5796 92.7377V92.7021Z" fill="#D9DEF6"/>
<path d="M11.9652 90.3029L35.1654 90.2672H38.5796C39.8464 90.2672 40.4738 88.7588 39.581 87.8918L27.9145 76.4063C27.444 75.943 26.7563 75.8599 26.3823 76.24L24.3193 78.271C23.9453 78.6392 24.0177 79.3162 24.4882 79.7795L30.3275 85.5281L11.9652 85.5638C11.4343 85.5638 11 85.9914 11 86.514V89.3883C11 89.9109 11.4343 90.3385 11.9652 90.3385V90.3029Z" fill="#D9DEF6"/>
</g>
<g clip-path="url(#clip7_2202_598711)">
<path d="M64.4204 90.2979H67.8346L91.0348 90.3336C91.5657 90.3336 92 89.906 92 89.3834V86.509C92 85.9864 91.5657 85.5588 91.0348 85.5588L72.6725 85.5232L78.5118 79.7745C78.9823 79.3113 79.0668 78.6343 78.6807 78.2661L76.6177 76.235C76.2437 75.8668 75.556 75.9381 75.0855 76.4013L63.419 87.8868C62.5262 88.7657 63.1536 90.2623 64.4204 90.2623V90.2979Z" fill="#D9DEF6"/>
<path d="M91.0348 92.6971L67.8346 92.7328H64.4204C63.1536 92.7328 62.5262 94.2412 63.419 95.1082L75.0855 106.594C75.556 107.057 76.2437 107.14 76.6177 106.76L78.6807 104.729C79.0547 104.361 78.9823 103.684 78.5118 103.221L72.6725 97.4719L91.0348 97.4362C91.5657 97.4362 92 97.0086 92 96.486V93.6117C92 93.0891 91.5657 92.6615 91.0348 92.6615V92.6971Z" fill="#D9DEF6"/>
</g>
<g clip-path="url(#clip8_2202_598711)">
<path d="M52.7021 104.42V107.835L52.6665 131.035C52.6665 131.566 53.0941 132 53.6167 132H56.491C57.0137 132 57.4412 131.566 57.4412 131.035L57.4769 112.673L63.2256 118.512C63.6888 118.982 64.3658 119.067 64.734 118.681L66.765 116.618C67.1333 116.244 67.062 115.556 66.5988 115.085L55.1133 103.419C54.2343 102.526 52.7378 103.154 52.7378 104.42H52.7021Z" fill="#D9DEF6"/>
<path d="M50.3029 131.035L50.2672 107.835V104.42C50.2672 103.154 48.7588 102.526 47.8918 103.419L36.4063 115.085C35.943 115.556 35.8599 116.244 36.24 116.618L38.271 118.681C38.6392 119.055 39.3162 118.982 39.7795 118.512L45.5281 112.673L45.5638 131.035C45.5638 131.566 45.9914 132 46.514 132H49.3883C49.9109 132 50.3385 131.566 50.3385 131.035H50.3029Z" fill="#D9DEF6"/>
</g>
<g clip-path="url(#clip9_2202_598711)">
<path d="M50.2979 78.5796V75.1654L50.3335 51.9652C50.3335 51.4343 49.9059 51 49.3833 51H46.509C45.9863 51 45.5588 51.4343 45.5588 51.9652L45.5231 70.3275L39.7744 64.4882C39.3112 64.0177 38.6342 63.9332 38.266 64.3193L36.235 66.3823C35.8667 66.7563 35.938 67.444 36.4012 67.9145L47.8867 79.581C48.7657 80.4738 50.2622 79.8464 50.2622 78.5796H50.2979Z" fill="#D9DEF6"/>
<path d="M52.6971 51.9652L52.7328 75.1654V78.5796C52.7328 79.8464 54.2412 80.4738 55.1082 79.581L66.5937 67.9145C67.057 67.444 67.1401 66.7563 66.76 66.3823L64.729 64.3193C64.3608 63.9453 63.6838 64.0177 63.2205 64.4882L57.4719 70.3275L57.4362 51.9652C57.4362 51.4343 57.0086 51 56.486 51H53.6117C53.0891 51 52.6615 51.4343 52.6615 51.9652H52.6971Z" fill="#D9DEF6"/>
</g>
<g clip-path="url(#clip10_2202_598711)">
<path d="M13.4204 241.298H16.8346L40.0348 241.334C40.5657 241.334 41 240.906 41 240.383V237.509C41 236.986 40.5657 236.559 40.0348 236.559L21.6725 236.523L27.5118 230.775C27.9823 230.311 28.0668 229.634 27.6807 229.266L25.6177 227.235C25.2437 226.867 24.556 226.938 24.0855 227.401L12.419 238.887C11.5262 239.766 12.1536 241.262 13.4204 241.262V241.298Z" fill="#D9DEF6"/>
<path d="M40.0348 243.697L16.8346 243.733H13.4204C12.1536 243.733 11.5262 245.241 12.419 246.108L24.0855 257.594C24.556 258.057 25.2437 258.14 25.6177 257.76L27.6807 255.729C28.0547 255.361 27.9823 254.684 27.5118 254.221L21.6725 248.472L40.0348 248.436C40.5657 248.436 41 248.009 41 247.486V244.612C41 244.089 40.5657 243.661 40.0348 243.661V243.697Z" fill="#D9DEF6"/>
</g>
<g clip-path="url(#clip11_2202_598711)">
<path d="M1.70213 255.42L1.70213 258.835L1.6665 282.035C1.6665 282.566 2.0941 283 2.6167 283H5.49104C6.01365 283 6.44124 282.566 6.44124 282.035L6.47687 263.673L12.2256 269.512C12.6888 269.982 13.3658 270.067 13.734 269.681L15.765 267.618C16.1333 267.244 16.062 266.556 15.5988 266.085L4.11327 254.419C3.23434 253.526 1.73778 254.154 1.73778 255.42H1.70213Z" fill="#D9DEF6"/>
</g>
<g clip-path="url(#clip12_2202_598711)">
<path d="M1.69713 202.965L1.73276 226.165V229.58C1.73276 230.846 3.24119 231.474 4.10825 230.581L15.5937 218.915C16.057 218.444 16.1401 217.756 15.76 217.382L13.729 215.319C13.3608 214.945 12.6838 215.018 12.2205 215.488L6.47187 221.327L6.43624 202.965C6.43624 202.434 6.00864 202 5.48604 202H2.6117C2.08909 202 1.6615 202.434 1.6615 202.965H1.69713Z" fill="#D9DEF6"/>
</g>
<g clip-path="url(#clip13_2202_598711)">
<path d="M13.4204 140.298H16.8346L40.0348 140.334C40.5657 140.334 41 139.906 41 139.383V136.509C41 135.986 40.5657 135.559 40.0348 135.559L21.6725 135.523L27.5118 129.775C27.9823 129.311 28.0668 128.634 27.6807 128.266L25.6177 126.235C25.2437 125.867 24.556 125.938 24.0855 126.401L12.419 137.887C11.5262 138.766 12.1536 140.262 13.4204 140.262V140.298Z" fill="#D9DEF6"/>
<path d="M40.0348 142.697L16.8346 142.733H13.4204C12.1536 142.733 11.5262 144.241 12.419 145.108L24.0855 156.594C24.556 157.057 25.2437 157.14 25.6177 156.76L27.6807 154.729C28.0547 154.361 27.9823 153.684 27.5118 153.221L21.6725 147.472L40.0348 147.436C40.5657 147.436 41 147.009 41 146.486V143.612C41 143.089 40.5657 142.661 40.0348 142.661V142.697Z" fill="#D9DEF6"/>
</g>
<g clip-path="url(#clip14_2202_598711)">
<path d="M1.70213 154.42L1.70213 157.835L1.6665 181.035C1.6665 181.566 2.0941 182 2.6167 182H5.49104C6.01365 182 6.44124 181.566 6.44124 181.035L6.47687 162.673L12.2256 168.512C12.6888 168.982 13.3658 169.067 13.734 168.681L15.765 166.618C16.1333 166.244 16.062 165.556 15.5988 165.085L4.11327 153.419C3.23434 152.526 1.73778 153.154 1.73778 154.42H1.70213Z" fill="#D9DEF6"/>
</g>
<g clip-path="url(#clip15_2202_598711)">
<path d="M1.69713 101.965L1.73276 125.165V128.58C1.73276 129.846 3.24119 130.474 4.10825 129.581L15.5937 117.915C16.057 117.444 16.1401 116.756 15.76 116.382L13.729 114.319C13.3608 113.945 12.6838 114.018 12.2205 114.488L6.47187 120.327L6.43624 101.965C6.43624 101.434 6.00864 101 5.48604 101H2.6117C2.08909 101 1.6615 101.434 1.6615 101.965H1.69713Z" fill="#D9DEF6"/>
</g>
<g clip-path="url(#clip16_2202_598711)">
<path d="M38.5796 193.702H35.1654L11.9652 193.666C11.4343 193.666 11 194.094 11 194.617V197.491C11 198.014 11.4343 198.441 11.9652 198.441L30.3275 198.477L24.4882 204.225C24.0177 204.689 23.9332 205.366 24.3193 205.734L26.3823 207.765C26.7563 208.133 27.444 208.062 27.9145 207.599L39.581 196.113C40.4738 195.234 39.8464 193.738 38.5796 193.738V193.702Z" fill="#D9DEF6"/>
<path d="M11.9652 191.303L35.1654 191.267H38.5796C39.8464 191.267 40.4738 189.759 39.581 188.892L27.9145 177.406C27.444 176.943 26.7563 176.86 26.3823 177.24L24.3193 179.271C23.9453 179.639 24.0177 180.316 24.4882 180.779L30.3275 186.528L11.9652 186.564C11.4343 186.564 11 186.991 11 187.514V190.388C11 190.911 11.4343 191.339 11.9652 191.339V191.303Z" fill="#D9DEF6"/>
</g>
<g clip-path="url(#clip17_2202_598711)">
<path d="M64.4204 191.298H67.8346L91.0348 191.334C91.5657 191.334 92 190.906 92 190.383V187.509C92 186.986 91.5657 186.559 91.0348 186.559L72.6725 186.523L78.5118 180.775C78.9823 180.311 79.0668 179.634 78.6807 179.266L76.6177 177.235C76.2437 176.867 75.556 176.938 75.0855 177.401L63.419 188.887C62.5262 189.766 63.1536 191.262 64.4204 191.262V191.298Z" fill="#D9DEF6"/>
<path d="M91.0348 193.697L67.8346 193.733H64.4204C63.1536 193.733 62.5262 195.241 63.419 196.108L75.0855 207.594C75.556 208.057 76.2437 208.14 76.6177 207.76L78.6807 205.729C79.0547 205.361 78.9823 204.684 78.5118 204.221L72.6725 198.472L91.0348 198.436C91.5657 198.436 92 198.009 92 197.486V194.612C92 194.089 91.5657 193.661 91.0348 193.661V193.697Z" fill="#D9DEF6"/>
</g>
<g clip-path="url(#clip18_2202_598711)">
<path d="M52.7021 205.42V208.835L52.6665 232.035C52.6665 232.566 53.0941 233 53.6167 233H56.491C57.0137 233 57.4412 232.566 57.4412 232.035L57.4769 213.673L63.2256 219.512C63.6888 219.982 64.3658 220.067 64.734 219.681L66.765 217.618C67.1333 217.244 67.062 216.556 66.5988 216.085L55.1133 204.419C54.2343 203.526 52.7378 204.154 52.7378 205.42H52.7021Z" fill="#D9DEF6"/>
<path d="M50.3029 232.035L50.2672 208.835V205.42C50.2672 204.154 48.7588 203.526 47.8918 204.419L36.4063 216.085C35.943 216.556 35.8599 217.244 36.24 217.618L38.271 219.681C38.6392 220.055 39.3162 219.982 39.7795 219.512L45.5281 213.673L45.5638 232.035C45.5638 232.566 45.9914 233 46.514 233H49.3883C49.9109 233 50.3385 232.566 50.3385 232.035H50.3029Z" fill="#D9DEF6"/>
</g>
<g clip-path="url(#clip19_2202_598711)">
<path d="M50.2979 179.58V176.165L50.3335 152.965C50.3335 152.434 49.9059 152 49.3833 152H46.509C45.9863 152 45.5588 152.434 45.5588 152.965L45.5231 171.327L39.7744 165.488C39.3112 165.018 38.6342 164.933 38.266 165.319L36.235 167.382C35.8667 167.756 35.938 168.444 36.4012 168.915L47.8867 180.581C48.7657 181.474 50.2622 180.846 50.2622 179.58H50.2979Z" fill="#D9DEF6"/>
<path d="M52.6971 152.965L52.7328 176.165V179.58C52.7328 180.846 54.2412 181.474 55.1082 180.581L66.5937 168.915C67.057 168.444 67.1401 167.756 66.76 167.382L64.729 165.319C64.3608 164.945 63.6838 165.018 63.2205 165.488L57.4719 171.327L57.4362 152.965C57.4362 152.434 57.0086 152 56.486 152H53.6117C53.0891 152 52.6615 152.434 52.6615 152.965H52.6971Z" fill="#D9DEF6"/>
</g>
<g clip-path="url(#clip20_2202_598711)">
<path d="M13.4204 342.298H16.8346L40.0348 342.334C40.5657 342.334 41 341.906 41 341.383V338.509C41 337.986 40.5657 337.559 40.0348 337.559L21.6725 337.523L27.5118 331.775C27.9823 331.311 28.0668 330.634 27.6807 330.266L25.6177 328.235C25.2437 327.867 24.556 327.938 24.0855 328.401L12.419 339.887C11.5262 340.766 12.1536 342.262 13.4204 342.262V342.298Z" fill="#D9DEF6"/>
<path d="M40.0348 344.697L16.8346 344.733H13.4204C12.1536 344.733 11.5262 346.241 12.419 347.108L24.0855 358.594C24.556 359.057 25.2437 359.14 25.6177 358.76L27.6807 356.729C28.0547 356.361 27.9823 355.684 27.5118 355.221L21.6725 349.472L40.0348 349.436C40.5657 349.436 41 349.009 41 348.486V345.612C41 345.089 40.5657 344.661 40.0348 344.661V344.697Z" fill="#D9DEF6"/>
</g>
<g clip-path="url(#clip21_2202_598711)">
<path d="M1.70213 356.42L1.70213 359.835L1.6665 383.035C1.6665 383.566 2.0941 384 2.6167 384H5.49104C6.01365 384 6.44124 383.566 6.44124 383.035L6.47687 364.673L12.2256 370.512C12.6888 370.982 13.3658 371.067 13.734 370.681L15.765 368.618C16.1333 368.244 16.062 367.556 15.5988 367.085L4.11327 355.419C3.23434 354.526 1.73778 355.154 1.73778 356.42H1.70213Z" fill="#D9DEF6"/>
</g>
<g clip-path="url(#clip22_2202_598711)">
<path d="M1.69713 303.965L1.73276 327.165V330.58C1.73276 331.846 3.24119 332.474 4.10825 331.581L15.5937 319.915C16.057 319.444 16.1401 318.756 15.76 318.382L13.729 316.319C13.3608 315.945 12.6838 316.018 12.2205 316.488L6.47187 322.327L6.43624 303.965C6.43624 303.434 6.00864 303 5.48604 303H2.6117C2.08909 303 1.6615 303.434 1.6615 303.965H1.69713Z" fill="#D9DEF6"/>
</g>
<g clip-path="url(#clip23_2202_598711)">
<path d="M13.4204 241.298H16.8346L40.0348 241.334C40.5657 241.334 41 240.906 41 240.383V237.509C41 236.986 40.5657 236.559 40.0348 236.559L21.6725 236.523L27.5118 230.775C27.9823 230.311 28.0668 229.634 27.6807 229.266L25.6177 227.235C25.2437 226.867 24.556 226.938 24.0855 227.401L12.419 238.887C11.5262 239.766 12.1536 241.262 13.4204 241.262V241.298Z" fill="#D9DEF6"/>
<path d="M40.0348 243.697L16.8346 243.733H13.4204C12.1536 243.733 11.5262 245.241 12.419 246.108L24.0855 257.594C24.556 258.057 25.2437 258.14 25.6177 257.76L27.6807 255.729C28.0547 255.361 27.9823 254.684 27.5118 254.221L21.6725 248.472L40.0348 248.436C40.5657 248.436 41 248.009 41 247.486V244.612C41 244.089 40.5657 243.661 40.0348 243.661V243.697Z" fill="#D9DEF6"/>
</g>
<g clip-path="url(#clip24_2202_598711)">
<path d="M1.70213 255.42L1.70213 258.835L1.6665 282.035C1.6665 282.566 2.0941 283 2.6167 283H5.49104C6.01365 283 6.44124 282.566 6.44124 282.035L6.47687 263.673L12.2256 269.512C12.6888 269.982 13.3658 270.067 13.734 269.681L15.765 267.618C16.1333 267.244 16.062 266.556 15.5988 266.085L4.11327 254.419C3.23434 253.526 1.73778 254.154 1.73778 255.42H1.70213Z" fill="#D9DEF6"/>
</g>
<g clip-path="url(#clip25_2202_598711)">
<path d="M1.69713 202.965L1.73276 226.165V229.58C1.73276 230.846 3.24119 231.474 4.10825 230.581L15.5937 218.915C16.057 218.444 16.1401 217.756 15.76 217.382L13.729 215.319C13.3608 214.945 12.6838 215.018 12.2205 215.488L6.47187 221.327L6.43624 202.965C6.43624 202.434 6.00864 202 5.48604 202H2.6117C2.08909 202 1.6615 202.434 1.6615 202.965H1.69713Z" fill="#D9DEF6"/>
</g>
<g clip-path="url(#clip26_2202_598711)">
<path d="M38.5796 294.702H35.1654L11.9652 294.666C11.4343 294.666 11 295.094 11 295.617V298.491C11 299.014 11.4343 299.441 11.9652 299.441L30.3275 299.477L24.4882 305.225C24.0177 305.689 23.9332 306.366 24.3193 306.734L26.3823 308.765C26.7563 309.133 27.444 309.062 27.9145 308.599L39.581 297.113C40.4738 296.234 39.8464 294.738 38.5796 294.738V294.702Z" fill="#D9DEF6"/>
<path d="M11.9652 292.303L35.1654 292.267H38.5796C39.8464 292.267 40.4738 290.759 39.581 289.892L27.9145 278.406C27.444 277.943 26.7563 277.86 26.3823 278.24L24.3193 280.271C23.9453 280.639 24.0177 281.316 24.4882 281.779L30.3275 287.528L11.9652 287.564C11.4343 287.564 11 287.991 11 288.514V291.388C11 291.911 11.4343 292.339 11.9652 292.339V292.303Z" fill="#D9DEF6"/>
</g>
<g clip-path="url(#clip27_2202_598711)">
<path d="M64.4204 292.298H67.8346L91.0348 292.334C91.5657 292.334 92 291.906 92 291.383V288.509C92 287.986 91.5657 287.559 91.0348 287.559L72.6725 287.523L78.5118 281.775C78.9823 281.311 79.0668 280.634 78.6807 280.266L76.6177 278.235C76.2437 277.867 75.556 277.938 75.0855 278.401L63.419 289.887C62.5262 290.766 63.1536 292.262 64.4204 292.262V292.298Z" fill="#D9DEF6"/>
<path d="M91.0348 294.697L67.8346 294.733H64.4204C63.1536 294.733 62.5262 296.241 63.419 297.108L75.0855 308.594C75.556 309.057 76.2437 309.14 76.6177 308.76L78.6807 306.729C79.0547 306.361 78.9823 305.684 78.5118 305.221L72.6725 299.472L91.0348 299.436C91.5657 299.436 92 299.009 92 298.486V295.612C92 295.089 91.5657 294.661 91.0348 294.661V294.697Z" fill="#D9DEF6"/>
</g>
<g clip-path="url(#clip28_2202_598711)">
<path d="M52.7021 306.42V309.835L52.6665 333.035C52.6665 333.566 53.0941 334 53.6167 334H56.491C57.0137 334 57.4412 333.566 57.4412 333.035L57.4769 314.673L63.2256 320.512C63.6888 320.982 64.3658 321.067 64.734 320.681L66.765 318.618C67.1333 318.244 67.062 317.556 66.5988 317.085L55.1133 305.419C54.2343 304.526 52.7378 305.154 52.7378 306.42H52.7021Z" fill="#D9DEF6"/>
<path d="M50.3029 333.035L50.2672 309.835V306.42C50.2672 305.154 48.7588 304.526 47.8918 305.419L36.4063 317.085C35.943 317.556 35.8599 318.244 36.24 318.618L38.271 320.681C38.6392 321.055 39.3162 320.982 39.7795 320.512L45.5281 314.673L45.5638 333.035C45.5638 333.566 45.9914 334 46.514 334H49.3883C49.9109 334 50.3385 333.566 50.3385 333.035H50.3029Z" fill="#D9DEF6"/>
</g>
<g clip-path="url(#clip29_2202_598711)">
<path d="M50.2979 280.58V277.165L50.3335 253.965C50.3335 253.434 49.9059 253 49.3833 253H46.509C45.9863 253 45.5588 253.434 45.5588 253.965L45.5231 272.327L39.7744 266.488C39.3112 266.018 38.6342 265.933 38.266 266.319L36.235 268.382C35.8667 268.756 35.938 269.444 36.4012 269.915L47.8867 281.581C48.7657 282.474 50.2622 281.846 50.2622 280.58H50.2979Z" fill="#D9DEF6"/>
<path d="M52.6971 253.965L52.7328 277.165V280.58C52.7328 281.846 54.2412 282.474 55.1082 281.581L66.5937 269.915C67.057 269.444 67.1401 268.756 66.76 268.382L64.729 266.319C64.3608 265.945 63.6838 266.018 63.2205 266.488L57.4719 272.327L57.4362 253.965C57.4362 253.434 57.0086 253 56.486 253H53.6117C53.0891 253 52.6615 253.434 52.6615 253.965H52.6971Z" fill="#D9DEF6"/>
</g>
<g clip-path="url(#clip30_2202_598711)">
<path d="M13.4204 443.298H16.8346L40.0348 443.334C40.5657 443.334 41 442.906 41 442.383V439.509C41 438.986 40.5657 438.559 40.0348 438.559L21.6725 438.523L27.5118 432.775C27.9823 432.311 28.0668 431.634 27.6807 431.266L25.6177 429.235C25.2437 428.867 24.556 428.938 24.0855 429.401L12.419 440.887C11.5262 441.766 12.1536 443.262 13.4204 443.262V443.298Z" fill="#D9DEF6"/>
<path d="M40.0348 445.697L16.8346 445.733H13.4204C12.1536 445.733 11.5262 447.241 12.419 448.108L24.0855 459.594C24.556 460.057 25.2437 460.14 25.6177 459.76L27.6807 457.729C28.0547 457.361 27.9823 456.684 27.5118 456.221L21.6725 450.472L40.0348 450.436C40.5657 450.436 41 450.009 41 449.486V446.612C41 446.089 40.5657 445.661 40.0348 445.661V445.697Z" fill="#D9DEF6"/>
</g>
<g clip-path="url(#clip31_2202_598711)">
<path d="M1.70213 457.42L1.70213 460.835L1.6665 484.035C1.6665 484.566 2.0941 485 2.6167 485H5.49104C6.01365 485 6.44124 484.566 6.44124 484.035L6.47687 465.673L12.2256 471.512C12.6888 471.982 13.3658 472.067 13.734 471.681L15.765 469.618C16.1333 469.244 16.062 468.556 15.5988 468.085L4.11327 456.419C3.23434 455.526 1.73778 456.154 1.73778 457.42H1.70213Z" fill="#D9DEF6"/>
</g>
<g clip-path="url(#clip32_2202_598711)">
<path d="M1.69713 404.965L1.73276 428.165V431.58C1.73276 432.846 3.24119 433.474 4.10825 432.581L15.5937 420.915C16.057 420.444 16.1401 419.756 15.76 419.382L13.729 417.319C13.3608 416.945 12.6838 417.018 12.2205 417.488L6.47187 423.327L6.43624 404.965C6.43624 404.434 6.00864 404 5.48604 404H2.6117C2.08909 404 1.6615 404.434 1.6615 404.965H1.69713Z" fill="#D9DEF6"/>
</g>
<g clip-path="url(#clip33_2202_598711)">
<path d="M13.4204 342.298H16.8346L40.0348 342.334C40.5657 342.334 41 341.906 41 341.383V338.509C41 337.986 40.5657 337.559 40.0348 337.559L21.6725 337.523L27.5118 331.775C27.9823 331.311 28.0668 330.634 27.6807 330.266L25.6177 328.235C25.2437 327.867 24.556 327.938 24.0855 328.401L12.419 339.887C11.5262 340.766 12.1536 342.262 13.4204 342.262V342.298Z" fill="#D9DEF6"/>
<path d="M40.0348 344.697L16.8346 344.733H13.4204C12.1536 344.733 11.5262 346.241 12.419 347.108L24.0855 358.594C24.556 359.057 25.2437 359.14 25.6177 358.76L27.6807 356.729C28.0547 356.361 27.9823 355.684 27.5118 355.221L21.6725 349.472L40.0348 349.436C40.5657 349.436 41 349.009 41 348.486V345.612C41 345.089 40.5657 344.661 40.0348 344.661V344.697Z" fill="#D9DEF6"/>
</g>
<g clip-path="url(#clip34_2202_598711)">
<path d="M1.70213 356.42L1.70213 359.835L1.6665 383.035C1.6665 383.566 2.0941 384 2.6167 384H5.49104C6.01365 384 6.44124 383.566 6.44124 383.035L6.47687 364.673L12.2256 370.512C12.6888 370.982 13.3658 371.067 13.734 370.681L15.765 368.618C16.1333 368.244 16.062 367.556 15.5988 367.085L4.11327 355.419C3.23434 354.526 1.73778 355.154 1.73778 356.42H1.70213Z" fill="#D9DEF6"/>
</g>
<g clip-path="url(#clip35_2202_598711)">
<path d="M1.69713 303.965L1.73276 327.165V330.58C1.73276 331.846 3.24119 332.474 4.10825 331.581L15.5937 319.915C16.057 319.444 16.1401 318.756 15.76 318.382L13.729 316.319C13.3608 315.945 12.6838 316.018 12.2205 316.488L6.47187 322.327L6.43624 303.965C6.43624 303.434 6.00864 303 5.48604 303H2.6117C2.08909 303 1.6615 303.434 1.6615 303.965H1.69713Z" fill="#D9DEF6"/>
</g>
<g clip-path="url(#clip36_2202_598711)">
<path d="M38.5796 395.702H35.1654L11.9652 395.666C11.4343 395.666 11 396.094 11 396.617V399.491C11 400.014 11.4343 400.441 11.9652 400.441L30.3275 400.477L24.4882 406.225C24.0177 406.689 23.9332 407.366 24.3193 407.734L26.3823 409.765C26.7563 410.133 27.444 410.062 27.9145 409.599L39.581 398.113C40.4738 397.234 39.8464 395.738 38.5796 395.738V395.702Z" fill="#D9DEF6"/>
<path d="M11.9652 393.303L35.1654 393.267H38.5796C39.8464 393.267 40.4738 391.759 39.581 390.892L27.9145 379.406C27.444 378.943 26.7563 378.86 26.3823 379.24L24.3193 381.271C23.9453 381.639 24.0177 382.316 24.4882 382.779L30.3275 388.528L11.9652 388.564C11.4343 388.564 11 388.991 11 389.514V392.388C11 392.911 11.4343 393.339 11.9652 393.339V393.303Z" fill="#D9DEF6"/>
</g>
<g clip-path="url(#clip37_2202_598711)">
<path d="M64.4204 393.298H67.8346L91.0348 393.334C91.5657 393.334 92 392.906 92 392.383V389.509C92 388.986 91.5657 388.559 91.0348 388.559L72.6725 388.523L78.5118 382.775C78.9823 382.311 79.0668 381.634 78.6807 381.266L76.6177 379.235C76.2437 378.867 75.556 378.938 75.0855 379.401L63.419 390.887C62.5262 391.766 63.1536 393.262 64.4204 393.262V393.298Z" fill="#D9DEF6"/>
<path d="M91.0348 395.697L67.8346 395.733H64.4204C63.1536 395.733 62.5262 397.241 63.419 398.108L75.0855 409.594C75.556 410.057 76.2437 410.14 76.6177 409.76L78.6807 407.729C79.0547 407.361 78.9823 406.684 78.5118 406.221L72.6725 400.472L91.0348 400.436C91.5657 400.436 92 400.009 92 399.486V396.612C92 396.089 91.5657 395.661 91.0348 395.661V395.697Z" fill="#D9DEF6"/>
</g>
<g clip-path="url(#clip38_2202_598711)">
<path d="M52.7021 407.42V410.835L52.6665 434.035C52.6665 434.566 53.0941 435 53.6167 435H56.491C57.0137 435 57.4412 434.566 57.4412 434.035L57.4769 415.673L63.2256 421.512C63.6888 421.982 64.3658 422.067 64.734 421.681L66.765 419.618C67.1333 419.244 67.062 418.556 66.5988 418.085L55.1133 406.419C54.2343 405.526 52.7378 406.154 52.7378 407.42H52.7021Z" fill="#D9DEF6"/>
<path d="M50.3029 434.035L50.2672 410.835V407.42C50.2672 406.154 48.7588 405.526 47.8918 406.419L36.4063 418.085C35.943 418.556 35.8599 419.244 36.24 419.618L38.271 421.681C38.6392 422.055 39.3162 421.982 39.7795 421.512L45.5281 415.673L45.5638 434.035C45.5638 434.566 45.9914 435 46.514 435H49.3883C49.9109 435 50.3385 434.566 50.3385 434.035H50.3029Z" fill="#D9DEF6"/>
</g>
<g clip-path="url(#clip39_2202_598711)">
<path d="M50.2979 381.58V378.165L50.3335 354.965C50.3335 354.434 49.9059 354 49.3833 354H46.509C45.9863 354 45.5588 354.434 45.5588 354.965L45.5231 373.327L39.7744 367.488C39.3112 367.018 38.6342 366.933 38.266 367.319L36.235 369.382C35.8667 369.756 35.938 370.444 36.4012 370.915L47.8867 382.581C48.7657 383.474 50.2622 382.846 50.2622 381.58H50.2979Z" fill="#D9DEF6"/>
<path d="M52.6971 354.965L52.7328 378.165V381.58C52.7328 382.846 54.2412 383.474 55.1082 382.581L66.5937 370.915C67.057 370.444 67.1401 369.756 66.76 369.382L64.729 367.319C64.3608 366.945 63.6838 367.018 63.2205 367.488L57.4719 373.327L57.4362 354.965C57.4362 354.434 57.0086 354 56.486 354H53.6117C53.0891 354 52.6615 354.434 52.6615 354.965H52.6971Z" fill="#D9DEF6"/>
</g>
<defs>
<clipPath id="clip0_2202_598711">
<rect width="29" height="31" fill="white" transform="matrix(-1 0 0 -1 41 157)"/>
</clipPath>
<clipPath id="clip1_2202_598711">
<rect width="29" height="31" fill="white" transform="matrix(0 -1 1 0 -15 182)"/>
</clipPath>
<clipPath id="clip2_2202_598711">
<rect width="29" height="31" fill="white" transform="matrix(0 1 -1 0 16 101)"/>
</clipPath>
<clipPath id="clip3_2202_598711">
<rect width="29" height="31" fill="white" transform="matrix(-1 0 0 -1 41 56)"/>
</clipPath>
<clipPath id="clip4_2202_598711">
<rect width="29" height="31" fill="white" transform="matrix(0 -1 1 0 -15 81)"/>
</clipPath>
<clipPath id="clip5_2202_598711">
<rect width="29" height="31" fill="white" transform="matrix(0 1 -1 0 16 0)"/>
</clipPath>
<clipPath id="clip6_2202_598711">
<rect width="29" height="31" fill="white" transform="translate(11 76)"/>
</clipPath>
<clipPath id="clip7_2202_598711">
<rect width="29" height="31" fill="white" transform="matrix(-1 0 0 -1 92 107)"/>
</clipPath>
<clipPath id="clip8_2202_598711">
<rect width="29" height="31" fill="white" transform="matrix(0 -1 1 0 36 132)"/>
</clipPath>
<clipPath id="clip9_2202_598711">
<rect width="29" height="31" fill="white" transform="matrix(0 1 -1 0 67 51)"/>
</clipPath>
<clipPath id="clip10_2202_598711">
<rect width="29" height="31" fill="white" transform="matrix(-1 0 0 -1 41 258)"/>
</clipPath>
<clipPath id="clip11_2202_598711">
<rect width="29" height="31" fill="white" transform="matrix(0 -1 1 0 -15 283)"/>
</clipPath>
<clipPath id="clip12_2202_598711">
<rect width="29" height="31" fill="white" transform="matrix(0 1 -1 0 16 202)"/>
</clipPath>
<clipPath id="clip13_2202_598711">
<rect width="29" height="31" fill="white" transform="matrix(-1 0 0 -1 41 157)"/>
</clipPath>
<clipPath id="clip14_2202_598711">
<rect width="29" height="31" fill="white" transform="matrix(0 -1 1 0 -15 182)"/>
</clipPath>
<clipPath id="clip15_2202_598711">
<rect width="29" height="31" fill="white" transform="matrix(0 1 -1 0 16 101)"/>
</clipPath>
<clipPath id="clip16_2202_598711">
<rect width="29" height="31" fill="white" transform="translate(11 177)"/>
</clipPath>
<clipPath id="clip17_2202_598711">
<rect width="29" height="31" fill="white" transform="matrix(-1 0 0 -1 92 208)"/>
</clipPath>
<clipPath id="clip18_2202_598711">
<rect width="29" height="31" fill="white" transform="matrix(0 -1 1 0 36 233)"/>
</clipPath>
<clipPath id="clip19_2202_598711">
<rect width="29" height="31" fill="white" transform="matrix(0 1 -1 0 67 152)"/>
</clipPath>
<clipPath id="clip20_2202_598711">
<rect width="29" height="31" fill="white" transform="matrix(-1 0 0 -1 41 359)"/>
</clipPath>
<clipPath id="clip21_2202_598711">
<rect width="29" height="31" fill="white" transform="matrix(0 -1 1 0 -15 384)"/>
</clipPath>
<clipPath id="clip22_2202_598711">
<rect width="29" height="31" fill="white" transform="matrix(0 1 -1 0 16 303)"/>
</clipPath>
<clipPath id="clip23_2202_598711">
<rect width="29" height="31" fill="white" transform="matrix(-1 0 0 -1 41 258)"/>
</clipPath>
<clipPath id="clip24_2202_598711">
<rect width="29" height="31" fill="white" transform="matrix(0 -1 1 0 -15 283)"/>
</clipPath>
<clipPath id="clip25_2202_598711">
<rect width="29" height="31" fill="white" transform="matrix(0 1 -1 0 16 202)"/>
</clipPath>
<clipPath id="clip26_2202_598711">
<rect width="29" height="31" fill="white" transform="translate(11 278)"/>
</clipPath>
<clipPath id="clip27_2202_598711">
<rect width="29" height="31" fill="white" transform="matrix(-1 0 0 -1 92 309)"/>
</clipPath>
<clipPath id="clip28_2202_598711">
<rect width="29" height="31" fill="white" transform="matrix(0 -1 1 0 36 334)"/>
</clipPath>
<clipPath id="clip29_2202_598711">
<rect width="29" height="31" fill="white" transform="matrix(0 1 -1 0 67 253)"/>
</clipPath>
<clipPath id="clip30_2202_598711">
<rect width="29" height="31" fill="white" transform="matrix(-1 0 0 -1 41 460)"/>
</clipPath>
<clipPath id="clip31_2202_598711">
<rect width="29" height="31" fill="white" transform="matrix(0 -1 1 0 -15 485)"/>
</clipPath>
<clipPath id="clip32_2202_598711">
<rect width="29" height="31" fill="white" transform="matrix(0 1 -1 0 16 404)"/>
</clipPath>
<clipPath id="clip33_2202_598711">
<rect width="29" height="31" fill="white" transform="matrix(-1 0 0 -1 41 359)"/>
</clipPath>
<clipPath id="clip34_2202_598711">
<rect width="29" height="31" fill="white" transform="matrix(0 -1 1 0 -15 384)"/>
</clipPath>
<clipPath id="clip35_2202_598711">
<rect width="29" height="31" fill="white" transform="matrix(0 1 -1 0 16 303)"/>
</clipPath>
<clipPath id="clip36_2202_598711">
<rect width="29" height="31" fill="white" transform="translate(11 379)"/>
</clipPath>
<clipPath id="clip37_2202_598711">
<rect width="29" height="31" fill="white" transform="matrix(-1 0 0 -1 92 410)"/>
</clipPath>
<clipPath id="clip38_2202_598711">
<rect width="29" height="31" fill="white" transform="matrix(0 -1 1 0 36 435)"/>
</clipPath>
<clipPath id="clip39_2202_598711">
<rect width="29" height="31" fill="white" transform="matrix(0 1 -1 0 67 354)"/>
</clipPath>
</defs>
</svg>
